<?xml version="1.0" encoding="utf-8"?>
<!-- Generator: Adobe Illustrator 18.0.0, SVG Export Plug-In . SVG Version: 6.00 Build 0)  -->
<!DOCTYPE svg PUBLIC "-//W3C//DTD SVG 1.1//EN" "http://www.w3.org/Graphics/SVG/1.1/DTD/svg11.dtd">
<svg version="1.1" id="Layer_1" xmlns="http://www.w3.org/2000/svg" xmlns:xlink="http://www.w3.org/1999/xlink" x="0px" y="0px"
	 viewBox="20 0 80 80" enable-background="new 20 0 80 80" xml:space="preserve">
<path fill="#FFFFFF" d="M60,5.3c19.2,0,34.7,15.5,34.7,34.7S79.2,74.7,60,74.7S25.3,59.2,25.3,40S40.8,5.3,60,5.3 M60,0
	C37.9,0,20,17.9,20,40s17.9,40,40,40s40-17.9,40-40S82.1,0,60,0L60,0z"/>
<g>
	<g>
		<g>
			<line fill="#FFFFFF" x1="44" y1="24" x2="76" y2="56"/>
		</g>
		<g>
			
				<rect x="37.3" y="37.3" transform="matrix(0.7071 0.7071 -0.7071 0.7071 45.8577 -30.711)" fill="#FFFFFF" width="45.3" height="5.3"/>
		</g>
	</g>
</g>
<g>
	<g>
		<g>
			<line fill="#FFFFFF" x1="76" y1="24" x2="44" y2="56"/>
		</g>
		<g>
			
				<rect x="57.3" y="17.3" transform="matrix(0.7071 0.7071 -0.7071 0.7071 45.8577 -30.711)" fill="#FFFFFF" width="5.3" height="45.3"/>
		</g>
	</g>
</g>
</svg>
