<?xml version="1.0" encoding="UTF-8"?>
<svg width="402px" height="113px" viewBox="0 0 402 113" version="1.1" xmlns="http://www.w3.org/2000/svg" xmlns:xlink="http://www.w3.org/1999/xlink">
    <!-- Generator: Sketch 61.1 (89650) - https://sketch.com -->
    <title>Path</title>
    <desc>Created with Sketch.</desc>
    <g id="Page-1" stroke="none" stroke-width="1" fill="none" fill-rule="evenodd">
        <g id="seattle-skyline-AdobeStock_7208248" fill="#041e42" fill-rule="nonzero">
            <path d="M397.523,72.804 L392.353,72.804 L393.18,85.006 L382.011,85.213 L381.804,76.94 L381.597,74.459 L378.701,73.838 L374.151,74.045 L372.29,70.942 L365.465,70.942 L363.603,73.838 C363.603,73.838 361.535,51.708 361.122,46.537 C360.708,41.366 364.638,17.374 364.638,17.374 L370.016,15.306 L368.362,14.066 L368.155,13.238 L372.705,11.584 L366.914,9.102 L361.33,5.586 L361.743,3.311 L356.985,0 L351.607,3.516 L352.435,5.378 L340.439,11.169 L340.439,13.237 L345.196,13.444 L345.196,16.547 C345.196,16.547 349.953,15.513 349.953,16.961 C349.953,18.408 353.056,41.78 353.056,47.157 C353.056,52.535 349.746,81.904 349.746,81.904 L338.371,83.352 C338.371,83.352 338.371,86.868 338.371,87.902 C338.371,88.936 329.477,87.696 329.477,87.696 L330.097,60.808 L315.62,60.808 L315.62,70.942 L309.415,73.424 L309.415,88.523 L306.933,88.73 L307.14,83.352 L306.106,76.734 C306.106,76.734 303.625,72.597 302.59,71.356 C301.555,70.115 298.867,69.702 296.592,69.495 C294.317,69.288 288.319,74.459 288.319,74.459 L288.526,78.182 L287.078,78.182 L287.078,74.666 L276.737,74.045 C276.737,74.045 277.771,71.357 276.116,68.461 C274.462,65.565 269.291,64.531 267.222,63.704 C265.153,62.877 258.535,67.427 258.535,67.427 L259.155,77.975 L247.78,79.216 L246.953,77.562 L243.023,76.114 L239.506,76.114 L232.681,76.114 L230.406,67.22 L220.065,59.361 L220.685,45.711 L215.721,44.056 L212.205,43.436 L209.516,45.711 L208.896,57.086 L203.105,57.086 L200.416,58.741 L200.002,73.219 L197.313,74.253 L192.97,69.909 L192.143,51.916 L191.315,34.956 L189.04,34.128 L186.351,30.405 L186.144,28.337 L184.489,28.337 L184.282,30.405 L180.973,34.335 L178.7,34.335 L178.493,44.884 L172.495,45.297 L171.874,57.913 L166.91,57.913 L166.29,41.574 L154.294,41.574 L154.087,49.64 L147.882,49.64 L148.089,68.874 L143.746,67.84 L143.746,65.979 L140.437,61.222 L140.23,45.296 L137.334,45.503 L136.92,20.89 L127.612,20.269 L127.405,34.333 L123.682,34.333 L124.51,49.018 L118.512,53.776 L115.409,53.776 L115.409,45.71 L112.513,41.573 L112.306,34.127 L98.037,33.92 L98.658,55.844 L97.21,55.844 L97.003,58.532 L94.107,58.532 L94.314,67.839 L90.591,67.839 L90.384,63.289 L89.143,63.289 L88.729,58.945 L81.283,57.705 L81.283,46.951 L68.666,46.744 L68.459,34.334 L68.045,26.682 L63.702,24.614 L52.327,23.787 L52.327,27.096 L50.88,27.096 L50.673,47.78 L39.711,47.986 L39.711,63.91 L39.09,58.533 L37.436,63.497 L37.022,68.461 L35.988,68.461 L33.092,64.944 L31.644,64.324 L28.128,64.738 L23.164,64.738 L23.371,68.254 L18.821,69.495 L18.614,62.463 L15.925,62.463 L15.304,65.151 L13.856,62.877 L11.788,62.256 L8.892,65.152 L5.996,64.532 L0,64.532 L0.345,112.102 L401.867,112.102 L401.867,69.081 L397.523,72.804 Z M359.054,81.503 L359.054,81.697 L356.931,81.572 C354.505,81.627 351.954,81.627 351.954,81.627 C351.954,81.627 355.263,53.638 355.263,49.088 C355.263,44.537 352.918,17.097 352.918,17.097 L355.381,17.166 L358.847,17.166 L358.847,17.265 L362.709,17.373 C362.709,17.373 358.435,44.261 359.262,47.019 C360.09,49.777 360.639,80.799 361.192,81.213 C361.374,81.351 360.411,81.442 359.054,81.503 Z M355.381,17.167 L355.124,17.167 L355.538,81.491 L356.931,81.573 C357.679,81.555 358.408,81.533 359.054,81.504 L358.847,17.266 L355.381,17.167 Z" id="Shape"></path>
        </g>
    </g>
</svg>
