<?xml version="1.0" encoding="utf-8"?>
<!-- Generator: Adobe Illustrator 18.0.0, SVG Export Plug-In . SVG Version: 6.00 Build 0)  -->
<!DOCTYPE svg PUBLIC "-//W3C//DTD SVG 1.1//EN" "http://www.w3.org/Graphics/SVG/1.1/DTD/svg11.dtd">
<svg version="1.1" id="Icon" xmlns="http://www.w3.org/2000/svg" xmlns:xlink="http://www.w3.org/1999/xlink" x="0px" y="0px"
	 width="88.5px" height="119.5px" viewBox="12.3 0 88.5 119.5" enable-background="new 12.3 0 88.5 119.5" xml:space="preserve">
<path fill-rule="evenodd" clip-rule="evenodd" fill="#3B44A1" d="M98.7,8.9c1.2,0,2.2,1,2.2,2.2v106.3c0,1.2-1,2.2-2.2,2.2H14.5
	c-1.2,0-2.2-1-2.2-2.2V11.1c0-1.2,1-2.2,2.2-2.2h33.2v4.4h-31v101.8h79.7V13.3h-31V8.9H98.7z"/>
<path fill-rule="evenodd" clip-rule="evenodd" fill="#3B44A1" d="M89.8,17.7c1.2,0,2.2,1,2.2,2.2v88.5c0,1.2-1,2.2-2.2,2.2H23.4
	c-1.2,0-2.2-1-2.2-2.2V19.9c0-1.2,1-2.2,2.2-2.2h19.9v4.4H25.6v84.1h62V22.1H69.9v-4.4H89.8z"/>
<path fill-rule="evenodd" clip-rule="evenodd" fill="#3B44A1" d="M61,13.3c0,5.9-8.9,5.9-8.9,0S61,7.4,61,13.3"/>
<path fill-rule="evenodd" clip-rule="evenodd" fill="#3B44A1" d="M47.7,19.9v-6.6c0-4.9,4-8.9,8.9-8.9s8.9,4,8.9,8.9v6.6
	c0,1.2,1,2.2,2.2,2.2h2.2v4.4H43.3v-4.4h2.2C46.8,22.1,47.7,21.1,47.7,19.9z M43.3,17.7h-2.2c-1.2,0-2.2,1-2.2,2.2v8.9
	c0,1.2,1,2.2,2.2,2.2h31c1.2,0,2.2-1,2.2-2.2v-8.9c0-1.2-1-2.2-2.2-2.2h-2.2v-4.4C69.9,5.9,63.9,0,56.6,0S43.3,5.9,43.3,13.3V17.7z"
	/>
<path fill="#3B44A1" d="M61,70.1c0.3,0.3,0.5,0.7,0.5,1.1c0,0.4-0.2,0.8-0.5,1.1c-0.3,0.3-0.7,0.5-1.1,0.5c-0.4,0-0.8-0.2-1.1-0.5
	c-0.3-0.3-0.5-0.7-0.5-1.1c0-0.4,0.2-0.8,0.5-1.1c0.3-0.3,0.7-0.5,1.1-0.5C60.3,69.6,60.8,69.7,61,70.1z M55.9,71.2
	c0,0.8-0.7,1.6-1.6,1.6c-0.8,0-1.6-0.7-1.6-1.6c0-0.8,0.7-1.6,1.6-1.6C55.1,69.6,55.9,70.3,55.9,71.2z M49.8,72.3
	c-0.3,0.3-0.7,0.5-1.1,0.5c-0.4,0-0.8-0.2-1.1-0.5c-0.3-0.3-0.5-0.7-0.5-1.1s0.2-0.8,0.5-1.1c0.3-0.3,0.7-0.5,1.1-0.5
	c0.4,0,0.8,0.2,1.1,0.5c0.3,0.3,0.5,0.7,0.5,1.1C50.2,71.6,50,72,49.8,72.3z M44.5,71.8c0.4,0.8,0.2,1.8-0.6,2.2
	c-0.3,0.2-0.5,0.3-0.8,0.3c-0.6,0-1.1-0.3-1.4-0.8c-0.4-0.8-0.2-1.8,0.6-2.2C43.1,70.8,44.1,71.1,44.5,71.8z M37.8,75.8
	c0.4-0.8,1.4-1,2.2-0.6c0.8,0.4,1,1.4,0.6,2.2c-0.3,0.5-0.8,0.8-1.4,0.8c-0.3,0-0.6-0.1-0.8-0.3C37.5,77.5,37.3,76.6,37.8,75.8z
	 M36.5,83.2c-0.3-0.3-0.5-0.7-0.5-1.1c0-0.4,0.2-0.8,0.5-1.1c0.3-0.3,0.7-0.5,1.1-0.5c0.4,0,0.8,0.2,1.1,0.5
	c0.3,0.3,0.5,0.7,0.5,1.1c0,0.4-0.2,0.8-0.5,1.1c-0.3,0.3-0.7,0.5-1.1,0.5C37.2,83.7,36.8,83.5,36.5,83.2z M80.5,59.4
	c-0.3,0.3-0.8,0.5-1.1,0.5c-0.3,0-0.8-0.2-1.1-0.5l-2.7-2.7v3.6c0,5.4-3.5,10.2-8.7,11.9c-0.2,0.1-0.3,0.1-0.5,0.1
	c-0.7,0-1.3-0.4-1.5-1.1c-0.3-0.8,0.2-1.8,1-2c3.9-1.3,6.4-4.8,6.4-8.9v-3.6l-2.7,2.7c-0.3,0.3-0.8,0.5-1.1,0.5
	c-0.3,0-0.8-0.2-1.1-0.5c-0.6-0.6-0.6-1.6,0-2.3l5.5-5.5c0.3-0.3,0.8-0.5,1.1-0.5c0.4,0,0.8,0.2,1.1,0.5l5.5,5.5
	C81.1,57.7,81.1,58.7,80.5,59.4z M79.5,78.8l-3.3,3.3l3.3,3.3c0.6,0.6,0.6,1.6,0,2.3c-0.3,0.3-0.8,0.5-1.1,0.5
	c-0.3,0-0.8-0.2-1.1-0.5L74,84.4l-3.3,3.3c-0.3,0.3-0.8,0.5-1.1,0.5c-0.3,0-0.8-0.2-1.1-0.5c-0.6-0.6-0.6-1.6,0-2.3l3.3-3.3
	l-3.3-3.3c-0.6-0.6-0.6-1.6,0-2.3c0.6-0.6,1.6-0.6,2.3,0l3.3,3.3l3.3-3.3c0.6-0.6,1.6-0.6,2.3,0C80.1,77.1,80.1,78.1,79.5,78.8z
	 M49.5,58.8l-3.3,3.3c-0.3,0.3-0.8,0.5-1.1,0.5s-0.8-0.2-1.1-0.5c-0.6-0.6-0.6-1.6,0-2.3l3.3-3.3L44,53.2c-0.6-0.6-0.6-1.6,0-2.3
	c0.6-0.6,1.6-0.6,2.3,0l3.3,3.3l3.3-3.3c0.6-0.6,1.6-0.6,2.3,0c0.6,0.6,0.6,1.6,0,2.3l-3.3,3.3l3.3,3.3c0.6,0.6,0.6,1.6,0,2.3
	c-0.3,0.3-0.8,0.5-1.1,0.5c-0.3,0-0.8-0.2-1.1-0.5L49.5,58.8z M37.6,96.5c-1.6,0-3-1.4-3-3s1.4-3,3-3c1.6,0,3,1.4,3,3
	S39.3,96.5,37.6,96.5z M37.6,87.2c-3.4,0-6.2,2.8-6.2,6.2c0,3.4,2.8,6.2,6.2,6.2s6.2-2.8,6.2-6.2C43.8,90,41,87.2,37.6,87.2z
	 M73.9,37.9c1.6,0,3,1.4,3,3s-1.4,3-3,3s-3-1.4-3-3S72.3,37.9,73.9,37.9z M73.9,47.2c3.4,0,6.2-2.8,6.2-6.2c0-3.4-2.8-6.2-6.2-6.2
	c-3.4,0-6.2,2.8-6.2,6.2C67.7,44.4,70.5,47.2,73.9,47.2z"/>
</svg>
