<?xml version="1.0" encoding="utf-8"?>
<!-- Generator: Adobe Illustrator 18.0.0, SVG Export Plug-In . SVG Version: 6.00 Build 0)  -->
<!DOCTYPE svg PUBLIC "-//W3C//DTD SVG 1.1//EN" "http://www.w3.org/Graphics/SVG/1.1/DTD/svg11.dtd">
<svg version="1.1" id="Layer_1" xmlns="http://www.w3.org/2000/svg" xmlns:xlink="http://www.w3.org/1999/xlink" x="0px" y="0px"
	 width="109.8px" height="109.8px" viewBox="0 0 109.8 109.8" enable-background="new 0 0 109.8 109.8" xml:space="preserve">
<g>
	<path fill="#3D479D" d="M35.4,32.1c-0.4-0.4-1.1-0.7-1.7-0.7c-0.6,0-1.2,0.3-1.7,0.7c-0.4,0.4-0.7,1.1-0.7,1.7
		c0,0.6,0.3,1.2,0.7,1.7c0,0,0,0,0,0c0.4,0.4,1.1,0.7,1.7,0.7c0.6,0,1.2-0.3,1.7-0.7c0.4-0.4,0.7-1.1,0.7-1.7
		C36.1,33.1,35.9,32.5,35.4,32.1C35.4,32.1,35.4,32.1,35.4,32.1z M108.2,90.1L65.6,47.5l34.9-34.9c0.6,0.4,1.3,0.7,2,0.7
		c0.8,0,1.6-0.3,2.2-0.9l0.1-0.1l4.1-5.7c0.4-0.4,0.6-0.9,0.7-1.5c0.3-1.7-1.1-3.1-1.5-3.5c-0.6-0.6-1.7-1.5-3-1.5
		c-0.8,0-1.5,0.3-2,0.8l-5.7,4.1L97.4,5c-0.6,0.6-0.9,1.4-0.9,2.2c0,0.8,0.3,1.4,0.6,2L62.2,44.1L48.7,30.6c2-8.4-0.4-17.2-6.5-23.3
		C37.5,2.6,31.3,0,24.7,0c-3.4,0-6.7,0.7-9.8,2l-3.2,1.4l14.4,14.4l-1.4,6.9l-6.8,1.3L3.4,11.7L2,14.9c-2,4.5-2.5,9.4-1.6,14.3
		c0.9,5,3.3,9.5,6.8,13c4.7,4.7,10.9,7.2,17.5,7.2c2,0,4-0.2,5.9-0.7l7.6,7.6L1.8,89.5l-0.1,0.1c-2.1,2.1-1,5.7-0.6,6.9l2.5,8.6
		l9.6,3.6c0.2,0.1,1.9,0.7,3.6,0.7c1.8,0,2.8-0.7,3.4-1.2l0,0l33.1-36.5l36.8,36.8c1,1,2.4,1.6,3.8,1.6c1.4,0,2.8-0.6,3.8-1.6
		l10.5-10.5C110.3,95.6,110.3,92.2,108.2,90.1z M32,43.4l-1.4,0.4c-1.9,0.6-3.9,0.9-5.9,0.9c-5.3,0-10.3-2.1-14.1-5.8
		c-4.9-4.9-6.9-11.9-5.3-18.6l11,11l12.4-2.4l2.6-12.6l-11-11c1.5-0.3,2.9-0.5,4.5-0.5c5.3,0,10.3,2.1,14.1,5.8
		c5.2,5.2,7.1,12.9,5,20L43.3,32l15.5,15.5l-3.2,3.2l-1.7-1.6c-1-1-2.4-1.6-3.9-1.6c-1.5,0-2.8,0.6-3.9,1.6l-4.5,4.1L32,43.4z
		 M16.9,104.5c0,0-0.1,0-0.1,0c-0.7,0-1.6-0.3-1.9-0.4l-7.4-2.8L5.7,95l-0.1-0.2c-0.2-0.6-0.4-1.6-0.4-2l44.2-40.2l0.1-0.1
		c0.2-0.2,0.4-0.2,0.5-0.2c0.1,0,0.3,0,0.5,0.2l6.7,6.7c0.1,0.1,0.2,0.2,0.2,0.4c0,0.2-0.1,0.3-0.2,0.4l0,0L16.9,104.5z M104.8,94.3
		l-10.5,10.5c-0.1,0.1-0.3,0.2-0.4,0.2c-0.1,0-0.3,0-0.4-0.2L56.5,67.9l4.2-4.6c1-1,1.6-2.4,1.6-3.8c0-1.4-0.6-2.8-1.6-3.8L59,54.1
		l3.2-3.2l42.6,42.6C105,93.7,105,94.1,104.8,94.3z M95.4,92c-0.4-0.4-1.1-0.7-1.7-0.7c-0.6,0-1.2,0.3-1.7,0.7
		c-0.4,0.4-0.7,1.1-0.7,1.7c0,0.6,0.3,1.2,0.7,1.7c0,0,0,0,0,0c0.4,0.4,1.1,0.7,1.7,0.7c0.6,0,1.2-0.3,1.7-0.7
		c0.4-0.4,0.7-1.1,0.7-1.7C96.1,93.1,95.9,92.5,95.4,92C95.4,92.1,95.4,92.1,95.4,92z M48.4,58c-6.2,6.2-12.5,12.5-18.7,18.7
		c-6.4,6.4-12.8,12.8-19.2,19.2l0,0c-2.2,2.2,1.2,5.6,3.4,3.4c6.2-6.2,12.5-12.5,18.7-18.7c6.4-6.4,12.8-12.8,19.2-19.2l0,0
		C54,59.2,50.6,55.8,48.4,58z"/>
</g>
</svg>
