<?xml version="1.0" encoding="utf-8"?>
<!-- Generator: Adobe Illustrator 18.0.0, SVG Export Plug-In . SVG Version: 6.00 Build 0)  -->
<!DOCTYPE svg PUBLIC "-//W3C//DTD SVG 1.1//EN" "http://www.w3.org/Graphics/SVG/1.1/DTD/svg11.dtd">
<svg version="1.1" id="Icon" xmlns="http://www.w3.org/2000/svg" xmlns:xlink="http://www.w3.org/1999/xlink" x="0px" y="0px"
	 width="113.2px" height="120.8px" viewBox="0 0 113.2 120.8" enable-background="new 0 0 113.2 120.8" xml:space="preserve">
<path fill="#3B44A1" d="M60.5,106.1h-9.5c-3.4,0-3.4,5.3,0,5.3h9.5C63.9,111.3,63.9,106.1,60.5,106.1z M56.7,67.3L56.7,67.3
	c1.5,0,2.6-1.2,2.6-2.6c0-1.4-1.2-2.6-2.6-2.6h0c-1.4,0-2.6,1.2-2.6,2.6C54,66.1,55.2,67.3,56.7,67.3z M49.4,67.3
	c1.4,0,2.6-1.2,2.6-2.6c0-1.4-1.2-2.6-2.6-2.6h0c-1.4,0-2.6,1.2-2.6,2.6C46.8,66.1,48,67.3,49.4,67.3L49.4,67.3z M64.2,62L64.2,62
	c-1.5,0-2.6,1.2-2.6,2.6c0,1.4,1.2,2.6,2.6,2.6h0c1.4,0,2.6-1.2,2.6-2.6C66.8,63.2,65.6,62,64.2,62z M110.5,12.9H73.3
	c-0.8,0-1.4,0.3-1.9,0.8c-0.5,0.4-0.8,1-0.8,1.9v4.1H52.1v-17c0-0.8-0.3-1.4-0.8-1.9c-0.4-0.5-1-0.8-1.9-0.8H13.6
	c-1.4,0-2.6,1.2-2.6,2.6v28.7c0,1.4,1.2,2.6,2.6,2.6h13.3v19.7H2.6c-1.4,0-2.6,1.2-2.6,2.6v28.7c0,1.4,1.2,2.6,2.6,2.6h14.9
	c1.7,3.4,5.8,5.8,9.3,6.9V115c0,2,0.9,4.4,2.9,5.3c0.8,0.4,1.5,0.4,2.3,0.4h48.5c2.9,0,4.4-2.8,4.6-5.4c0-0.1,0-0.2,0-0.4V53.8
	c3.6-1,7.8-3.5,9.6-6.9h15.6c1.4,0,2.6-1.2,2.6-2.6V15.5C113.2,14.1,112,12.9,110.5,12.9z M16.2,28.7V5.3h30.6v23.4h-7.1
	c-1.9,0-2.8,1.7-2.5,3.3c0.2,1.1,0.3,2.2,0.6,3.2c-0.2-0.1-0.4-0.2-0.6-0.3c-0.4-0.2-0.8-0.4-1.2-0.7c-0.2-0.1-0.4-0.2-0.6-0.4
	c0,0-0.3-0.2-0.3-0.2c-0.3-0.2-0.6-0.5-0.8-0.7c-0.1-0.1-0.7-0.8-0.7-0.7c-0.2-0.3-0.4-0.6-0.5-0.9l0,0c0,0,0-0.1,0-0.1
	c-0.1-0.2-0.1-0.4-0.1-0.6c-0.2-1.1-1.4-1.9-2.5-1.9H16.2z M40.6,36.1C40.5,36.1,40.5,36.1,40.6,36.1C40.5,36.1,40.5,36.1,40.6,36.1
	z M28.8,82.3c-1.9,0-2.8,1.7-2.5,3.3c0.2,1.1,0.3,2.2,0.6,3.2c-0.2-0.1-0.4-0.2-0.6-0.3c-0.4-0.2-0.8-0.4-1.2-0.7
	c-0.2-0.1-0.4-0.2-0.6-0.4c0,0-0.3-0.2-0.3-0.2c-0.3-0.2-0.6-0.5-0.8-0.7c-0.1-0.1-0.7-0.8-0.7-0.7c-0.2-0.3-0.4-0.6-0.5-0.9l0,0
	c0,0,0-0.1,0-0.1c-0.1-0.2-0.1-0.4-0.1-0.6c-0.2-1.1-1.4-1.9-2.5-1.9H5.3V58.9h30.6v23.4H28.8z M80,47.6c-0.1,0.3-0.2,0.7-0.4,1
	c-0.7,1.4-1.2,2.4-0.5,4c0.2,0.5,0.5,0.8,0.9,1.1V115c0,0.4,0,0.3-0.1,0.5H32.2c-0.1-0.6-0.1-1.4-0.1-2V94.2c0.3-0.2,0.6-0.6,0.8-1
	c0.7-1.5,0.2-2.6-0.5-4c-0.1-0.2-0.2-0.5-0.3-0.7v-1.1h6.4c1.4,0,2.6-1.2,2.6-2.6V56.2c0-0.8-0.3-1.4-0.8-1.9
	c-0.4-0.5-1-0.8-1.9-0.8h-6.4V38c1.9,1.4,4.1,2.4,6.1,3c1.8,0.5,4.6,0.8,5.6-1.3c0.7-1.5,0.2-2.6-0.5-4c-0.3-0.5-0.5-1.1-0.6-1.8
	h6.7c1.4,0,2.6-1.2,2.6-2.6v-6.5h18.6v19.4c0,1.4,1.2,2.6,2.6,2.6H80V47.6z M107.9,41.6H93.1c-1.1,0-2.3,0.8-2.5,1.9
	c0,0.2-0.1,0.4-0.1,0.5c0,0,0,0,0,0c0,0,0,0,0,0c-0.2,0.3-0.4,0.6-0.6,0.9c0.2-0.3-0.5,0.5-0.6,0.6c-0.2,0.2-0.3,0.3-0.5,0.4
	c0,0-0.3,0.2-0.3,0.3c-0.7,0.5-1.4,0.9-2.1,1.3c-0.3,0.2-0.7,0.3-1,0.5c0.3-1.1,0.4-2.2,0.6-3.3c0.3-1.7-0.7-3.3-2.5-3.3h-7.4V18.2
	h32V41.6z M34.3,16.2V9.7c0-3.4-5.3-3.4-5.3,0v6.5C29.1,19.5,34.3,19.5,34.3,16.2z M34.3,23.6L34.3,23.6c0-1.5-1.2-2.7-2.6-2.7
	c-1.4,0-2.6,1.2-2.6,2.6v0c0,1.4,1.2,2.6,2.6,2.6C33.1,26.2,34.3,25,34.3,23.6z M94.5,29.4v-6.5c0-3.4-5.3-3.4-5.3,0v6.5
	C89.3,32.8,94.5,32.8,94.5,29.4z M91.9,39.4c1.4,0,2.6-1.2,2.6-2.6v0c0-1.4-1.2-2.6-2.6-2.6c-1.4,0-2.6,1.2-2.6,2.6v0
	C89.3,38.2,90.5,39.4,91.9,39.4z M17.9,63.9v6.5c0,3.4,5.3,3.4,5.3,0v-6.5C23.2,60.5,17.9,60.5,17.9,63.9z M20.6,75.1
	c-1.4,0-2.6,1.2-2.6,2.6v0c0,1.4,1.2,2.6,2.6,2.6s2.6-1.2,2.6-2.6v0C23.2,76.3,22,75.1,20.6,75.1z"/>
</svg>
