<?xml version="1.0" encoding="utf-8"?>
<!-- Generator: Adobe Illustrator 18.0.0, SVG Export Plug-In . SVG Version: 6.00 Build 0)  -->
<!DOCTYPE svg PUBLIC "-//W3C//DTD SVG 1.1//EN" "http://www.w3.org/Graphics/SVG/1.1/DTD/svg11.dtd">
<svg version="1.1" id="Icon" xmlns="http://www.w3.org/2000/svg" xmlns:xlink="http://www.w3.org/1999/xlink" x="0px" y="0px"
	 width="114.6px" height="120.3px" viewBox="0 0 114.6 120.3" enable-background="new 0 0 114.6 120.3" xml:space="preserve">
<path fill="#3B44A1" d="M48.6,103.8h-7.7c-3.4,0-3.4,5.3,0,5.3h7.7C52,109,52,103.8,48.6,103.8z M44.5,14.7L44.5,14.7
	c1.5,0,2.7-1.2,2.7-2.6c0-1.4-1.2-2.6-2.6-2.6h0c-1.4,0-2.6,1.2-2.6,2.6C41.8,13.5,43,14.7,44.5,14.7z M15.7,87.1
	c-3.4,0-3.4,5.3,0,5.3h58c3.4,0,3.4-5.3,0-5.3H15.7z M113.7,93.9c-0.3-0.3-0.6-0.7-0.9-1c-1.7-1.9-3.3-3.8-5-5.7
	c-4.2-4.9-8.5-9.7-12.7-14.6c3.8-4.8,5.8-10.8,5.9-16.9c-0.1-8.8-4.4-17.1-11.5-22.2V7.2c0-1.9-0.3-3.7-1.6-5.2
	c-1.4-1.6-3.3-2-5.3-2H12.6c-2.6,0-5.4-0.2-8,0.1C1.5,0.7,0,4.1,0,6.9v107.1c0,3.4,2.5,6.4,6,6.4h77.3c3.5,0,5.8-2.7,6.1-6
	c0-0.1,0-0.2,0-0.3V85.7c1,1.1,1.9,2.2,2.9,3.3c3.1,3.5,6.1,7,9.2,10.5c0.8,0.9,1.6,1.8,2.4,2.8c2.4,2.7,5.6,0.4,7.7-1.4
	C113.6,99.2,115.9,96.4,113.7,93.9z M5.8,5.3c0,0,0,0-0.1,0C6.2,5.2,6,5.3,5.8,5.3z M84.2,114c0,0.5,0,0.5-0.3,1
	c0.2-0.3-0.4,0.3,0,0c-0.1,0-0.1,0.1-0.1,0.1c0,0-0.1,0-0.2,0c0.3-0.1,0.1,0,0,0H5.8c0.4,0-0.2-0.1-0.1,0c-0.3-0.2-0.5-0.6-0.5-1.2
	V6.5c0-0.1,0-0.4,0-0.4c0.1-0.3,0.2-0.5,0.4-0.7c-0.2,0.2,0.1,0,0.1,0h77.8c-0.2,0,0.2,0.1,0.1,0c0.4,0.3,0.5,0.6,0.5,1.2v24
	c-2.6-1.1-5.2-1.7-7.9-1.9c0.2-1.4-0.7-3-2.5-3H41.5c-3.4,0-3.4,5.3,0,5.3h21.1C60.3,32,58,33.4,56,35.1c-1.1,0.9-2,1.9-2.9,2.9
	H41.5c-3.4,0-3.4,5.3,0,5.3h8.1c-1.2,2.4-2,4.9-2.5,7.5H15.7c-3.4,0-3.4,5.3,0,5.3h30.9c0,2.3,0.3,4.6,0.9,6.9H15.7
	c-3.4,0-3.4,5.3,0,5.3h33.9c1.3,2.4,2.9,4.6,4.8,6.5H15.7c-3.4,0-3.4,5.3,0,5.3h45.9c2.4,1.2,4.9,2,7.5,2.5
	c5.2,0.9,10.4,0.2,15.1-1.7V114z M81,76.4c-4.6,1.6-9.3,1.6-13.9,0.2c-4.1-1.3-8.1-4.1-10.7-7.4c-2.9-3.8-4.4-8.2-4.6-12.8
	c-0.1-4.8,1.2-9.1,3.9-13.1c2.4-3.5,6.3-6.5,10.2-8c4.6-1.7,9.3-1.8,13.9-0.5c9.3,2.6,15.7,11.4,15.8,21
	C95.6,64.9,89.6,73.3,81,76.4z M106.1,98.5c0.1,0,0.1-0.1,0.2-0.1C106.3,98.4,106.2,98.4,106.1,98.5z M107.9,97.2
	c-0.3,0.2-0.6,0.5-0.8,0.7c-0.3-0.4-0.7-0.7-1-1.1c-1.9-2.2-3.9-4.4-5.8-6.6c-3.6-4.1-7.2-8.3-10.8-12.4c0.6-0.5,1.3-0.9,1.9-1.4
	c4,4.5,7.9,9.1,11.9,13.6c1.7,2,3.4,3.9,5.2,5.9c0.1,0.2,0.3,0.3,0.4,0.5C108.6,96.7,108.2,96.9,107.9,97.2z M15.2,46.4
	c1.2,0.7,3,0.3,3.6-0.9c0.3-0.7,0.7-1.3,1-2c0.1,0,0.1,0,0.2,0h9.6c0.1,0,0.1,0,0.2,0c0.3,0.7,0.6,1.3,1,2c0.6,1.3,2.4,1.6,3.6,0.9
	c1.3-0.8,1.6-2.3,0.9-3.6c-2.7-5.6-5.4-11.3-8.1-16.9c-0.8-1.7-3.7-1.7-4.5,0c-2.8,5.6-5.5,11.3-8.3,16.9
	C13.7,44.1,13.9,45.7,15.2,46.4z M24.9,33.2c0.8,1.7,1.6,3.3,2.4,5h-4.9C23.2,36.6,24,34.9,24.9,33.2z"/>
</svg>
