<?xml version="1.0" encoding="utf-8"?>
<!-- Generator: Adobe Illustrator 18.0.0, SVG Export Plug-In . SVG Version: 6.00 Build 0)  -->
<!DOCTYPE svg PUBLIC "-//W3C//DTD SVG 1.1//EN" "http://www.w3.org/Graphics/SVG/1.1/DTD/svg11.dtd">
<svg version="1.1" id="Layer_1" xmlns="http://www.w3.org/2000/svg" xmlns:xlink="http://www.w3.org/1999/xlink" x="0px" y="0px"
	 width="117.3px" height="61.6px" viewBox="0 0 117.3 61.6" enable-background="new 0 0 117.3 61.6" xml:space="preserve">
<path fill="#3D479D" d="M114.7,56.3c-0.3,0-5.5,0-13.5,0l-0.3-0.4c0-1,0-1.9-0.1-2.9l12.2-18.6c0.4-0.7,0.5-1.5,0.2-2.3
	c-0.3-0.7-1-1.3-1.7-1.5l-22.7-5c-0.7-0.7-1.3-1.3-2-1.9L82.4,1.9c-0.2-0.8-0.7-1.4-1.4-1.8c-0.7-0.3-1.6-0.2-2.3,0.2L59.2,12.9
	c-0.2,0-0.4,0-0.5,0c-0.8,0-1.5,0-2.3,0.1L37.7,0.8c-0.7-0.4-1.5-0.5-2.3-0.2c-0.7,0.3-1.3,1-1.5,1.7l-4.9,22.6
	c-0.6,0.6-1.2,1.2-1.8,1.9L5.5,31.3C4.7,31.5,4,32,3.7,32.8c-0.3,0.7-0.2,1.6,0.2,2.3l12.4,19.3c0,0.7,0,1.3,0,2
	c-8.1,0-13.4,0-13.7,0c-1.4,0-2.6,1.2-2.6,2.6c0,1.4,1.2,2.6,2.6,2.6c1.3,0,110.8,0,112.1,0c1.4,0,2.6-1.2,2.6-2.6
	C117.3,57.5,116.1,56.3,114.7,56.3z M107.1,34.7l-7.2,11c-0.6-2.5-1.4-4.9-2.4-7.3c-1-2.3-2.2-4.5-3.6-6.6L107.1,34.7z M78.3,6.4
	L81,19.3c-4.3-2.7-9-4.6-14.1-5.6L78.3,6.4z M38,6.8L49,14c-2.5,0.6-4.9,1.4-7.3,2.4c-2.3,1-4.5,2.2-6.6,3.6L38,6.8z M30.1,31
	c0.3-0.2,0.5-0.5,0.7-0.8c0.7-0.8,1.4-1.5,2.2-2.2c0,0,0,0,0,0c3.1-2.9,6.7-5.3,10.7-7c3.8-1.6,7.7-2.6,11.7-3c0.3,0,0.7,0,1-0.1
	c0.7,0,1.4-0.1,2.2-0.1c9.1,0,17.6,3.3,24.3,8.9c0.2,0.2,0.3,0.3,0.5,0.4c4,3.6,7.3,8,9.6,13.1c1.7,3.9,2.7,8,3,12
	c0,0.2,0,0.4,0,0.6c0.1,1.1,0.1,2.2,0.1,3.2c0,0.1,0,0.1,0,0.2c-20.8,0-54.1,0-74.8,0c0-0.5,0-1.1,0-1.6c0.2-0.5,0.2-1,0.1-1.5
	c0.2-3.9,1.1-7.8,2.6-11.6C25.3,37.6,27.5,34.1,30.1,31z M10,35.4l12.8-2.7c-1.4,2.2-2.6,4.6-3.5,7c-0.9,2.3-1.6,4.6-2.1,6.9
	L10,35.4z"/>
</svg>
