<?xml version="1.0" encoding="utf-8"?>
<!-- Generator: Adobe Illustrator 18.0.0, SVG Export Plug-In . SVG Version: 6.00 Build 0)  -->
<!DOCTYPE svg PUBLIC "-//W3C//DTD SVG 1.1//EN" "http://www.w3.org/Graphics/SVG/1.1/DTD/svg11.dtd">
<svg version="1.1" id="Icon" xmlns="http://www.w3.org/2000/svg" xmlns:xlink="http://www.w3.org/1999/xlink" x="0px" y="0px"
	 width="119.4px" height="90px" viewBox="0 0 119.4 90" enable-background="new 0 0 119.4 90" xml:space="preserve">
<path fill="#3B44A1" d="M40.4,57.5c0.5,0.5,1.2,0.8,1.9,0.8c0.7,0,1.3-0.3,1.9-0.8c1-1,1-2.7,0-3.7l-6.5-6.5l6.9-6.2
	c1.1-1,1.2-2.6,0.2-3.7c-1-1.1-2.6-1.2-3.7-0.2l-9,8.1c-0.5,0.5-0.9,1.2-0.9,1.9c0,0.7,0.3,1.4,0.8,1.9L40.4,57.5z M118.5,62.3
	c-0.3-0.4-0.6-0.7-0.9-1.1c-1.7-2-3.5-3.9-5.2-5.9c-3.9-4.4-7.7-8.8-11.6-13.3c3.6-4.6,5.5-10.3,5.6-16.1
	C106.3,15.4,99.8,5.9,90,1.9c-9.7-4-21.2-1.4-28.5,6.2c-1.3,1.4-2.5,2.9-3.4,4.5H13.8c-1.4,0-2.7,0-4.1,0.6c-3,1.3-4,4.4-4,7.4v49.9
	c0,1,0.1,2,0.4,2.9c-2,0.1-3.6,0.8-4.9,2.5c-1.4,2-1.4,5-1.2,7.4c0.3,2.9,1.4,5.8,4.4,6.7C5.4,90.1,6.4,90,7.3,90h93
	c4.6,0,5.9-4.7,5.9-8.4c0-2.4-0.3-5.3-2.3-6.9c-1.1-0.9-2.4-1.3-3.8-1.3h0c0.2-0.6,0.3-1.1,0.3-1.7c0-0.1,0-0.2,0-0.3V60.8
	c2.3,2.7,4.7,5.3,7,8c0.5,0.6,1.1,1.3,1.6,1.9c2.2,2.6,5.4,0.2,7.3-1.4C118.5,67.5,120.7,64.8,118.5,62.3z M65.7,11.3
	c6.6-6.7,17.1-7.9,25.2-3.2c6.4,3.7,10.2,10.6,10.3,17.9c-0.1,9.3-6.3,17.5-15.2,20c-9,2.5-18.7-1.6-23.4-9.5
	C57.6,28.4,59.1,17.9,65.7,11.3z M11,19.7c0-0.1,0-0.5,0-0.4c0.1-0.4,0.2-0.8,0.3-0.9c0,0,0.3-0.3,0.4-0.4c0.2-0.1,0.6-0.3,0.3-0.2
	c0.3-0.1,0.1-0.1,0.5-0.1h43.2c-0.2,0.8-0.5,1.5-0.6,2.3c-0.1,0-0.1,0-0.2,0h-3.5c-1.4,0-2.6,1.2-2.6,2.6c0,1.4,1.2,2.6,2.6,2.6h3
	c-0.1,3,0.3,5.9,1.2,8.8L45.2,61.6c-0.5,1.4,0.2,2.9,1.5,3.4c0.3,0.1,0.6,0.2,0.9,0.2c1.1,0,2.1-0.6,2.5-1.7l8.6-22.9
	c2.3,3.4,5.4,6.2,9,8.1l-5.7,5.1c-1.1,1-1.2,2.6-0.2,3.7c0.5,0.6,1.2,0.9,2,0.9c0.6,0,1.3-0.2,1.8-0.7l7.6-6.8
	c2.7,0.8,5.5,1.1,8.3,1c3.2-0.1,6.4-0.9,9.3-2.2l4.4,5.1v16.4c0,1.1-0.7,1.9-1.5,1.9H12.4c-0.7,0-1.4-0.8-1.4-1.9V19.7z M5.8,78.6
	C5.8,78.6,5.8,78.6,5.8,78.6C5.7,78.6,5.7,78.6,5.8,78.6C5.7,78.6,5.7,78.6,5.8,78.6z M6,84.8C6,84.8,6,84.9,6,84.8
	C6,84.9,6,84.8,6,84.8z M100.5,84.7C100.6,84.7,100.6,84.7,100.5,84.7L100.5,84.7z M100.6,78.6C100.6,78.6,100.7,78.6,100.6,78.6
	C100.7,78.6,100.7,78.6,100.6,78.6L100.6,78.6z M100.6,78.6C100.6,78.6,100.6,78.6,100.6,78.6C100.6,78.6,100.6,78.6,100.6,78.6
	L100.6,78.6C100.6,78.6,100.6,78.6,100.6,78.6z M100.6,78.5C100.6,78.5,100.6,78.6,100.6,78.5C100.6,78.6,100.6,78.5,100.6,78.5
	L100.6,78.5z M100.5,78.5L100.5,78.5C100.5,78.5,100.5,78.5,100.5,78.5C100.5,78.5,100.5,78.5,100.5,78.5z M100.4,78.5
	c0.1,0,0.1,0,0.1,0c0,0,0,0,0.1,0l0,0c-0.3-0.1,0,0.1,0,0.1c0,0.1,0.1,0.1,0.1,0.1c0,0,0,0.1,0,0.1c0.3,1,0.3,1.5,0.3,2.7
	c0,0.3,0,0.6,0,1c0-0.1-0.1,0.6-0.1,0.6c0,0.3-0.1,0.5-0.2,0.8c0,0-0.1,0.4-0.2,0.5c-0.1,0.1-0.1,0.2-0.2,0.3c0,0-0.1,0-0.1,0.1
	c0,0,0,0,0,0H6c0,0,0,0-0.1,0c0,0-0.1-0.1-0.1-0.1c-0.1-0.1-0.2-0.4-0.2-0.3c-0.1-0.2-0.1-0.4-0.2-0.7c0,0-0.1-0.6-0.1-0.6
	c-0.1-0.5-0.1-1.1-0.1-1.6c0-0.2,0-0.5,0-0.7c0-0.1,0.1-0.9,0.1-0.8c0-0.2,0.1-0.5,0.2-0.7c0,0,0.1-0.3,0.2-0.4
	c0-0.1,0.1-0.1,0.1-0.2c0,0,0.1,0,0.2,0h42.8c0,0,0,0,0,0c0,1.4,1.2,2.6,2.6,2.6h3.5c1.4,0,2.6-1.2,2.6-2.6c0,0,0,0,0,0H100.4z
	 M111.4,66.5C111.3,66.6,111.4,66.6,111.4,66.5L111.4,66.5z M112.8,65.5c-0.2,0.2-0.5,0.4-0.8,0.6c-0.6-0.7-1.2-1.4-1.7-2.1
	c-2.1-2.4-4.2-4.8-6.3-7.2c-2.8-3.2-5.7-6.5-8.5-9.7c0.5-0.4,1.1-0.8,1.6-1.2c0.4,0.5,0.8,0.9,1.2,1.4c4.4,5.1,8.9,10.1,13.3,15.2
	c0.7,0.8,1.3,1.5,2,2.3C113.4,65,113,65.3,112.8,65.5z"/>
</svg>
