<?xml version="1.0" encoding="utf-8"?>
<!-- Generator: Adobe Illustrator 18.0.0, SVG Export Plug-In . SVG Version: 6.00 Build 0)  -->
<!DOCTYPE svg PUBLIC "-//W3C//DTD SVG 1.1//EN" "http://www.w3.org/Graphics/SVG/1.1/DTD/svg11.dtd">
<svg version="1.1" id="Icon" xmlns="http://www.w3.org/2000/svg" xmlns:xlink="http://www.w3.org/1999/xlink" x="0px" y="0px"
	 width="61.4px" height="75px" viewBox="-158.9 116.1 61.4 75" enable-background="new -158.9 116.1 61.4 75" xml:space="preserve">
<g>
	<path fill="#3B44A1" d="M-131.3,174.5c-15.2,0-27.6-12.4-27.6-27.6c0-15.2,12.4-27.6,27.6-27.6s27.6,12.4,27.6,27.6
		C-103.7,162.1-116.1,174.5-131.3,174.5z M-131.3,122.6c-13.4,0-24.3,10.9-24.3,24.3c0,13.4,10.9,24.3,24.3,24.3
		s24.3-10.9,24.3-24.3C-107,133.5-117.9,122.6-131.3,122.6z"/>
</g>
<g>
	<path fill="#3B44A1" d="M-131.5,180.6c-4.8,0-9.7-1.1-14.6-3.3l1.3-3c4.7,2.1,9.5,3.1,14.1,3c11.5-0.3,22-7.1,26.9-17.4
		c7.2-15.3,0.7-33.7-14.5-41l1.4-2.9c16.9,8,24.1,28.3,16.1,45.3c-5.4,11.3-17,18.9-29.7,19.2C-130.8,180.6-131.1,180.6-131.5,180.6
		z"/>
</g>
<g>
	<rect x="-132.9" y="179" fill="#3B44A1" width="3.2" height="10.5"/>
</g>
<g>
	<rect x="-143" y="187.8" fill="#3B44A1" width="23.3" height="3.2"/>
</g>
<g>
	<path fill="#3B44A1" d="M-137.3,141.5c0,4-6,4-6,0S-137.3,137.5-137.3,141.5"/>
</g>
<g>
	<path fill="#3B44A1" d="M-119.3,141.5c0,4-6,4-6,0S-119.3,137.5-119.3,141.5"/>
</g>
<g>
	<path fill="#3B44A1" d="M-120.1,152.1c-0.7-0.4-1.7-0.1-2.1,0.6c0,0.1-2.9,5.2-9.1,5.2c-6.3,0-9-5-9.1-5.2c-0.4-0.7-1.3-1-2-0.7
		c-0.7,0.4-1,1.3-0.7,2c0.1,0.3,3.6,6.9,11.8,6.9c8,0,11.7-6.6,11.8-6.8C-119.1,153.4-119.4,152.5-120.1,152.1z"/>
</g>
</svg>
