<?xml version="1.0" encoding="UTF-8" standalone="no"?>
<svg width="40px" height="350px" viewBox="0 0 40 350" version="1.1" xmlns="http://www.w3.org/2000/svg" xmlns:xlink="http://www.w3.org/1999/xlink">
    <!-- Generator: Sketch 39.1 (31720) - http://www.bohemiancoding.com/sketch -->
    <title>cascadia-icon-sprite</title>
    <desc>Created with Sketch.</desc>
    <defs></defs>
    <g id="Page-1" stroke="none" stroke-width="1" fill="none" fill-rule="evenodd">
        <g id="list" transform="translate(0.000000, 250.000000)" stroke-width="2" stroke="#000000">
            <g id="Layer_1">
                <g id="List">
                    <path d="M0,0 L24,0" id="Shape"></path>
                    <path d="M0,7.72413793 L24,7.72413793" id="Shape"></path>
                    <path d="M0,15.4482759 L24,15.4482759" id="Shape"></path>
                </g>
            </g>
        </g>
        <g id="Fail" transform="translate(12.970563, 12.970563) rotate(45.000000) translate(-12.970563, -12.970563) translate(0.970563, 0.970563)" stroke="#CCCCCC" stroke-width="2">
            <circle id="Oval" cx="12" cy="12" r="12"></circle>
            <path d="M7.30434783,7.30434783 L16.6956522,16.6956522" id="Shape"></path>
            <path d="M7.30434783,16.6956522 L16.6956522,7.30434783" id="Shape"></path>
        </g>
        <g id="Success" transform="translate(1.000000, 50.000000)" stroke-width="2">
            <circle id="Oval" stroke="#00874B" fill="#00874B" cx="12" cy="12" r="12"></circle>
            <polyline id="Check" stroke="#FFFFFF" points="6.83478261 11.6869565 11.6869565 16.5391304 17.2695652 6.83478261"></polyline>
        </g>
        <path d="M10.4770923,102.974254 C9.65946827,102.464499 8.89114817,102.265119 8.1187194,101.75742 C7.64211441,101.432657 6.97856523,100.663914 6.42389564,100 C6.31707038,101.064729 5.99248595,101.496376 5.62270622,101.804696 C4.83795146,102.421334 4.34491182,102.606326 3.66698232,102.976309 C3.09587807,103.268185 0,105.1181 0,109.09542 C0,113.072739 3.34445222,116.001772 7.05662984,116.001772 C10.7688075,116.001772 13.9899998,113.305006 13.9899998,109.218747 C13.9899998,105.132489 10.970132,103.282573 10.4770923,102.974254 L10.4770923,102.974254 Z" id="Shape" fill="#0077C0"></path>
        <polyline id="Chevron_-_Down-Copy-2" stroke="#FFFFFF" points="0 153 8 161 16 153"></polyline>
        <g id="cross" transform="translate(1.000000, 300.000000)" stroke-width="2" stroke="#000000">
            <g id="Layer_1">
                <g id="Cross">
                    <path d="M0,0 L16,16" id="Shape"></path>
                    <path d="M0,16 L16,0" id="Shape"></path>
                </g>
            </g>
        </g>
        <path d="M0,204.998228 L16,204.998228" id="Chevron_-_Down-Copy-3" stroke="#FFFFFF"></path>
    </g>
</svg>