<?xml version="1.0" encoding="UTF-8" standalone="no"?>
<svg width="60px" height="971px" viewBox="0 0 60 971" version="1.1" xmlns="http://www.w3.org/2000/svg" xmlns:xlink="http://www.w3.org/1999/xlink">
    <!-- Generator: Sketch 41.2 (35397) - http://www.bohemiancoding.com/sketch -->
    <title>cascadia-icon-sprite</title>
    <desc>Created with Sketch.</desc>
    <defs>
        <rect id="path-1" x="0" y="0" width="16" height="16"></rect>
        <mask id="mask-2" maskContentUnits="userSpaceOnUse" maskUnits="objectBoundingBox" x="0" y="0" width="16" height="16" fill="white">
            <use xlink:href="#path-1"></use>
        </mask>
        <rect id="path-3" x="0" y="0" width="16" height="16"></rect>
        <mask id="mask-4" maskContentUnits="userSpaceOnUse" maskUnits="objectBoundingBox" x="0" y="0" width="16" height="16" fill="white">
            <use xlink:href="#path-3"></use>
        </mask>
        <rect id="path-5" x="0" y="0" width="16" height="16" rx="8"></rect>
        <mask id="mask-6" maskContentUnits="userSpaceOnUse" maskUnits="objectBoundingBox" x="0" y="0" width="16" height="16" fill="white">
            <use xlink:href="#path-5"></use>
        </mask>
        <rect id="path-7" x="0" y="0" width="16" height="16" rx="8"></rect>
        <mask id="mask-8" maskContentUnits="userSpaceOnUse" maskUnits="objectBoundingBox" x="0" y="0" width="16" height="16" fill="white">
            <use xlink:href="#path-7"></use>
        </mask>
    </defs>
    <g id="Page-1" stroke="none" stroke-width="1" fill="none" fill-rule="evenodd">
        <g id="cascadia-icon-sprite" transform="translate(0.000000, -3.000000)">
            <g id="cross" transform="translate(8.000000, 406.000000)" stroke-width="2" stroke="#000000">
                <g id="Layer_1">
                    <g id="Cross">
                        <path d="M0,0 L16,16" id="Shape"></path>
                        <path d="M0,16 L16,0" id="Shape"></path>
                    </g>
                </g>
            </g>
            <g id="list" transform="translate(4.000000, 356.000000)" stroke-width="2" stroke="#000000">
                <g id="Layer_1">
                    <g id="List">
                        <path d="M0,0 L24,0" id="Shape"></path>
                        <path d="M0,8 L24,8" id="Shape"></path>
                        <path d="M0,16 L24,16" id="Shape"></path>
                    </g>
                </g>
            </g>
            <g id="Fail" transform="translate(16.970563, 16.970563) rotate(45.000000) translate(-16.970563, -16.970563) translate(4.970563, 4.970563)" stroke="#CCCCCC" stroke-width="2">
                <circle id="Oval" cx="12" cy="12" r="12"></circle>
                <path d="M7.30434783,7.30434783 L16.6956522,16.6956522" id="Shape"></path>
                <path d="M7.30434783,16.6956522 L16.6956522,7.30434783" id="Shape"></path>
            </g>
            <g id="Success" transform="translate(4.500000, 55.500000)">
                <circle id="Oval" stroke="#00874B" fill="#00874B" cx="12" cy="12" r="12"></circle>
                <polyline id="Check" stroke="#FFFFFF" points="6.83478261 11.6869565 11.6869565 16.5391304 17.2695652 6.83478261"></polyline>
            </g>
            <polyline id="Chevron_-_Down-Copy-2" stroke="#FFFFFF" points="3 257 7.5 262 12 257"></polyline>
            <polyline id="Chevron_-_Down-Copy-2" stroke="#FFFFFF" points="4 157 12 165 20 157"></polyline>
            <path d="M3,309.5 L12,309.5" id="Chevron_-_Down-Copy-3" stroke="#FFFFFF"></path>
            <path d="M4,209.5 L20,209.5" id="Chevron_-_Down-Copy-3" stroke="#FFFFFF"></path>
            <g id="Loudspeaker-Copy-3" transform="translate(2.000000, 507.000000)" stroke-width="2" stroke="#00874B">
                <polygon id="Shape" points="46 40 8 25 8 15 46 0"></polygon>
                <path d="M8,25 L5,25 C2.2,25 0,22.8 0,20 L0,20 C0,17.2 2.2,15 5,15 L8,15" id="Shape"></path>
                <path d="M30.4,33.9 L29,37.5 C28.2,39.6 25.9,40.6 23.8,39.8 L23.8,39.8 L14.5,36.2 C12.5,35.4 11.4,33.1 12.2,31 L13.6,27.3" id="Shape"></path>
            </g>
            <g id="Checkbox" transform="translate(1.000000, 724.000000)" stroke="#979797" stroke-width="2" fill="#F6F6F6" fill-opacity="0.87">
                <use id="Rectangle-1-Copy-2" mask="url(#mask-2)" xlink:href="#path-1"></use>
            </g>
            <g id="Checkbox-Selected" transform="translate(1.000000, 774.000000)">
                <use id="Rectangle-1-Copy-2" stroke="#979797" mask="url(#mask-4)" stroke-width="2" fill-opacity="0.87" fill="#F6F6F6" xlink:href="#path-3"></use>
                <rect id="Rectangle-1-Copy-4" fill="#00874B" x="4" y="4" width="8" height="8"></rect>
            </g>
            <g id="Radio-Selected" transform="translate(1.000000, 674.000000)">
                <use id="Rectangle-1-Copy-2" stroke="#979797" mask="url(#mask-6)" stroke-width="2" fill-opacity="0.87" fill="#F6F6F6" xlink:href="#path-5"></use>
                <rect id="Rectangle-1-Copy-3" fill="#00874B" x="4" y="4" width="8" height="8" rx="4"></rect>
            </g>
            <g id="Radio" transform="translate(1.000000, 624.000000)" stroke="#979797" stroke-width="2" fill="#F6F6F6" fill-opacity="0.87">
                <use id="Rectangle-1-Copy-2" mask="url(#mask-8)" xlink:href="#path-7"></use>
            </g>
            <g id="Experience" transform="translate(1.000000, 105.000000)" fill="#0077C0">
                <path d="M10.4759322,2.97392421 C9.65839864,2.46422608 8.89016362,2.26486834 8.11782038,1.75722543 C7.64126817,1.43249839 6.97779247,0.663840719 6.42318429,0 C6.31637087,1.06461143 5.99182238,1.49621066 5.6220836,1.80449583 C4.83741574,2.42106615 4.3444307,2.60603725 3.66657626,2.97597945 C3.09553525,3.26782274 0,5.11753372 0,9.09441233 C0,13.0712909 3.34408188,16 7.05584843,16 C10.767615,16 13.9884506,13.3035324 13.9884506,9.2177264 C13.9884506,5.13192036 10.9689172,3.28220938 10.4759322,2.97392421 L10.4759322,2.97392421 Z" id="Shape"></path>
                <path d="M32.4759322,2.97392421 C31.6583986,2.46422608 30.8901636,2.26486834 30.1178204,1.75722543 C29.6412682,1.43249839 28.9777925,0.663840719 28.4231843,0 C28.3163709,1.06461143 27.9918224,1.49621066 27.6220836,1.80449583 C26.8374157,2.42106615 26.3444307,2.60603725 25.6665763,2.97597945 C25.0955353,3.26782274 22,5.11753372 22,9.09441233 C22,13.0712909 25.3440819,16 29.0558484,16 C32.767615,16 35.9884506,13.3035324 35.9884506,9.2177264 C35.9884506,5.13192036 32.9689172,3.28220938 32.4759322,2.97392421 L32.4759322,2.97392421 Z" id="Shape-Copy"></path>
                <path d="M54.4759322,2.97392421 C53.6583986,2.46422608 52.8901636,2.26486834 52.1178204,1.75722543 C51.6412682,1.43249839 50.9777925,0.663840719 50.4231843,0 C50.3163709,1.06461143 49.9918224,1.49621066 49.6220836,1.80449583 C48.8374157,2.42106615 48.3444307,2.60603725 47.6665763,2.97597945 C47.0955353,3.26782274 44,5.11753372 44,9.09441233 C44,13.0712909 47.3440819,16 51.0558484,16 C54.767615,16 57.9884506,13.3035324 57.9884506,9.2177264 C57.9884506,5.13192036 54.9689172,3.28220938 54.4759322,2.97392421 L54.4759322,2.97392421 Z" id="Shape-Copy-2"></path>
            </g>
            <polygon id="Path-157" fill="#242424" points="42 470 46.0508346 474.911811 50 470"></polygon>
            <path d="M20.8621652,591.826451 L19.0050223,593.683594 C18.9131324,593.775484 18.8043155,593.821429 18.6785714,593.821429 C18.5528274,593.821429 18.4440104,593.775484 18.3521205,593.683594 C18.2602307,593.591704 18.2142857,593.482887 18.2142857,593.357143 L18.2142857,592.428571 L15.4285714,592.428571 L15.4285714,595.214286 L16.3571429,595.214286 C16.4828869,595.214286 16.5917039,595.260231 16.6835938,595.352121 C16.7754836,595.44401 16.8214286,595.552827 16.8214286,595.678571 C16.8214286,595.804315 16.7754836,595.913132 16.6835938,596.005022 L14.8264509,597.862165 C14.734561,597.954055 14.625744,598 14.5,598 C14.374256,598 14.265439,597.954055 14.1735491,597.862165 L12.3164062,596.005022 C12.2245164,595.913132 12.1785714,595.804315 12.1785714,595.678571 C12.1785714,595.552827 12.2245164,595.44401 12.3164062,595.352121 C12.4082961,595.260231 12.5171131,595.214286 12.6428571,595.214286 L13.5714286,595.214286 L13.5714286,592.428571 L10.7857143,592.428571 L10.7857143,593.357143 C10.7857143,593.482887 10.7397693,593.591704 10.6478795,593.683594 C10.5559896,593.775484 10.4471726,593.821429 10.3214286,593.821429 C10.1956845,593.821429 10.0868676,593.775484 9.99497768,593.683594 L8.13783482,591.826451 C8.04594494,591.734561 8,591.625744 8,591.5 C8,591.374256 8.04594494,591.265439 8.13783482,591.173549 L9.99497768,589.316406 C10.0868676,589.224516 10.1956845,589.178571 10.3214286,589.178571 C10.4471726,589.178571 10.5559896,589.224516 10.6478795,589.316406 C10.7397693,589.408296 10.7857143,589.517113 10.7857143,589.642857 L10.7857143,590.571429 L13.5714286,590.571429 L13.5714286,587.785714 L12.6428571,587.785714 C12.5171131,587.785714 12.4082961,587.739769 12.3164062,587.647879 C12.2245164,587.55599 12.1785714,587.447173 12.1785714,587.321429 C12.1785714,587.195685 12.2245164,587.086868 12.3164062,586.994978 L14.1735491,585.137835 C14.265439,585.045945 14.374256,585 14.5,585 C14.625744,585 14.734561,585.045945 14.8264509,585.137835 L16.6835938,586.994978 C16.7754836,587.086868 16.8214286,587.195685 16.8214286,587.321429 C16.8214286,587.447173 16.7754836,587.55599 16.6835938,587.647879 C16.5917039,587.739769 16.4828869,587.785714 16.3571429,587.785714 L15.4285714,587.785714 L15.4285714,590.571429 L18.2142857,590.571429 L18.2142857,589.642857 C18.2142857,589.517113 18.2602307,589.408296 18.3521205,589.316406 C18.4440104,589.224516 18.5528274,589.178571 18.6785714,589.178571 C18.8043155,589.178571 18.9131324,589.224516 19.0050223,589.316406 L20.8621652,591.173549 C20.9540551,591.265439 21,591.374256 21,591.5 C21,591.625744 20.9540551,591.734561 20.8621652,591.826451 Z" id="Shape" fill="#000000"></path>
            <g id="Pin_-_1" transform="translate(1.000000, 825.000000)" stroke="#AAAAAA" stroke-opacity="0.870588235">
                <path d="M8.71304348,1.46086957 L8.71304348,1.46086957 C10.6695652,3.4173913 10.6695652,6.54782609 8.73913043,8.47826087 L5.2173913,12 L1.69565217,8.47826087 C-0.234782609,6.54782609 -0.234782609,3.4173913 1.69565217,1.48695652 L1.72173913,1.46086957 C3.65217391,-0.469565217 6.75652174,-0.495652174 8.71304348,1.46086957 C8.68695652,1.43478261 8.68695652,1.43478261 8.71304348,1.46086957 L8.71304348,1.46086957 Z" id="Shape"></path>
                <circle id="Oval" cx="5.2173913" cy="4.95652174" r="1.30434783"></circle>
            </g>
            <g id="slack" transform="translate(3.000000, 875.000000)">
                <path d="M13.6142344,1.29921094 C13.2951328,0.316886719 12.2400469,-0.220664063 11.2578867,0.0986015625 C10.2755625,0.417703125 9.73801172,1.47278906 10.0572773,2.45494922 L14.8927734,17.3325469 C15.2248359,18.2502305 16.2161016,18.7658789 17.1676641,18.4920586 C18.1602422,18.2063437 18.7652227,17.1521602 18.4485,16.1773828 L13.6142344,1.29921094" id="Shape" fill="#DFA22F"></path>
                <path d="M6.12166406,3.73373438 C5.80239844,2.75149219 4.74739453,2.21394141 3.76523437,2.53304297 C2.78282812,2.85222656 2.24519531,3.90723047 2.56454297,4.88955469 L7.40012109,19.7672344 C7.73210156,20.6848359 8.72344922,21.2005664 9.67501172,20.9265 C10.6675078,20.6409492 11.2724883,19.5867656 10.9557656,18.6118242 L6.12166406,3.73373438" id="Shape" fill="#3CB187"></path>
                <path d="M19.7007891,13.6208789 C20.6831133,13.3017773 21.2205,12.2468555 20.9013984,11.2644492 C20.5822969,10.2822891 19.5272109,9.74465625 18.5450508,10.0638398 L3.66745313,14.8995 C2.74976953,15.2313984 2.23412109,16.2226641 2.50794141,17.1742266 C2.79365625,18.1667227 3.84783984,18.7717852 4.82261719,18.4550625 L19.7007891,13.6209609" id="Shape" fill="#CE1E5B"></path>
                <polyline id="Shape" fill="#392538" points="6.76823437 17.8229297 10.324043 16.6676016 9.16855078 13.1113828 5.61249609 14.2672031 6.76823437 17.8230117"></polyline>
                <path d="M14.2608867,15.3883242 C15.6052148,14.9516719 16.8547148,14.5456172 17.8167773,14.2329961 L16.6611211,10.6761211 L13.1050664,11.8319414 L14.2608867,15.3883242" id="Shape" fill="#BB242A"></path>
                <path d="M17.2662656,6.12822656 C18.2485078,5.809125 18.7860586,4.75412109 18.466957,3.77171484 C18.1478555,2.78955469 17.0927695,2.25200391 16.1104453,2.57110547 L1.23276562,7.40684766 C0.315164062,7.73858203 -0.200566406,8.72992969 0.0735,9.68149219 C0.359050781,10.6739062 1.41323437,11.2789687 2.38817578,10.9622461 L17.2662656,6.12814453" id="Shape" fill="#72C5CD"></path>
                <path d="M4.33305469,10.3304414 C5.30143359,10.0157695 6.54994922,9.61004297 7.8894375,9.17494922 C7.45278516,7.83045703 7.04673047,6.58095703 6.73410937,5.61873047 L3.17723437,6.77471484 L4.33305469,10.3304414" id="Shape" fill="#248C73"></path>
                <path d="M11.825625,7.896 L15.3821719,6.74034375 C14.9969753,5.55470267 14.6117292,4.36907767 14.2264336,3.18346875 L10.6698047,4.33945312 L11.825625,7.896" id="Shape" fill="#62803A"></path>
            </g>
        </g>
    </g>
</svg>