<?xml version="1.0" encoding="UTF-8" standalone="no"?>
<svg width="50px" height="451px" viewBox="0 0 50 451" version="1.1" xmlns="http://www.w3.org/2000/svg" xmlns:xlink="http://www.w3.org/1999/xlink">
    <!-- Generator: Sketch 39.1 (31720) - http://www.bohemiancoding.com/sketch -->
    <title>cascadia-icon-sprite</title>
    <desc>Created with Sketch.</desc>
    <defs></defs>
    <g id="Page-1" stroke="none" stroke-width="1" fill="none" fill-rule="evenodd">
        <g id="cascadia-icon-sprite" transform="translate(0.000000, -3.000000)">
            <g id="Page-1">
                <g id="cross" transform="translate(8.000000, 406.000000)" stroke-width="2" stroke="#000000">
                    <g id="Layer_1">
                        <g id="Cross">
                            <path d="M0,0 L16,16" id="Shape"></path>
                            <path d="M0,16 L16,0" id="Shape"></path>
                        </g>
                    </g>
                </g>
                <g id="list" transform="translate(4.000000, 356.000000)" stroke-width="2" stroke="#000000">
                    <g id="Layer_1">
                        <g id="List">
                            <path d="M0,0 L24,0" id="Shape"></path>
                            <path d="M0,8 L24,8" id="Shape"></path>
                            <path d="M0,16 L24,16" id="Shape"></path>
                        </g>
                    </g>
                </g>
                <g id="Fail" transform="translate(16.970563, 16.970563) rotate(45.000000) translate(-16.970563, -16.970563) translate(4.970563, 4.970563)" stroke="#CCCCCC" stroke-width="2">
                    <circle id="Oval" cx="12" cy="12" r="12"></circle>
                    <path d="M7.30434783,7.30434783 L16.6956522,16.6956522" id="Shape"></path>
                    <path d="M7.30434783,16.6956522 L16.6956522,7.30434783" id="Shape"></path>
                </g>
                <g id="Success" transform="translate(4.500000, 55.500000)">
                    <circle id="Oval" stroke="#00874B" fill="#00874B" cx="12" cy="12" r="12"></circle>
                    <polyline id="Check" stroke="#FFFFFF" points="6.83478261 11.6869565 11.6869565 16.5391304 17.2695652 6.83478261"></polyline>
                </g>
                <path d="M14.4770923,107.974254 C13.6594683,107.464499 12.8911482,107.265119 12.1187194,106.75742 C11.6421144,106.432657 10.9785652,105.663914 10.4238956,105 C10.3170704,106.064729 9.99248595,106.496376 9.62270622,106.804696 C8.83795146,107.421334 8.34491182,107.606326 7.66698232,107.976309 C7.09587807,108.268185 4,110.1181 4,114.09542 C4,118.072739 7.34445222,121.001772 11.0566298,121.001772 C14.7688075,121.001772 17.9899998,118.305006 17.9899998,114.218747 C17.9899998,110.132489 14.970132,108.282573 14.4770923,107.974254 L14.4770923,107.974254 L14.4770923,107.974254 Z" id="Shape" fill="#0077C0"></path>
                <polyline id="Chevron_-_Down-Copy-2" stroke="#FFFFFF" points="3 257 7.5 262 12 257"></polyline>
                <polyline id="Chevron_-_Down-Copy-2" stroke="#FFFFFF" points="4 157 12 165 20 157"></polyline>
                <path d="M3,309.5 L12,309.5" id="Chevron_-_Down-Copy-3" stroke="#FFFFFF"></path>
                <path d="M4,209.5 L20,209.5" id="Chevron_-_Down-Copy-3" stroke="#FFFFFF"></path>
            </g>
        </g>
    </g>
</svg>