<?xml version="1.0" encoding="utf-8"?>
<!-- Generator: Adobe Illustrator 18.0.0, SVG Export Plug-In . SVG Version: 6.00 Build 0)  -->
<!DOCTYPE svg PUBLIC "-//W3C//DTD SVG 1.1//EN" "http://www.w3.org/Graphics/SVG/1.1/DTD/svg11.dtd">
<svg version="1.1" id="Expanded" xmlns="http://www.w3.org/2000/svg" xmlns:xlink="http://www.w3.org/1999/xlink" x="0px" y="0px"
	 viewBox="0 0 15.9 15.8" enable-background="new 0 0 15.9 15.8" xml:space="preserve">
<path fill="#EAD386" d="M4.1,0l-4,4.9C0,5,0,5,0.1,5h2c0.1,0,0.1,0.1,0.1,0.1v8.4c0,0.1,0.1,0.1,0.1,0.1H6c0,0,0,0,0,0h4.6
	c0.1,0,0.1,0.1,0.1,0.1v2c0,0.1,0,0.1,0.1,0l4.9-4c0.1,0,0.1-0.1,0-0.2l-4.9-4c-0.1,0-0.1,0-0.1,0v2c0,0.1-0.1,0.1-0.1,0.1H6.1V5.2
	C6.1,5.1,6.2,5,6.2,5h2c0.1,0,0.1,0,0-0.1L4.3,0C4.2-0.1,4.1-0.1,4.1,0z"/>
</svg>
