<?xml version="1.0" encoding="utf-8"?>
<!-- Generator: Adobe Illustrator 18.0.0, SVG Export Plug-In . SVG Version: 6.00 Build 0)  -->
<!DOCTYPE svg PUBLIC "-//W3C//DTD SVG 1.1//EN" "http://www.w3.org/Graphics/SVG/1.1/DTD/svg11.dtd">
<svg version="1.1" id="Icon" xmlns="http://www.w3.org/2000/svg" xmlns:xlink="http://www.w3.org/1999/xlink" x="0px" y="0px"
	 width="117.4px" height="117.9px" viewBox="0 0 117.4 117.9" enable-background="new 0 0 117.4 117.9" xml:space="preserve">
<path fill="#3B44A1" d="M116.7,66.2c-1.5-1.8-3-3.6-4.5-5.5V46.1c0-3.4-3.1-5.1-6.2-5.1H98c2.1-3.5,3.4-7.5,3.7-11.7
	c0.8-10.2-4.3-20-13-25.4C80-1.5,68.5-1.2,59.9,4.3c-0.5,0.3-1,0.6-1.4,1c-0.1-0.6-0.2-1.2-0.5-1.8c-1.3-2.8-4.1-3.4-6.9-3.4H8.5
	c-1.7,0-3.4-0.1-5,0.6C-0.4,2.4,0,6.2,0,9.5V112c0,3.5,3.1,5.9,6.4,5.9h45.7c1.3,0,2.6-0.4,3.6-1c2.2,1.2,5.7,1,8.1,1h37.3
	c3.7,0,9.8,0.7,10.9-3.7c0.1-0.3,0.1-0.6,0.1-0.9c0-0.1,0-0.2,0-0.3V73.8c1.5-1.3,3-2.6,4.5-3.9C117.8,68.9,117.5,67.2,116.7,66.2z
	 M105.9,46.1c0.4,0,0.8,0.1,1.1,0.2v8.3c-2.3-2.8-4.7-5.6-7-8.4H105.9z M53.4,112.2c0,0-0.1,0.1-0.2,0.2c0.2-0.2-0.2,0.1-0.3,0.2
	c0,0-0.4,0.1-0.3,0.1c-0.1,0-0.3,0-0.4,0H6.2c-0.2,0-0.2,0-0.3,0c0,0,0,0-0.3-0.1c0.2,0.1-0.2-0.1-0.3-0.2c0,0-0.1-0.2-0.2-0.2
	c0-0.1,0-0.1,0-0.2c0-0.4,0-0.9,0-1.3V5.9c0,0,0,0.1,0,0.2c0-0.1,0-0.1,0.1-0.3c0,0,0-0.1,0.1-0.1c0,0,0.1-0.1,0.1-0.1
	C5.6,5.3,6,5.3,6.6,5.3h45.7c0.5,0,0.5,0,1,0.3c0,0,0.1,0.1,0.1,0.3c0,0,0,0,0,0v4.3c-4.4,5.6-6.6,12.9-5.7,20.1
	c0.6,5.1,2.7,9.8,5.7,13.6v67.9c0-0.1-0.1,0.4,0,0.2v0C53.4,112.2,53.4,112.2,53.4,112.2z M56.6,14.5C61.7,7,71.5,3.6,80.2,5.8
	c10.5,2.7,17.3,12.8,16.4,23.5c-0.8,9-7.4,16.7-16.1,19.1c-4.5,1.3-9.1,1-13.6-0.6c-3.9-1.4-7.8-4.4-10.2-7.8
	C51.3,32.4,51.3,22.2,56.6,14.5z M107,112.5c-0.4,0.1-0.7,0.2-1.1,0.2h-46c-0.1,0-0.5,0-0.5,0c-0.3,0-0.5-0.1-0.7-0.2V49.1
	c2.1,1.5,4.4,2.8,6.8,3.7c6.6,2.5,14.1,2,20.5-0.9c6.4,7.8,12.9,15.5,19.3,23.3c0.2,0.3,0.4,0.5,0.7,0.8c0.3,0.3,0.6,0.5,0.9,0.6
	V112.5z M108.2,70.5c-5.9-7.1-11.7-14.2-17.6-21.2c1.1-0.8,2.2-1.7,3.1-2.7c5.9,7.1,11.7,14.1,17.6,21.2
	C110.3,68.7,109.2,69.6,108.2,70.5z M11.5,13.4v8.1c0,3.3,5.1,3.3,5.1,0v-8.1C16.7,10.1,11.5,10.1,11.5,13.4z M26.5,13.4v8.1
	c0,3.3,5.1,3.3,5.1,0v-8.1C31.6,10.1,26.5,10.1,26.5,13.4z M41.5,13.4v8.1c0,3.3,5.1,3.3,5.1,0v-8.1C46.6,10.1,41.5,10.1,41.5,13.4z
	 M11.5,32.4v8.1c0,3.3,5.1,3.3,5.1,0v-8.1C16.7,29.1,11.5,29.1,11.5,32.4z M26.5,32.4v8.1c0,3.3,5.1,3.3,5.1,0v-8.1
	C31.6,29.1,26.5,29.1,26.5,32.4z M41.5,32.4v8.1c0,3.3,5.1,3.3,5.1,0v-8.1C46.6,29.1,41.5,29.1,41.5,32.4z M11.5,51.4v8.1
	c0,3.3,5.1,3.3,5.1,0v-8.1C16.7,48.1,11.5,48.1,11.5,51.4z M26.5,51.4v8.1c0,3.3,5.1,3.3,5.1,0v-8.1C31.6,48.1,26.5,48.1,26.5,51.4z
	 M41.5,51.4v8.1c0,3.3,5.1,3.3,5.1,0v-8.1C46.6,48.1,41.5,48.1,41.5,51.4z M11.5,70.4v8.1c0,3.3,5.1,3.3,5.1,0v-8.1
	C16.7,67.1,11.5,67.1,11.5,70.4z M26.5,70.4v8.1c0,3.3,5.1,3.3,5.1,0v-8.1C31.6,67.1,26.5,67.1,26.5,70.4z M41.5,70.4v8.1
	c0,3.3,5.1,3.3,5.1,0v-8.1C46.6,67.1,41.5,67.1,41.5,70.4z M11.5,89.5v8.1c0,3.3,5.1,3.3,5.1,0v-8.1C16.7,86.1,11.5,86.1,11.5,89.5z
	 M26.5,89.5v8.1c0,3.3,5.1,3.3,5.1,0v-8.1C31.6,86.1,26.5,86.1,26.5,89.5z M41.5,89.5v8.1c0,3.3,5.1,3.3,5.1,0v-8.1
	C46.6,86.1,41.5,86.1,41.5,89.5z M65.3,58.6v6.8c0,3.3,5.1,3.3,5.1,0v-6.8C70.5,55.2,65.3,55.2,65.3,58.6z M80.3,58.6v6.8
	c0,3.3,5.1,3.3,5.1,0v-6.8C85.4,55.2,80.3,55.2,80.3,58.6z M65.3,74.6v6.8c0,3.3,5.1,3.3,5.1,0v-6.8C70.5,71.3,65.3,71.3,65.3,74.6z
	 M80.3,74.6v6.8c0,3.3,5.1,3.3,5.1,0v-6.8C85.4,71.3,80.3,71.3,80.3,74.6z M95.3,74.6v6.8c0,3.3,5.1,3.3,5.1,0v-6.8
	C100.4,71.3,95.3,71.3,95.3,74.6z M65.3,90.7v6.8c0,3.3,5.1,3.3,5.1,0v-6.8C70.5,87.4,65.3,87.4,65.3,90.7z M80.3,90.7v6.8
	c0,3.3,5.1,3.3,5.1,0v-6.8C85.4,87.4,80.3,87.4,80.3,90.7z M95.3,90.7v6.8c0,3.3,5.1,3.3,5.1,0v-6.8C100.4,87.4,95.3,87.4,95.3,90.7
	z M75.2,16.3c6.9,0.7,11.8,7,11.3,13.9c-0.1,1.4,1.2,2.6,2.6,2.6c1.5,0,2.5-1.2,2.6-2.6c0.4-4.7-1.2-9.2-4.2-12.8
	c-3-3.7-7.6-5.8-12.2-6.2c-1.4-0.1-2.6,1.3-2.6,2.6C72.6,15.3,73.8,16.2,75.2,16.3z"/>
</svg>
