<?xml version="1.0" encoding="utf-8"?>
<!-- Generator: Adobe Illustrator 18.0.0, SVG Export Plug-In . SVG Version: 6.00 Build 0)  -->
<!DOCTYPE svg PUBLIC "-//W3C//DTD SVG 1.1//EN" "http://www.w3.org/Graphics/SVG/1.1/DTD/svg11.dtd">
<svg version="1.1" id="_x3C_Layer_x3E_" xmlns="http://www.w3.org/2000/svg" xmlns:xlink="http://www.w3.org/1999/xlink" x="0px"
	 y="0px" width="167.7px" height="190.8px" viewBox="0 0 167.7 190.8" enable-background="new 0 0 167.7 190.8"
	 xml:space="preserve">
<path fill="#3B44A1" d="M142.7,54.1c-8.2-9.2-16.4-14.3-19.1-16l-0.1-0.1c-4.5-2.8-8.8-4.8-13.1-6.7c-4.4-2-8.5-3.9-12.7-6.6
	c-5-3.2-12.5-12.1-17.9-18.7c-0.7-0.9-1.9-1.2-3-0.9c-1.1,0.3-1.9,1.3-2,2.4c-1.2,11.4-4.4,15.3-7.7,17.8
	c-6.3,4.9-10.7,7.2-15.8,9.8c-1.6,0.8-3.3,1.7-5.2,2.7c-7,3.8-41.6,24.8-41.6,69.5c0,13.8,3.6,27.2,10.5,38.9
	c14.3,24.3,41,39.5,69.6,39.5c21,0,40.5-7.5,55.1-21.1c15.2-14.2,23.6-34.1,23.6-55.9C163.3,88,156.1,69.1,142.7,54.1z M134.9,159.6
	c-13.3,12.4-31.2,19.2-50.4,19.2c-9.5,0-18.8-1.8-27.7-5.4c-8.7-3.5-16.6-8.5-23.4-14.9c-14.2-13.5-22.1-31.6-22.1-51.1
	c0-17.4,5.6-32.8,16.8-45.9C36.7,51.5,45.8,46,49.4,44c1.7-0.9,3.4-1.8,4.9-2.6l0.1-0.1c5.2-2.7,10.1-5.2,16.9-10.5
	c3-2.3,6.6-5.9,8.8-13.7c4.7,5.4,9.7,10.7,13.8,13.4c4.6,3,9.2,5.1,13.6,7.1c4,1.8,8.2,3.7,12.2,6.2l0,0c0.1,0,0.2,0.1,0.2,0.1l0,0
	c11.9,7.4,18.2,15.3,20.3,17.9c10.7,13.3,16.1,29.1,16.1,46.8c0,10.3-2,20-5.8,28.8C146.9,145.9,141.6,153.3,134.9,159.6z"/>
</svg>
