<?xml version="1.0" encoding="utf-8"?>
<!-- Generator: Adobe Illustrator 18.0.0, SVG Export Plug-In . SVG Version: 6.00 Build 0)  -->
<!DOCTYPE svg PUBLIC "-//W3C//DTD SVG 1.1//EN" "http://www.w3.org/Graphics/SVG/1.1/DTD/svg11.dtd">
<svg version="1.1" id="Layer_1" xmlns="http://www.w3.org/2000/svg" xmlns:xlink="http://www.w3.org/1999/xlink" x="0px" y="0px"
	 width="120px" height="97.8px" viewBox="0 0 120 97.8" enable-background="new 0 0 120 97.8" xml:space="preserve">
<path fill="#3B44A1" d="M58.5,13.6h3.7c1.4,0,2.6-1.2,2.6-2.6c0-1.4-1.2-2.6-2.6-2.6h-3.7c-1.4,0-2.6,1.2-2.6,2.6
	C55.9,12.4,57.1,13.6,58.5,13.6 M119.6,91.7c-4-9.3-8.1-18.6-12.1-27.9c-0.2-1-0.7-1.8-1.4-2.3c0.4-0.9,0.7-1.9,0.8-2.9
	c0-0.1,0-0.2,0-0.3V7.1c0-3.9-3-7.1-6.9-7.1H20.5c-2.2,0-4.4,0.5-5.8,2.4c-1.5,1.9-1.7,4-1.7,6.3V58c0,1.2,0.3,2.4,0.8,3.5
	c-0.8,0.6-1.2,1.4-1.4,2.3c-4,9.2-8,18.4-12,27.6c-1.8,4.2,2.8,6.3,6.3,6.3H113C116.2,97.8,121.4,95.9,119.6,91.7 M18.2,7.1
	c0-0.3,0-0.4,0.1-0.8c-0.1,0.3,0.1-0.2,0.2-0.4c0,0,0.4-0.4,0.3-0.4c0.2-0.1,0.6-0.3,0.3-0.2c0.1,0,0.2-0.1,0.2-0.1c0,0,0.1,0,0.2,0
	h0h80.6c0.1,0,0.3,0,0.3,0c0.2,0.1,0.4,0.2,0.6,0.4c0.3,0.3,0.4,0.6,0.5,1.2c-0.1-0.3,0,0.2,0,0.4v51.1c0,0.8-0.4,1.4-0.8,1.6
	c-1.4-0.1-2.9,0-4.1,0H24.2c-1.6,0-3.5-0.1-5.2,0c-0.6-0.4-0.7-1-0.7-1.8V7.1z M48.8,92.6c0.7-2.2,1.4-4.3,2.1-6.5h18.9
	c0.7,2.2,1.4,4.3,2.1,6.5H48.8z M113.2,92.6C113.2,92.6,113.2,92.6,113.2,92.6H77.4c-1-3.3-2.1-6.5-3.1-9.8
	c-0.4-1.1-1.3-1.9-2.5-1.9H49c-1.2,0-2.2,0.8-2.5,1.9c-1.1,3.3-2.1,6.5-3.2,9.8H6.7c-0.3,0-0.5,0-0.8,0c0,0-0.2,0-0.3-0.1
	C9.4,83.7,13.2,75,17,66.2l0.1-0.3c0.1-0.2,0.2-0.4,0.2-0.5c0.1,0,0.1-0.1,0-0.1v0c0.3-0.1,0.6-0.2,0.8-0.2c0.4,0.1,0.9,0.2,1.4,0.2
	h80.7c0.5,0,0.9-0.1,1.4-0.1c0.1,0,0.2,0,0.3,0.1c-0.1,0,0.7,0.2,0.6,0.2c0,0,0,0,0,0c0,0,0,0,0,0c0,0.2,0.1,0.3,0.2,0.5
	c3.8,8.8,7.7,17.7,11.5,26.5C113.9,92.5,113.6,92.6,113.2,92.6 M80.9,46.8c0.2,1.4,2,2.2,3.2,1.8c1.2-0.3,1.8-1.3,1.9-2.4
	c0.8,0.9,1.7,1.7,2.5,2.6c1,1,2.7,1,3.7,0c1-1,1-2.7,0-3.7c-0.7-0.7-1.5-1.5-2.2-2.2c1.3,0,2.5-1.4,2.5-2.6c0-1.6-1.2-2.5-2.6-2.6
	c-2.5-0.3-5-0.6-7.6-0.9c-1.9-0.2-2.8,1.8-2.5,3.3C80.1,42.3,80.5,44.5,80.9,46.8"/>
</svg>
