<?xml version="1.0" encoding="utf-8"?>
<!-- Generator: Adobe Illustrator 18.0.0, SVG Export Plug-In . SVG Version: 6.00 Build 0)  -->
<!DOCTYPE svg PUBLIC "-//W3C//DTD SVG 1.1//EN" "http://www.w3.org/Graphics/SVG/1.1/DTD/svg11.dtd">
<svg version="1.1" id="Layer_1" xmlns="http://www.w3.org/2000/svg" xmlns:xlink="http://www.w3.org/1999/xlink" x="0px" y="0px"
	 width="119.4px" height="86.9px" viewBox="0 0 119.4 86.9" enable-background="new 0 0 119.4 86.9" xml:space="preserve">
<g>
	<path fill="#3D479D" d="M117.3,70.4c-1-1.2-2.8-1.7-4.3-1.7c-0.2,0-0.4,0-0.6,0c0.3-0.7,0.4-1.5,0.5-2.4c0-0.1,0-0.2,0-0.3
		c0-9.7,0-19.4,0-29.1c0-9.8,0-19.5,0-29.3c0-4.1-3.2-7.7-7.4-7.7c-0.9,0-1.8,0-2.7,0c-4.3,0-8.7,0-13,0C76,0,62.3,0,48.5,0
		C37.8,0,27.1,0,16.3,0c-0.8,0-1.7,0-2.5,0C9.6,0,6.5,3.6,6.5,7.7c0,3.2,0,6.5,0,9.7c0,13.3,0,26.7,0,40c0,2.1,0,4.2,0,6.4
		c0,1.2,0,2.4,0.1,3.6c0.1,0.5,0.2,0.9,0.3,1.3c-0.1,0-0.2,0-0.3,0c-3.6,0-5.8,2.5-6.4,5.9c-0.7,4.6-0.1,12.3,6.1,12.3
		c0.5,0,1.1,0,1.6,0c3.5,0,7,0,10.4,0c12.8,0,25.6,0,38.5,0c13.4,0,26.8,0,40.2,0c4.2,0,8.4,0,12.6,0c1,0,2,0,3,0c2.8,0,5-1.4,6-4.1
		c0.7-1.6,0.8-3.4,0.8-5.1C119.4,75.1,119.1,72.5,117.3,70.4z M13.5,5.3C13.4,5.3,13.3,5.3,13.5,5.3L13.5,5.3z M11.8,65.2
		c0-4.5,0-8.9,0-13.4c0-13.1,0-26.1,0-39.2c0-1.5,0-3,0-4.5c0-0.4,0-0.8,0-1.1c0.2-0.9,0.6-1.4,1.3-1.7c-0.1,0.1,0.4-0.1,0.5-0.1
		c0,0,0.1,0,0.2,0c0,0,0,0,0,0c2.4,0,4.7,0,7.1,0c12.4,0,24.8,0,37.2,0c12.8,0,25.7,0,38.5,0c2.9,0,5.8,0,8.8,0c0.1,0,0.2,0,0.3,0
		c0.1,0,0.3,0,0.4,0c1,0.2,1.7,1.2,1.7,2.5c0,1.1,0,2.1,0,3.2c0,12.7,0,25.3,0,38c0,5.7,0,11.4,0,17.2c0,0.8-0.3,1.5-0.9,2.1
		c0.1-0.1-0.2,0.1-0.4,0.2c0,0-0.3,0.1-0.4,0.1c-0.1,0-0.2,0-0.2,0c-0.2,0-0.4,0-0.6,0c-1.2,0-2.3,0-3.5,0c-4.7,0-9.4,0-14.1,0
		c-13.9,0-27.8,0-41.7,0c-10.1,0-20.3,0-30.4,0c-0.6,0-1.1,0-1.7,0c-0.1,0-0.1,0-0.2,0c-0.1,0-0.4-0.1-0.5-0.2
		c-0.1-0.1-0.3-0.2-0.4-0.2c-0.1-0.1-0.4-0.4-0.3-0.3c-0.4-0.6-0.6-1.1-0.6-1.8C11.8,65.7,11.8,65.5,11.8,65.2z M13.5,68.5
		C13.3,68.5,13.4,68.5,13.5,68.5L13.5,68.5z M5.9,74.1C5.9,74.1,5.9,74,5.9,74.1C5.9,74,6,74,5.9,74.1C6,74,5.9,74.1,5.9,74.1
		L5.9,74.1z M5.9,74.1C5.9,74.1,5.9,74.1,5.9,74.1C5.9,74.1,5.9,74.1,5.9,74.1C5.9,74.1,5.9,74.1,5.9,74.1z M6,81.6
		c0.1,0.1,0.1,0.1,0.2,0.1c0,0,0,0,0,0C6.1,81.6,6.1,81.6,6,81.6z M6.2,81.7C6.2,81.7,6.2,81.7,6.2,81.7C6.2,81.7,6.2,81.7,6.2,81.7
		C6.2,81.7,6.2,81.7,6.2,81.7z M113.7,81c-0.1,0.3-0.2,0.4-0.3,0.6c0,0,0,0-0.1,0.1c0,0-0.1,0-0.2,0.1c0.2-0.1,0.1,0-0.1,0
		c-0.1,0-0.2,0-0.4,0c-0.9,0-1.8,0-2.8,0c-4.1,0-8.2,0-12.2,0c-13.3,0-26.6,0-39.9,0c-12.9,0-25.8,0-38.8,0c-3.6,0-7.2,0-10.8,0
		c-0.6,0-1.2,0-1.8,0c0,0,0,0,0,0c-0.1,0-0.1,0-0.1,0c0,0,0,0,0,0c0,0-0.1-0.1-0.2-0.2c0,0-0.1-0.2-0.2-0.3c0-0.1-0.2-0.5-0.2-0.5
		c-0.1-0.4-0.2-0.8-0.3-1.1c-0.1-0.6-0.1-2.1-0.1-3c0-0.3,0-0.6,0.1-0.9c0,0.4,0.1-0.5,0.1-0.4c0.1-0.2,0.1-0.5,0.2-0.7
		c-0.1,0.2,0.1-0.1,0.2-0.3C5.9,74.2,6,74,6,74c0,0,0,0,0,0c0.1,0,0.1,0,0.1,0c0,0,0.1,0,0.2,0c0,0,0.1,0,0.1,0c0.3,0,0.5,0,0.8,0
		c1.2,0,2.4,0,3.6,0c4.5,0,9,0,13.5,0c10.3,0,20.5,0,30.8,0c0,0.1,0,0.3,0,0.4c0,1.4,1.2,2.6,2.6,2.6c1.3,0,2.6,0,3.9,0
		c1.4,0,2.6-1.2,2.6-2.6c0-0.1,0-0.3,0-0.4c0.3,0,0.6,0,0.9,0c12.5,0,25,0,37.5,0c2.8,0,5.7,0,8.5,0c0.6,0,1.1,0,1.7,0
		c0,0,0.1,0,0.1,0h0c0.1,0,0.1,0,0.2,0c0,0,0.1,0,0.2,0c0,0,0,0,0,0c0,0.1,0.2,0.3,0.3,0.3c0,0.1,0.1,0.1,0.1,0.1
		c0.1,0.2,0.1,0.4,0.2,0.7c0.1,0.6,0.1,0.4,0.2,1c0,0.5,0,1,0,1.5C114.1,79,114.1,79.8,113.7,81z"/>
	<path fill="#3D479D" d="M57.7,13.8c1.3,0,2.6,0,3.9,0c1.4,0,2.6-1.2,2.6-2.6c0-1.4-1.2-2.6-2.6-2.6c-1.3,0-2.6,0-3.9,0
		c-1.4,0-2.6,1.2-2.6,2.6C55.1,12.6,56.3,13.8,57.7,13.8z"/>
	<path fill="#3D479D" d="M30.1,52.1c2.3,0,4.3,0,6.4,0c4.8-0.1,8.6-2.1,10.6-6.4c1.2-2.6,1.9-5.5,2.1-8.4c0.3-4.3-2.3-7.4-6.5-7.7
		c-4.7-0.4-9.4-0.1-14.2-0.1c-1.1,5.4-2.2,11-3.3,16.5c-0.9,4.4-1.9,8.7-2.9,13.1c0,0.4,0,0.8,0,1.2c2,0,4,0,6,0
		C29,57.4,29.6,54.8,30.1,52.1z M33.5,35.2c0.1-0.4,0.9-1,1.4-1c1.3-0.1,2.6,0,3.9,0.2c3.9,0.5,4.6,1.5,4.1,5.4
		c-0.7,5.4-2.6,7.1-8,7.4c-1.2,0.1-2.4,0-3.8,0C31.9,43.1,32.6,39.2,33.5,35.2z"/>
	<path fill="#3D479D" d="M58.4,39.3c1.1-5.7,1.1-5.7,6.9-4.9c0.2,0,0.5,0,0.6,0.1c0.6,0.7,1.4,1.3,1.6,2c0.2,0.8,0,1.8-0.2,2.6
		c-0.8,4.3-1.7,8.5-2.6,12.9c2.1,0,4,0,5.9,0c0.1-0.3,0.2-0.5,0.3-0.8c0.9-4.4,1.9-8.8,2.7-13.2c1.1-5.9-0.6-8.1-6.6-8.7
		c-1.5-0.2-3-0.1-4.5-0.1c-0.7,0-1.3,0-2.2,0c0.6-3,1.2-5.6,1.8-8.3c-2,0-4.1,0-6.1,0c-2,10.3-4.1,20.7-6.1,31.1c2.1,0,4,0,5.9,0
		C56.7,47.7,57.5,43.5,58.4,39.3z"/>
	<path fill="#3D479D" d="M78.6,60.2c0.6-0.1,1.4-0.7,1.5-1.3c0.6-2.2,1-4.5,1.5-6.8c2.1,0,4.1,0.1,6.1,0c2.8-0.1,5.5-0.5,7.7-2.3
		c4.1-3.5,5.9-8,5.4-13.3c-0.3-4-2.6-6.6-6.6-6.9c-4.6-0.4-9.3-0.1-14.1-0.1c-2,10.1-4.1,20.4-6.2,30.8
		C75.6,60.3,77.2,60.4,78.6,60.2z M85.2,34c2.5,0.3,4.9,0.3,7.2,0.9c0.9,0.2,2,1.7,1.9,2.6c-0.1,2.3-0.6,4.6-1.4,6.7
		c-0.4,1-1.7,2-2.8,2.3c-2.4,0.6-4.9,0.7-7.6,1C83.5,42.8,84.3,38.6,85.2,34z"/>
</g>
</svg>
