<?xml version="1.0" encoding="utf-8"?>
<!-- Generator: Adobe Illustrator 18.0.0, SVG Export Plug-In . SVG Version: 6.00 Build 0)  -->
<!DOCTYPE svg PUBLIC "-//W3C//DTD SVG 1.1//EN" "http://www.w3.org/Graphics/SVG/1.1/DTD/svg11.dtd">
<svg version="1.1" id="Icon" xmlns="http://www.w3.org/2000/svg" xmlns:xlink="http://www.w3.org/1999/xlink" x="0px" y="0px"
	 width="119.1px" height="118px" viewBox="0 0 119.1 118" enable-background="new 0 0 119.1 118" xml:space="preserve">
<path fill="#3B44A1" d="M16.9,30.9c-3.4,0-3.4,5.2,0,5.2C20.3,36.1,20.3,30.9,16.9,30.9z M16.9,48.3c-3.4,0-3.4,5.2,0,5.2
	C20.3,53.5,20.3,48.3,16.9,48.3z M16.9,66.3c-3.4,0-3.4,5.2,0,5.2C20.3,71.5,20.3,66.3,16.9,66.3z M28.8,36.1h28.5
	c10.4,0,20.7,0,31.1,0h0.2c3.4,0,3.4-5.2,0-5.2H60c-10.4,0-20.7,0-31.1,0h-0.2C25.4,30.9,25.4,36.1,28.8,36.1z M28.8,53.5h28.5
	c10.4,0,20.7,0,31.1,0h0.2c3.4,0,3.4-5.2,0-5.2H60c-10.4,0-20.7,0-31.1,0h-0.2C25.4,48.3,25.4,53.5,28.8,53.5z M88.5,71.5
	c3.4,0,3.4-5.2,0-5.2H60c-10.4,0-20.7,0-31.1,0h-0.2c-3.4,0-3.4,5.2,0,5.2h28.5c10.4,0,20.7,0,31.1,0H88.5z M119,71.1
	c-0.4-1.7-1.3-3.3-2.7-4.5l-4.9-4.4c-1.4-1.3-3.2-2.1-5-2.2v-55c0-3.3-3.1-5.1-6-5.1h-94C3.8,0,1.2,0.9,0.3,3.6c-0.3,1-0.2,2-0.2,3
	v78.8c0,2.2,1.5,3.8,3.4,4.6c0.6,0.2,1.2,0.3,1.9,0.4c0.2,0,0.4,0,0.6,0h0.4c0.2,0,0.4,0,0.5,0h69.2L70,97.2c-0.6,0.7-0.9,1-2.2,9.5
	c-0.4,2.6-0.7,5.2-0.9,6.6c-0.1,0.1-0.2,0.2-0.3,0.4c-0.9,1.1-1,2.6,0,3.7c1,1,2.7,1.1,3.7,0c0.1-0.1,0.2-0.2,0.3-0.3
	c1.1-0.3,3.9-1.1,6.7-2c7.9-2.4,8.3-2.8,8.8-3.4l26.2-29.3c0.1-0.1,0.2-0.2,0.3-0.3c0.2-0.2,0.3-0.3,0.4-0.5l4.7-5.3
	C119,74.9,119.4,73,119,71.1z M5.2,5.3c0,0,0.1,0,0.2-0.1c-0.2,0.1,0.2,0,0.4,0h95c0.3,0,0.4,0,0.3,0c0.1,0,0.1,0,0.2,0v0
	c-0.1,0,0,0,0,0.1v7.6c-0.2,0-0.4,0-0.5,0H7c-0.6,0-1.2,0-1.8,0V5.3z M5.7,85.2C5.7,85.2,5.7,85.2,5.7,85.2L5.7,85.2
	c-0.2,0-0.3,0-0.3,0c-0.1,0-0.1,0-0.1,0c0-0.1,0-0.1,0-0.2V18.2c0.1,0,0.1-0.1,0.2-0.1c0.3-0.1,1.2,0,1.7,0h93.6
	c0.3,0,0.3,0,0.5,0.1v44.2L80.8,85.2H5.7z M82.5,107.8c-0.9,0.4-3.4,1.2-6.5,2.1c0.1-0.7-0.2-1.4-0.7-2c-0.6-0.6-1.5-0.8-2.3-0.7
	c0.5-3.2,0.9-5.9,1.2-6.9l24.5-27.4c0.7,0.6,1.4,1.3,2.2,1.9c-6.6,7.4-13.2,14.9-19.8,22.3c-0.3,0.3-0.5,0.6-0.8,0.9
	c-0.9,1.1-1,2.6,0,3.7c1,1,2.7,1.1,3.7,0c6.9-7.8,13.9-15.6,20.8-23.4c0.8,0.7,1.5,1.3,2.3,2L82.5,107.8z M113.9,72.7l-3.3,3.7
	c-2.8-2.5-5.6-4.9-8.3-7.4l3.4-3.8c0,0,0.2-0.1,0.4-0.1c0.5,0,1.2,0.2,2,0.9l4.9,4.4c0.6,0.5,1,1.1,1.1,1.7
	C114,72.5,113.9,72.7,113.9,72.7z"/>
</svg>
