<?xml version="1.0" encoding="utf-8"?>
<!-- Generator: Adobe Illustrator 18.0.0, SVG Export Plug-In . SVG Version: 6.00 Build 0)  -->
<!DOCTYPE svg PUBLIC "-//W3C//DTD SVG 1.1//EN" "http://www.w3.org/Graphics/SVG/1.1/DTD/svg11.dtd">
<svg version="1.1" id="Layer_1" xmlns="http://www.w3.org/2000/svg" xmlns:xlink="http://www.w3.org/1999/xlink" x="0px" y="0px"
	 width="120px" height="118.8px" viewBox="0 0 120 118.8" enable-background="new 0 0 120 118.8" xml:space="preserve">
<path fill="#3B44A1" d="M119.9,1.9c-0.4-1.5-1.8-2.1-3.2-1.8C108.3,1.5,99.9,3,91.5,4.5C78.6,6.7,65.7,9,52.7,11.3
	c-2.4,0.4-4.9,0.9-7.3,1.3c-1.1,0.2-1.9,1.4-1.9,2.5l-0.1,23c0,13.9-0.1,27.9-0.1,41.8c0,3,0,6,0,9c-4.2-4-10.4-6.4-16.1-7
	C17.1,80.8,4.7,85.1,0.9,95.4c-1.7,4.4-0.8,9.5,1.8,13.3c2.9,4.3,7.5,7.2,12.4,8.7c10.2,3.3,23.3,0.9,30.1-7.9
	c2-2.6,3.1-5.7,3.2-8.9c0.1-0.3,0.1-0.5,0.1-0.9l0.1-23c0-13.9,0.1-27.9,0.1-41.8c0-5.9,0-11.8,0-17.7c7.8-1.4,15.5-2.7,23.2-4.1
	c12.9-2.3,25.9-4.5,38.8-6.8c1.3-0.2,2.5-0.4,3.8-0.7c0,6.6,0,13.2,0,19.9c0,13.9,0,27.9,0,41.8c0,3,0,6,0,9c-4.2-4-10.3-6.4-16-7
	C88.3,68.2,76,72.6,72.1,82.9c-1.7,4.4-0.8,9.5,1.8,13.3c2.9,4.3,7.5,7.2,12.4,8.7c10.2,3.3,23.3,0.9,30.1-7.9
	c2-2.6,3.1-5.7,3.2-8.9c0.1-0.3,0.1-0.5,0.1-0.9c0-7.7,0-15.3,0-23c0-13.9,0-27.9,0-41.8c0-6.3,0-12.6,0-18.9
	C120,3,120,2.4,119.9,1.9 M43.1,101c0,0-0.1,0.5,0,0.5c-0.1,0.4-0.2,0.9-0.3,1.3c-0.1,0.2-0.1,0.5-0.2,0.7c0,0-0.2,0.5-0.2,0.5
	c-0.2,0.5-0.5,1-0.7,1.4c-1,1.6-2.6,3.2-4.1,4.3c-4.2,2.9-9.3,4-14.4,3.9c-2.6-0.1-5.1-0.6-7.6-1.5c-1.9-0.7-4.3-2-5.7-3.2
	C8,107.4,7,106.2,6,104.1c0,0,0-0.1,0-0.1c0,0,0-0.1-0.1-0.2c-0.1-0.2-0.2-0.5-0.2-0.7c-0.1-0.5-0.3-1-0.3-1.5c0,0,0-0.1,0-0.1
	c0,0,0-0.1,0-0.2c0-0.3,0-0.5,0-0.8c0-0.3,0-0.5,0-0.8c0-0.1,0.1-0.8,0-0.7c0.1-0.8,0.4-1.6,0.6-2.4c0,0.1,0.2-0.4,0.2-0.4
	c0.1-0.2,0.2-0.5,0.4-0.7c0.2-0.5,0.5-0.9,0.8-1.3c0.3-0.5,0.3-0.4,0.7-0.9c0.4-0.4,0.7-0.8,1.1-1.2c0.9-0.8,1.3-1.1,2.4-1.8
	c4-2.6,8.9-3.5,13.7-3.4c4.7,0.1,9.2,1.6,13,4.4c1.3,1,2.7,2.5,3.5,4c0.6,1.1,0.7,1.3,1,2.4c0.1,0.4,0.2,0.9,0.3,1.3
	c0-0.2,0,0.4,0,0.5c0,0.3,0,0.5,0,0.8C43.2,100.5,43.2,100.8,43.1,101 M114.4,88.5c0,0-0.1,0.5,0,0.5c-0.1,0.4-0.2,0.9-0.3,1.3
	c-0.1,0.2-0.1,0.5-0.2,0.7c0,0-0.2,0.5-0.2,0.5c-0.2,0.5-0.5,1-0.7,1.4c-1,1.6-2.6,3.2-4.1,4.3c-4.2,2.9-9.3,4-14.4,3.9
	c-2.6-0.1-5.1-0.6-7.6-1.5c-1.9-0.7-4.3-2-5.7-3.2c-1.8-1.5-2.8-2.7-3.8-4.8c0,0,0-0.1,0-0.1c0,0,0-0.1-0.1-0.2
	C77,91,77,90.8,76.9,90.5c-0.2-0.5-0.3-1-0.3-1.5c0,0,0-0.1,0-0.1c0,0,0-0.1,0-0.2c0-0.3,0-0.5,0-0.8c0-0.3,0-0.5,0-0.8
	c0-0.1,0.1-0.8,0-0.7c0.1-0.8,0.4-1.6,0.6-2.4c0,0.1,0.2-0.4,0.2-0.4c0.1-0.2,0.2-0.5,0.4-0.7c0.2-0.5,0.5-0.9,0.8-1.3
	c0.3-0.5,0.3-0.4,0.7-0.9c0.4-0.4,0.7-0.8,1.1-1.2c0.9-0.8,1.3-1.1,2.4-1.8c4-2.6,8.9-3.5,13.7-3.4c4.7,0.1,9.2,1.6,13,4.4
	c1.3,1,2.7,2.5,3.5,4c0.6,1.1,0.7,1.3,1,2.4c0.1,0.4,0.2,0.9,0.3,1.3c0-0.2,0,0.4,0,0.5c0,0.3,0,0.5,0,0.8
	C114.4,88,114.4,88.3,114.4,88.5 M21.5,90.6c-5.9,0.1-12.6,3.5-12.8,10.1c-0.1,3.4,5.2,3.4,5.2,0c0-0.6,0.1-1,0.4-1.5
	c0.1-0.1,0.2-0.3,0.3-0.4c0-0.1,0.1-0.1,0.1-0.1c0,0,0.1-0.1,0.1-0.2c0.2-0.2,0.4-0.4,0.6-0.6c0,0,0.5-0.4,0.4-0.3
	c1.7-1.2,3.6-1.7,5.7-1.7C24.9,95.8,24.9,90.6,21.5,90.6 M92.8,78c-5.9,0.1-12.6,3.5-12.8,10.1c-0.1,3.4,5.2,3.4,5.2,0
	c0-0.6,0.1-1,0.4-1.5c0.1-0.1,0.2-0.3,0.3-0.4c0-0.1,0.1-0.1,0.1-0.1c0,0,0.1-0.1,0.1-0.2c0.2-0.2,0.4-0.4,0.6-0.6
	c0,0,0.5-0.4,0.4-0.3c1.7-1.2,3.6-1.7,5.7-1.7C96.1,83.2,96.1,77.9,92.8,78"/>
</svg>
