<?xml version="1.0" encoding="utf-8"?>
<!-- Generator: Adobe Illustrator 18.0.0, SVG Export Plug-In . SVG Version: 6.00 Build 0)  -->
<!DOCTYPE svg PUBLIC "-//W3C//DTD SVG 1.1//EN" "http://www.w3.org/Graphics/SVG/1.1/DTD/svg11.dtd">
<svg version="1.1" id="Icon" xmlns="http://www.w3.org/2000/svg" xmlns:xlink="http://www.w3.org/1999/xlink" x="0px" y="0px"
	 width="63.6px" height="57.2px" viewBox="-1.1 8.9 63.6 57.2" enable-background="new -1.1 8.9 63.6 57.2" xml:space="preserve">
<path fill="#3B44A1" d="M54.9,37.3C54.9,37.3,54.9,37.3,54.9,37.3L32.2,62c-0.4,0.5-1,0.7-1.5,0.7s-1.1-0.3-1.5-0.7L6.5,37.3
	c0,0,0,0-0.1-0.1C3.8,34.5,2.3,30.9,2.3,27c0-8.1,6.6-14.7,14.7-14.7c4.9,0,9.4,2.4,12.2,6.5l0.1,0.2c0.3,0.5,0.8,0.8,1.4,0.8
	c0.6,0,1.1-0.3,1.4-0.8c2.7-4.2,7.3-6.7,12.3-6.7c8.1,0,14.7,6.6,14.7,14.7C59.1,30.9,57.6,34.5,54.9,37.3z M44.4,8.9
	c-5.3,0-10.3,2.3-13.7,6.3c-3.4-4-8.4-6.3-13.7-6.3C7,8.9-1.1,17-1.1,27c0,4.7,1.8,9.2,5.1,12.6l22.6,24.7c1.1,1.2,2.5,1.8,4,1.8
	c1.5,0,3-0.6,4-1.8l22.6-24.6c3.3-3.4,5.1-7.9,5.1-12.6C62.5,17,54.4,8.9,44.4,8.9z"/>
<path fill="#3B44A1" d="M17.5,16.3c-6.2,0-11.2,5-11.2,11.2c0,0.9,0.8,1.7,1.7,1.7c0.9,0,1.7-0.8,1.7-1.7c0-4.3,3.5-7.8,7.8-7.8
	c0.9,0,1.7-0.8,1.7-1.7C19.2,17.1,18.5,16.3,17.5,16.3z"/>
</svg>
