<?xml version="1.0" encoding="utf-8"?>
<!-- Generator: Adobe Illustrator 18.0.0, SVG Export Plug-In . SVG Version: 6.00 Build 0)  -->
<!DOCTYPE svg PUBLIC "-//W3C//DTD SVG 1.1//EN" "http://www.w3.org/Graphics/SVG/1.1/DTD/svg11.dtd">
<svg version="1.1" id="Icon" xmlns="http://www.w3.org/2000/svg" xmlns:xlink="http://www.w3.org/1999/xlink" x="0px" y="0px"
	 width="76px" height="69.7px" viewBox="-55.4 84.5 76 69.7" enable-background="new -55.4 84.5 76 69.7" xml:space="preserve">
<path fill="#3B44A1" stroke="#3B44A1" stroke-miterlimit="10" d="M6.4,151.2V105h10v46.2H6.4z M-12.4,151.2V115h10v36.2H-12.4z
	 M-31.1,151.2V125h10v26.2H-31.1z M-49.9,151.2v-15h10v15H-49.9z M18.9,151.2v-48.8h-15v48.8H0.1v-38.8h-15v38.8h-3.8v-28.8h-15
	v28.8h-3.8v-17.5h-15v17.5h-1.2c-0.7,0-1.2,0.6-1.2,1.2s0.6,1.2,1.2,1.2h72.5c0.7,0,1.2-0.6,1.2-1.2S19.6,151.2,18.9,151.2z"/>
<path fill="#3B44A1" stroke="#3B44A1" stroke-miterlimit="10" d="M-44.8,116.7c0.2,0,0.4-0.1,0.6-0.2L1.1,90.3l-2.8,6.2
	c-0.3,0.6,0,1.4,0.6,1.6c0.2,0.1,0.3,0.1,0.5,0.1c0.5,0,0.9-0.3,1.1-0.7L5,87.8c0,0,0-0.1,0-0.1c0-0.1,0-0.1,0.1-0.2
	c0,0,0-0.1,0-0.1c0,0,0,0,0,0c0-0.1,0-0.1,0-0.1c0-0.1,0-0.1,0-0.2c0-0.1,0-0.1,0-0.1c0-0.1,0-0.1-0.1-0.1c0,0,0-0.1,0-0.1
	c0,0-0.1-0.1-0.1-0.1c0,0,0-0.1-0.1-0.1c0,0-0.1-0.1-0.1-0.1c-0.1-0.1-0.1-0.1-0.2-0.1c0,0-0.1-0.1-0.1-0.1c0,0,0,0,0,0
	c0,0-0.1,0-0.1,0c-0.1,0-0.1,0-0.2-0.1c0,0-0.1,0-0.1,0l-10.7-1c-0.7-0.1-1.3,0.4-1.4,1.1c-0.1,0.7,0.4,1.3,1.1,1.4l6.8,0.7
	l-45.3,26.2c-0.6,0.4-0.8,1.1-0.5,1.7C-45.7,116.4-45.3,116.7-44.8,116.7z"/>
</svg>
