<?xml version="1.0" encoding="utf-8"?>
<!-- Generator: Adobe Illustrator 15.0.2, SVG Export Plug-In . SVG Version: 6.00 Build 0)  -->
<!DOCTYPE svg PUBLIC "-//W3C//DTD SVG 1.1//EN" "http://www.w3.org/Graphics/SVG/1.1/DTD/svg11.dtd">
<svg version="1.1" id="Layer_1" xmlns="http://www.w3.org/2000/svg" xmlns:xlink="http://www.w3.org/1999/xlink" x="0px" y="0px"
	 width="1024px" height="1024px" viewBox="0 0 1024 1024" enable-background="new 0 0 1024 1024" xml:space="preserve">
<rect x="-0.16" fill="#F6F6F2" width="1024" height="1024"/>
<path fill="#9D9D93" d="M312.37,859.068c-61.475,33.862-138.817,43.482-211.599,95.836c-35.551,25.582-52.655,50.818-60.89,69.096
	h943.918c-8.246-18.277-25.366-43.514-60.932-69.096c-72.722-52.354-150.063-61.974-211.539-95.836
	c-61.474-33.861-61.099-83.089-59.226-135.318c0.75-34.735,7.122-42.108,31.237-89.057c35.611-69.346,45.481-129.289,50.605-180.581
	c8.245-80.029-0.627-194.169-54.978-255.957c-54.228-61.692-135.194-70.625-135.194-70.625L511.911,124l-31.986,3.53
	c0,0-81.061,8.933-135.225,70.625c-54.321,61.788-63.162,175.865-55.04,255.957c5.248,51.292,15.057,111.235,50.604,180.581
	c24.115,47.011,30.082,54.321,31.299,89.057C373.408,775.979,373.875,825.207,312.37,859.068z"/>
</svg>
