<?xml version="1.0" encoding="utf-8"?>
<!-- Generator: Adobe Illustrator 18.1.1, SVG Export Plug-In . SVG Version: 6.00 Build 0)  -->
<svg version="1.1" xmlns="http://www.w3.org/2000/svg" xmlns:xlink="http://www.w3.org/1999/xlink" x="0px" y="0px"
	 viewBox="0 0 862.4 333.2" enable-background="new 0 0 862.4 333.2" xml:space="preserve">

<style>
/* Mark only */
#pnwds-logo-type-horizontal,
#pnwds-logo-type-stacked {
  visibility: hidden;
  opacity: 0;
  transition: opacity .5s linear;
}
/* Horizontal */
@media all and (max-aspect-ratio: 12/4) {
  #pnwds-logo-type-horizontal { visibility: visible; opacity: 1; }
  #pnwds-logo-type-stacked { visibility: hidden; opacity: 0; }
}
/* Stacked */
@media all and (max-aspect-ratio: 12/8) {
  #pnwds-logo-type-stacked { visibility: visible; opacity: 1; }
  #pnwds-logo-type-horizontal { visibility: hidden; opacity: 0; }
}
</style>

<g id="pnwds-logo-mark">
	<g id="pnwds-logo-mark-bottom">
		<g>
			<path fill="#356C4A" d="M173,140.1c0,44.5,33.6,79.9,77,79.9c43.4,0,77-35.4,77-79.9c0-0.2,0-0.4,0-0.6H173
				C173,139.7,173,139.9,173,140.1z"/>
		</g>
		<g>
			<path fill="#44825B" d="M191,140c0,0,0,0.1,0,0.1c0,26.6,15.3,48.8,37.4,57.7c2.7-3.8,7-9.9,8-11.6c-2.1,1-8,1.4-8,1.4
				c-0.2,0.1-0.4,0-0.6-0.2c-0.1-0.1-0.1-0.2-0.1-0.3c0-0.1,0-0.2,0.1-0.3c0,0,11.4-15.1,13.1-17.5c-1.9,0.8-6.1,1-6.1,1
				c-0.2,0.1-0.4,0-0.5-0.2c-0.1-0.2-0.1-0.4,0-0.6l15.4-21.3c0.1-0.1,0.2-0.2,0.4-0.2c0.1,0,0.3,0.1,0.4,0.2l15.4,21.3
				c0.1,0.2,0.1,0.4,0,0.6c-0.1,0.2-0.3,0.3-0.5,0.2c0,0-3.1-0.2-5.1-1c1.7,2.4,12,17.5,12,17.5c0.1,0.1,0.1,0.2,0.1,0.3
				c0,0.1,0,0.2-0.1,0.3c-0.1,0.2-0.4,0.2-0.6,0.2c0,0-4.7-0.8-6.8-1.8c1,1.6,4.7,7.9,7.1,11.8c21.9-8.9,37.1-31.1,37.1-57.6
				c0,0,0-0.1,0-0.1c0-0.2,0-0.3,0-0.5H191C191,139.7,191,139.8,191,140z"/>
		</g>
	</g>
	<g id="pnwds-logo-mark-top">
		<g>
			<path fill="#3C5D8F" d="M327,140c0,0,0,0.1,0,0.1c0-44.5-58.2-78.9-77-140.1c-18.8,61.3-77,95.7-77,140.1c0,0,0-0.1,0-0.1H327z"
				/>
		</g>
		<g>
			<path fill="#566D9A" d="M309,140c-0.1-17-13.9-34.9-30-55.6c-9.1-11.7-18.8-24.3-27.5-38.4h-3.1c-8.6,14.1-18.4,26.7-27.5,38.4
				c-16,20.7-29.9,38.5-30,55.6H309z"/>
		</g>
	</g>
	<g id="pnwds-logo-mark-snowfield">
		<path fill="#FFFFFF" d="M302.4,121.3c0.7-0.5,0.9-1.6,0.5-2.4c-5.6-10.8-14.4-22.1-24-34.5c-9.2-11.9-19.1-24.6-27.7-38.9
			c-0.2-0.3-0.4-0.6-0.6-0.7c-0.4-0.5-1-0.5-1.4,0.1c-0.1,0.2-0.3,0.4-0.5,0.6c-8.7,14.3-18.6,27.1-27.8,39c-1.5,2-3,3.9-4.5,5.8
			l0,0c-1,1.3-3.7,4.8-3.7,4.8c-0.7,0.9-0.8,2.2-0.2,2.8c0.6,0.6,1.8,0.4,2.7-0.4L242,73.8c0.9-0.8,1.8-0.5,2,0.7l5.5,27.5
			c0.2,1.2,1.2,1.5,2.1,0.8L265,92.2c0.9-0.7,2.4-0.7,3.3,0.1l31.2,28.4C300.4,121.6,301.7,121.8,302.4,121.3z"/>
	</g>
</g>
<g id="pnwds-logo-type-horizontal">
	<g>
		<path fill="#37724F" d="M364.6,134.5h-4.5V93.8h6.7c3.5,0,7.1,0.1,10.1,2.2c3,2.1,4.6,5.7,4.6,9.3c0,3.3-1.3,6.6-3.9,8.7
			c-2.8,2.3-6.3,2.7-9.7,2.7h-3.3V134.5z M364.6,112.5h3c5,0,9.3-1.5,9.3-7.3c0-6.6-5.3-7.1-10.6-7.1h-1.7V112.5z"/>
		<path fill="#37724F" d="M387.2,123l-4.9,11.6h-5l18.8-42.7l18.3,42.7h-5l-4.8-11.6H387.2z M396,102.5l-7,16.3h13.8L396,102.5z"/>
		<path fill="#37724F" d="M447.2,102.7c-3.2-3.3-7.7-5.4-12.4-5.4c-9.1,0-16.4,7.9-16.4,16.8c0,9,7.4,16.8,16.5,16.8
			c4.6,0,9.1-2.2,12.3-5.4v5.6c-3.5,2.5-7.8,4-12.2,4c-11.5,0-21.2-9.3-21.2-20.9c0-11.7,9.6-21.2,21.2-21.2c4.5,0,8.5,1.3,12.2,4
			V102.7z"/>
		<path fill="#37724F" d="M457.6,134.5H453V93.8h4.5V134.5z"/>
		<path fill="#37724F" d="M468.5,98v12.1H482v4.2h-13.6v20.2h-4.5V93.8h18.5V98H468.5z"/>
		<path fill="#37724F" d="M492.5,134.5H488V93.8h4.5V134.5z"/>
		<path fill="#37724F" d="M529.9,102.7c-3.2-3.3-7.7-5.4-12.4-5.4c-9.1,0-16.4,7.9-16.4,16.8c0,9,7.4,16.8,16.5,16.8
			c4.6,0,9.1-2.2,12.3-5.4v5.6c-3.5,2.5-7.8,4-12.2,4c-11.5,0-21.2-9.3-21.2-20.9c0-11.7,9.6-21.2,21.2-21.2c4.5,0,8.5,1.3,12.2,4
			V102.7z"/>
		<path fill="#37724F" d="M554.5,92.1l31.8,33.3V93.8h4.5v42.6L559,103.2v31.4h-4.5V92.1z"/>
		<path fill="#37724F" d="M637.8,114.2c0,11.7-9.6,21-21.2,21s-21.2-9.3-21.2-21c0-11.7,9.6-21.1,21.2-21.1S637.8,102.6,637.8,114.2
			z M599.9,114.2c0,9.2,7.5,16.8,16.7,16.8s16.7-7.7,16.7-16.8c0-9.2-7.3-16.8-16.7-16.8S599.9,105,599.9,114.2z"/>
		<path fill="#37724F" d="M646.6,134.5H642V93.8h5.9c7.7,0,14.9,2.1,14.9,11.2c0,6.3-3.9,10.7-10.2,11.2l13,18.3H660l-12.3-17.9
			h-1.1V134.5z M646.6,112.7h1.4c5.1,0,10.3-1,10.3-7.3c0-6.7-4.9-7.3-10.4-7.3h-1.3V112.7z"/>
		<path fill="#37724F" d="M679.1,134.5h-4.5V98h-9.8v-4.2h24.3V98h-9.9V134.5z"/>
		<path fill="#37724F" d="M717.4,110.4V93.8h4.5v40.7h-4.5v-20h-20.8v20H692V93.8h4.5v16.5H717.4z"/>
		<path fill="#37724F" d="M740.7,124.3l13.2-32.6l13.2,32.6l10.7-30.5h4.9l-15.6,42.8l-13.2-32.8l-13.2,32.8l-15.6-42.8h4.9
			L740.7,124.3z"/>
		<path fill="#37724F" d="M785.5,93.8h21.1V98h-16.6v12.1h16.1v4.2h-16.1v16h16.6v4.2h-21.1V93.8z"/>
		<path fill="#37724F" d="M830.9,101.8c-1.6-2.8-3.6-4.4-7-4.4c-3.6,0-6.8,2.6-6.8,6.3c0,3.5,3.6,5.1,6.4,6.4l2.7,1.2
			c5.3,2.3,9.8,5,9.8,11.4c0,7.1-5.7,12.6-12.8,12.6c-6.5,0-11.4-4.2-12.7-10.5l4.4-1.2c0.6,4.2,3.8,7.6,8.2,7.6s8.4-3.3,8.4-7.9
			c0-4.8-3.7-6.4-7.5-8.1l-2.5-1.1c-4.8-2.2-8.9-4.6-8.9-10.4c0-6.3,5.3-10.4,11.4-10.4c4.5,0,8.4,2.3,10.5,6.3L830.9,101.8z"/>
		<path fill="#37724F" d="M851.6,134.5H847V98h-9.8v-4.2h24.3V98h-9.9V134.5z"/>
		<path fill="#3C5D8F" d="M359.4,147.8h15.1c13.7,0,24.1,6,24.1,21c0,12.1-8.5,19.8-20.5,19.8h-18.7V147.8z M374.2,176.3h0.9
			c4.9,0,8.7-2.3,8.7-7.6c0-5.7-3.3-8.2-8.7-8.2h-0.9V176.3z"/>
		<path fill="#3C5D8F" d="M403.5,147.8h17.9c9.2,0,17,3.9,17,14.1c0,6.2-2.4,8.7-7.9,10.6v0.3c0.8,0.6,1.7,1.2,2.5,2.4l8.9,13.2
			h-17.1l-6.5-13.1h-0.3v13.1h-14.5V147.8z M417.9,165.9h1c2.4,0,4.9-0.4,4.9-3.4c0-3.1-2.2-3.5-4.8-3.5h-1.1V165.9z"/>
		<path fill="#3C5D8F" d="M481.3,147.8v24.1c0,11.9-7.5,17.3-18.8,17.3c-11.4,0-18.8-5.4-18.8-17.3v-24.1h14.8v22.7c0,3.2,0.1,6,4,6
			c3.9,0,4-2.8,4-6v-22.7H481.3z"/>
		<path fill="#3C5D8F" d="M487.3,147.8H506c9.5,0,16.5,4.9,16.5,15c0,8.3-5.2,13.5-13.4,13.5h-7.6v12.3h-14.3V147.8z M501.5,166h1.5
			c2.6,0,5.4-0.4,5.4-3.7c0-3.2-3-3.3-5.5-3.3h-1.4V166z"/>
		<path fill="#3C5D8F" d="M533.7,188.5h-15.7l14.1-40.7h16.4l14.5,40.7h-15.7l-1.4-5.1h-11.2L533.7,188.5z M543.5,173.8l-1.7-7.2
			c-0.4-1.7-0.7-3.5-1-5.2h-0.5l-2.7,12.4H543.5z"/>
		<path fill="#3C5D8F" d="M565.6,147.8h14.8v27.6h12.4v13.1h-27.2V147.8z"/>
		<path fill="#3C5D8F" d="M620.7,174l0.8,0.6c2.6,2.1,5.8,3.7,9.2,3.7c1.5,0,3.8-0.6,3.8-2.4s-1.9-2-3.3-2.3l-3-0.5
			c-5.8-1-10.6-4.4-10.6-10.8c0-9.7,8.8-15.1,17.7-15.1c4.6,0,8.9,1.1,12.9,3.6l-4,10.4c-2.5-1.7-5.4-3.1-8.6-3.1
			c-1.3,0-3.2,0.5-3.2,2.2c0,1.5,1.8,1.7,3,2l3.3,0.8c6.3,1.4,10.8,4.8,10.8,11.7c0,9.7-8.9,14.5-17.7,14.5
			c-5.1,0-11.1-1.4-15.7-3.7L620.7,174z"/>
		<path fill="#3C5D8F" d="M691,147.8v24.1c0,11.9-7.5,17.3-18.8,17.3c-11.4,0-18.8-5.4-18.8-17.3v-24.1h14.8v22.7c0,3.2,0.1,6,4,6
			c3.9,0,4-2.8,4-6v-22.7H691z"/>
		<path fill="#3C5D8F" d="M701.9,147.8h15.2l5.6,21.4h0.4c0.3-1.8,0.5-3.7,1-5.4l4.6-16h15.1l6.7,40.7h-14.3l-2-22.3h-0.3
			c-0.3,1.4-0.5,2.8-1,4.1l-5.9,18.3h-8.6l-5.3-17.2c-0.4-1.7-0.8-3.3-0.9-5.1h-0.5c-0.1,1.6-0.2,3.3-0.4,4.9l-1.7,17.4h-14.3
			L701.9,147.8z"/>
		<path fill="#3C5D8F" d="M759.9,147.8h15.2l5.6,21.4h0.4c0.3-1.8,0.5-3.7,1-5.4l4.6-16h15.1l6.7,40.7h-14.3l-2-22.3h-0.3
			c-0.3,1.4-0.5,2.8-1,4.1l-5.9,18.3h-8.6l-5.3-17.2c-0.4-1.7-0.8-3.3-0.9-5.1h-0.5c-0.1,1.6-0.2,3.3-0.4,4.9l-1.7,17.4h-14.3
			L759.9,147.8z"/>
		<path fill="#3C5D8F" d="M813,147.8h14.8v40.7H813V147.8z"/>
		<path fill="#3C5D8F" d="M831.3,147.8h31.1v13.2l-8.2-0.4v27.9h-14.8v-27.9l-8.2,0.4V147.8z"/>
	</g>
</g>
<g id="pnwds-logo-type-stacked">
	<g>
		<path fill="#37724F" d="M5.6,278.5H1.1v-40.7h6.7c3.5,0,7.1,0.1,10.1,2.2c3,2.1,4.6,5.7,4.6,9.3c0,3.3-1.3,6.6-3.9,8.7
			c-2.8,2.3-6.3,2.7-9.7,2.7H5.6V278.5z M5.6,256.5h3c5,0,9.3-1.5,9.3-7.3c0-6.6-5.3-7.1-10.6-7.1H5.6V256.5z"/>
		<path fill="#37724F" d="M28.2,267l-4.9,11.6h-5l18.8-42.7l18.3,42.7h-5L45.6,267H28.2z M37,246.5l-7,16.3h13.8L37,246.5z"/>
		<path fill="#37724F" d="M88.2,246.7c-3.2-3.3-7.7-5.4-12.4-5.4c-9.1,0-16.4,7.9-16.4,16.8c0,9,7.4,16.8,16.5,16.8
			c4.6,0,9.1-2.2,12.3-5.4v5.6c-3.5,2.5-7.8,4-12.2,4c-11.5,0-21.2-9.3-21.2-20.9c0-11.7,9.6-21.2,21.2-21.2c4.5,0,8.5,1.3,12.2,4
			V246.7z"/>
		<path fill="#37724F" d="M98.6,278.5H94v-40.7h4.5V278.5z"/>
		<path fill="#37724F" d="M109.5,242v12.1H123v4.2h-13.6v20.2H105v-40.7h18.5v4.2H109.5z"/>
		<path fill="#37724F" d="M133.5,278.5H129v-40.7h4.5V278.5z"/>
		<path fill="#37724F" d="M170.9,246.7c-3.2-3.3-7.7-5.4-12.4-5.4c-9.1,0-16.4,7.9-16.4,16.8c0,9,7.4,16.8,16.5,16.8
			c4.6,0,9.1-2.2,12.3-5.4v5.6c-3.5,2.5-7.8,4-12.2,4c-11.5,0-21.2-9.3-21.2-20.9c0-11.7,9.6-21.2,21.2-21.2c4.5,0,8.5,1.3,12.2,4
			V246.7z"/>
		<path fill="#37724F" d="M195.5,236.1l31.8,33.3v-31.5h4.5v42.6L200,247.2v31.4h-4.5V236.1z"/>
		<path fill="#37724F" d="M278.8,258.2c0,11.7-9.6,21-21.2,21s-21.2-9.3-21.2-21c0-11.7,9.6-21.1,21.2-21.1S278.8,246.6,278.8,258.2
			z M240.9,258.2c0,9.2,7.5,16.8,16.7,16.8s16.7-7.7,16.7-16.8c0-9.2-7.3-16.8-16.7-16.8S240.9,249,240.9,258.2z"/>
		<path fill="#37724F" d="M287.6,278.5H283v-40.7h5.9c7.7,0,14.9,2.1,14.9,11.2c0,6.3-3.9,10.7-10.2,11.2l13,18.3H301l-12.3-17.9
			h-1.1V278.5z M287.6,256.7h1.4c5.1,0,10.3-1,10.3-7.3c0-6.7-4.9-7.3-10.4-7.3h-1.3V256.7z"/>
		<path fill="#37724F" d="M320.2,278.5h-4.5V242h-9.8v-4.2h24.3v4.2h-9.9V278.5z"/>
		<path fill="#37724F" d="M358.4,254.4v-16.5h4.5v40.7h-4.5v-20h-20.8v20h-4.5v-40.7h4.5v16.5H358.4z"/>
		<path fill="#37724F" d="M381.7,268.3l13.2-32.6l13.2,32.6l10.7-30.5h4.9l-15.6,42.8l-13.2-32.8l-13.2,32.8l-15.6-42.8h4.9
			L381.7,268.3z"/>
		<path fill="#37724F" d="M426.5,237.8h21.1v4.2h-16.6v12.1h16.1v4.2h-16.1v16h16.6v4.2h-21.1V237.8z"/>
		<path fill="#37724F" d="M471.9,245.8c-1.6-2.8-3.6-4.4-7-4.4c-3.6,0-6.8,2.6-6.8,6.3c0,3.5,3.6,5.1,6.4,6.4l2.7,1.2
			c5.3,2.3,9.8,5,9.8,11.4c0,7.1-5.7,12.6-12.8,12.6c-6.5,0-11.4-4.2-12.7-10.5l4.4-1.2c0.6,4.2,3.8,7.6,8.2,7.6s8.4-3.3,8.4-7.9
			c0-4.8-3.7-6.4-7.5-8.1l-2.5-1.1c-4.8-2.2-8.9-4.6-8.9-10.4c0-6.3,5.3-10.4,11.4-10.4c4.5,0,8.4,2.3,10.5,6.3L471.9,245.8z"/>
		<path fill="#37724F" d="M492.6,278.5H488V242h-9.8v-4.2h24.3v4.2h-9.9V278.5z"/>
		<path fill="#3C5D8F" d="M0,291.8h15.1c13.7,0,24.1,6,24.1,21c0,12.1-8.5,19.8-20.5,19.8H0V291.8z M14.8,320.3h0.9
			c4.9,0,8.7-2.3,8.7-7.6c0-5.7-3.3-8.2-8.7-8.2h-0.9V320.3z"/>
		<path fill="#3C5D8F" d="M44,291.8h17.9c9.2,0,17,3.9,17,14.1c0,6.2-2.4,8.7-7.9,10.6v0.3c0.8,0.6,1.7,1.2,2.5,2.4l8.9,13.2H65.2
			l-6.5-13.1h-0.3v13.1H44V291.8z M58.5,309.9h1c2.4,0,4.9-0.4,4.9-3.4c0-3.1-2.2-3.5-4.8-3.5h-1.1V309.9z"/>
		<path fill="#3C5D8F" d="M121.8,291.8v24.1c0,11.9-7.5,17.3-18.8,17.3c-11.4,0-18.8-5.4-18.8-17.3v-24.1h14.8v22.7c0,3.2,0.1,6,4,6
			s4-2.8,4-6v-22.7H121.8z"/>
		<path fill="#3C5D8F" d="M127.8,291.8h18.7c9.5,0,16.5,4.9,16.5,15c0,8.3-5.2,13.5-13.4,13.5h-7.6v12.3h-14.3V291.8z M142.1,310
			h1.5c2.6,0,5.4-0.4,5.4-3.7c0-3.2-3-3.3-5.5-3.3h-1.4V310z"/>
		<path fill="#3C5D8F" d="M174.3,332.5h-15.7l14.1-40.7h16.4l14.5,40.7H188l-1.4-5.1h-11.2L174.3,332.5z M184,317.8l-1.7-7.2
			c-0.4-1.7-0.7-3.5-1-5.2h-0.5l-2.7,12.4H184z"/>
		<path fill="#3C5D8F" d="M206.2,291.8H221v27.6h12.4v13.1h-27.2V291.8z"/>
		<path fill="#3C5D8F" d="M261.3,318l0.8,0.6c2.6,2.1,5.8,3.7,9.2,3.7c1.5,0,3.8-0.6,3.8-2.4s-1.9-2-3.3-2.3l-3-0.5
			c-5.8-1-10.6-4.4-10.6-10.8c0-9.7,8.8-15.1,17.7-15.1c4.6,0,8.9,1.1,12.9,3.6l-4,10.4c-2.5-1.7-5.4-3.1-8.6-3.1
			c-1.3,0-3.2,0.5-3.2,2.2c0,1.5,1.8,1.7,3,2l3.3,0.8c6.3,1.4,10.8,4.8,10.8,11.7c0,9.7-8.9,14.5-17.7,14.5
			c-5.1,0-11.1-1.4-15.7-3.7L261.3,318z"/>
		<path fill="#3C5D8F" d="M331.6,291.8v24.1c0,11.9-7.5,17.3-18.8,17.3c-11.4,0-18.8-5.4-18.8-17.3v-24.1h14.8v22.7c0,3.2,0.1,6,4,6
			c3.9,0,4-2.8,4-6v-22.7H331.6z"/>
		<path fill="#3C5D8F" d="M342.5,291.8h15.2l5.6,21.4h0.4c0.3-1.8,0.5-3.7,1-5.4l4.6-16h15.1l6.7,40.7h-14.3l-2-22.3h-0.3
			c-0.3,1.4-0.5,2.8-1,4.1l-5.9,18.3H359l-5.3-17.2c-0.4-1.7-0.8-3.3-0.9-5.1h-0.5c-0.1,1.6-0.2,3.3-0.4,4.9l-1.7,17.4h-14.3
			L342.5,291.8z"/>
		<path fill="#3C5D8F" d="M400.4,291.8h15.2l5.6,21.4h0.4c0.3-1.8,0.5-3.7,1-5.4l4.6-16h15.1l6.7,40.7h-14.3l-2-22.3h-0.3
			c-0.3,1.4-0.5,2.8-1,4.1l-5.9,18.3h-8.6l-5.3-17.2c-0.4-1.7-0.8-3.3-0.9-5.1h-0.5c-0.1,1.6-0.2,3.3-0.4,4.9l-1.7,17.4h-14.3
			L400.4,291.8z"/>
		<path fill="#3C5D8F" d="M453.5,291.8h14.8v40.7h-14.8V291.8z"/>
		<path fill="#3C5D8F" d="M471.9,291.8H503v13.2l-8.2-0.4v27.9H480v-27.9l-8.2,0.4V291.8z"/>
	</g>
</g>
</svg>
