<?xml version="1.0" encoding="utf-8"?>
<!-- Generator: Adobe Illustrator 18.0.0, SVG Export Plug-In . SVG Version: 6.00 Build 0)  -->
<!DOCTYPE svg PUBLIC "-//W3C//DTD SVG 1.1//EN" "http://www.w3.org/Graphics/SVG/1.1/DTD/svg11.dtd">
<svg version="1.1" id="Layer_1" xmlns="http://www.w3.org/2000/svg" xmlns:xlink="http://www.w3.org/1999/xlink" x="0px" y="0px"
	 viewBox="0 0 273.1 129.3" enable-background="new 0 0 273.1 129.3" xml:space="preserve">
<g>
	<path fill="#FFFFFF" d="M56.3,74.7c0.2,0,0.4,0,0.5,0.1c0,0-0.1-0.1-0.1-0.1C56.6,74.7,56.5,74.7,56.3,74.7z"/>
	<path fill="#FFFFFF" d="M80.4,72.8C80.5,72.8,80.5,72.8,80.4,72.8C80.5,72.8,80.5,72.8,80.4,72.8C80.5,72.8,80.5,72.8,80.4,72.8z"
		/>
	<path fill="#FFFFFF" d="M100.2,72.9c0.1,0,0.1,0.1,0.2,0.1c0-0.1-0.1-0.1-0.1-0.2C100.3,72.9,100.3,72.9,100.2,72.9z"/>
	<path fill="#FFFFFF" d="M171.7,72.9c0.1,0.1,0.2,0.3,0.3,0.4c0.3,0.3,0.5,0.5,0.8,0.7c0-0.2,0-0.3,0-0.4
		C172.4,73.4,172,73.2,171.7,72.9z"/>
	<path fill="#FFFFFF" d="M220.1,74.6c0.3,0.3,0.6,0.5,0.9,0.8c-0.2-0.3-0.5-0.5-0.8-0.8C220.1,74.6,220.1,74.6,220.1,74.6z"/>
	<path fill="#FFFFFF" d="M128.9,53.8c0.3-0.3,0.6-0.5,0.9-0.7c-0.4,0-0.9-0.1-1.3-0.2C128.8,53.2,128.9,53.5,128.9,53.8z"/>
	<path fill="#FFFFFF" d="M144.1,53.8c0-0.3,0.2-0.6,0.4-0.9c-0.4,0.1-0.9,0.1-1.3,0.2C143.5,53.3,143.8,53.5,144.1,53.8z"/>
	<g>
		<path fill="#FFFFFF" d="M165.8,60.6c-0.2-0.3-0.5-0.5-0.8-0.6c-0.5,0-0.8,0.3-0.9,0.7c-5.6-0.2-11.2-0.3-16.8-0.4
			c-0.1-0.4-0.3-0.8-0.6-1.1c-0.6-0.7-1.7-1-2.6-0.6c-0.9,0.3-1.6,1.1-2.3,1.8c-0.6,0.7-1.3,1.4-2.1,1.6c-0.8,0.3-1.7,0.1-2.2-0.5
			c-0.5-0.6-0.7-1.4-0.4-2c0.2-0.6,0.8-1,1.4-1c0.6,0,1.1,0.3,1.2,0.8c0.2,0.4,0.1,0.9-0.2,1.1c-0.2,0.2-0.5,0.3-0.7,0.3
			c-0.2,0-0.3,0-0.3,0c0,0,0.1,0.1,0.3,0.1c0.2,0,0.5,0,0.8-0.3c0.3-0.3,0.4-0.8,0.3-1.3c-0.2-0.5-0.8-1-1.5-1
			c-0.7,0-1.5,0.4-1.7,1.2c-0.3,0.8-0.1,1.7,0.5,2.4c0.6,0.7,1.7,1,2.6,0.6c0.9-0.3,1.6-1,2.3-1.7c0.6-0.7,1.3-1.4,2.1-1.7
			c0.8-0.3,1.7-0.1,2.2,0.5c0.5,0.6,0.7,1.4,0.4,2c-0.2,0.6-0.8,1-1.4,1c-0.6,0-1.1-0.3-1.2-0.8c-0.2-0.4-0.1-0.9,0.2-1.1
			c0.2-0.2,0.5-0.3,0.7-0.3c0.2,0,0.3,0,0.3,0c0,0-0.1-0.1-0.3-0.1c-0.2,0-0.5,0-0.8,0.3c-0.3,0.3-0.4,0.8-0.3,1.3
			c0.2,0.5,0.8,1,1.5,1c0.7,0,1.5-0.4,1.7-1.2c0.1-0.3,0.2-0.6,0.1-0.9c5.6,0.1,11.2,0.2,16.8,0.4c0.1,0.4,0.4,0.8,0.9,0.8
			c0.4,0,0.7-0.3,0.9-0.7c0.1-0.2,0.1-0.1,0.3-0.2C166,60.9,166,60.8,165.8,60.6z"/>
		<path fill="#FFFFFF" d="M134.6,58.2c-0.7,0-1.3,0.4-1.5,1c-0.2,0.5,0,1,0.3,1.3c0.3,0.3,0.6,0.3,0.8,0.3c0.2,0,0.3-0.1,0.3-0.1
			c0,0-0.1,0-0.3,0c-0.2,0-0.5-0.1-0.7-0.3c-0.2-0.2-0.3-0.7-0.2-1.1c0.2-0.4,0.6-0.8,1.2-0.8c0.6,0,1.2,0.4,1.4,1
			c0.2,0.6,0.1,1.5-0.4,2c-0.5,0.6-1.4,0.8-2.2,0.5c-0.8-0.3-1.5-1-2.1-1.7c-0.7-0.7-1.4-1.4-2.3-1.7c-0.9-0.4-2,0-2.6,0.7
			c-0.3,0.3-0.5,0.7-0.6,1.1c-5.8,0.1-11.5,0.2-17.3,0.4c-0.1-0.4-0.4-0.7-0.9-0.7c-0.4,0-0.7,0.3-0.9,0.7c-0.1,0.2-0.1,0.2-0.3,0.3
			c0.2,0.1,0.2,0.1,0.4,0.4c0.2,0.3,0.5,0.5,0.8,0.5c0.4,0,0.8-0.3,0.9-0.8c5.8-0.2,11.5-0.3,17.3-0.4c0,0.3,0,0.6,0.1,0.9
			c0.3,0.8,1.1,1.2,1.7,1.2c0.7,0,1.3-0.5,1.5-1c0.2-0.5,0-1-0.3-1.3c-0.3-0.3-0.6-0.3-0.8-0.3c-0.2,0-0.3,0.1-0.3,0.1
			c0,0,0.1,0,0.3,0c0.2,0,0.5,0.1,0.7,0.3c0.2,0.2,0.3,0.7,0.2,1.1c-0.2,0.4-0.6,0.8-1.2,0.8c-0.6,0-1.2-0.4-1.4-1
			c-0.2-0.6-0.1-1.5,0.4-2c0.5-0.6,1.4-0.8,2.2-0.5c0.8,0.3,1.5,0.9,2.1,1.6c0.6,0.7,1.3,1.4,2.3,1.8c0.9,0.4,2,0.1,2.6-0.6
			c0.6-0.7,0.8-1.7,0.5-2.4C136.1,58.6,135.3,58.1,134.6,58.2z"/>
	</g>
	<g>
		<path fill="#FFFFFF" d="M4.1,123.9c-0.3-0.1-0.5-0.2-0.8-0.3C3,124.5,2.6,125.3,2,126c-0.6,0.7-1.3,1.3-2,1.8
			c0.8,0,1.7,0.1,2.7,0.3c0.9,0.2,1.9,0.6,2.7,1.3c0.2-0.3,1.8-2.1,2.7-3.1c18.8-2.9,37.6-5.1,56.4-6.8c0-0.3,0-0.5,0-0.8
			c-18.8,1.6-37.6,3.9-56.3,6.7C7.1,125,4.3,124,4.1,123.9z"/>
		<path fill="#FFFFFF" d="M271.1,126c-0.6-0.7-1.1-1.5-1.3-2.4c-0.3,0.1-0.5,0.2-0.8,0.3c-0.2,0.1-3,1.2-4.1,1.6
			c-18.7-2.9-37.6-5.1-56.4-6.7c0,0.3,0,0.5,0,0.8c18.9,1.6,37.7,3.9,56.5,6.8c0.9,1,2.5,2.8,2.6,3.1c0.9-0.6,1.8-1.1,2.7-1.3
			c0.9-0.2,1.8-0.3,2.7-0.3C272.4,127.3,271.7,126.7,271.1,126z"/>
	</g>
	<path fill="#FFFFFF" d="M271.1,65.3c-0.6-0.7-1.1-1.5-1.3-2.4c-0.3,0.1-0.5,0.2-0.8,0.3c-0.2,0.1-3.1,1.2-4.1,1.6
		c-27.7-4.3-55.6-7.1-83.4-8.6c0.1,0,0.1-0.1,0.2-0.1c0.7-0.6,1-1.6,0.9-2.4c-0.1-0.8-0.6-1.6-1.4-1.9c-0.7-0.3-1.5-0.1-2,0.4
		c-0.5,0.5-0.6,1.3-0.3,1.8c0.3,0.5,1,0.7,1.4,0.5c0.5-0.2,0.6-0.7,0.4-1.1c-0.2-0.4-0.6-0.4-0.8-0.3c-0.2,0.1-0.3,0.4-0.2,0.5
		c0,0.1,0.1,0.2,0.1,0.2c0,0,0-0.1-0.1-0.2c0-0.1,0-0.3,0.2-0.4c0.2-0.1,0.5,0,0.6,0.3c0.1,0.3,0,0.7-0.4,0.8
		c-0.4,0.2-0.9,0-1.1-0.4c-0.2-0.4-0.2-1,0.2-1.4c0.4-0.4,1.1-0.5,1.7-0.3c0.6,0.2,1,0.9,1.1,1.6c0.1,0.7-0.2,1.5-0.8,2
		c-0.6,0.5-1.4,0.8-2.3,0.7c-1.8-0.1-3.1-1.9-3.1-3.9c0-1,0.3-2,1-2.8c0.6-0.8,1.6-1.3,2.6-1.5c1.4-0.2,2.7,0.1,4.1,0.6
		c-0.4,0.1-0.8,0.3-1,0.6c-0.5,0.6-0.6,1.5-0.1,2.1c0.2,0.3,0.6,0.4,0.9,0.4c0.4,0,0.7-0.2,0.9-0.4c0.2-0.3,0.2-0.6,0.1-0.9
		c-0.1-0.3-0.4-0.4-0.7-0.4c-0.3,0-0.5,0.2-0.5,0.4c-0.1,0.2,0.1,0.5,0.3,0.5c0.2,0.1,0.4,0,0.4-0.2c0.1-0.1-0.1-0.3-0.2-0.3
		c-0.2,0-0.2,0.2-0.2,0.2c0,0,0-0.1,0.2-0.1c0.2,0,0.1,0.4-0.2,0.3c-0.3-0.1-0.2-0.6,0.2-0.6c0.2,0,0.4,0.1,0.4,0.3
		c0.1,0.2,0,0.4-0.1,0.6c-0.3,0.4-0.9,0.4-1.3,0c-0.4-0.4-0.3-1.2,0.1-1.6c0.4-0.5,1.2-0.6,1.8-0.2c0.6,0.4,0.9,1.2,1.2,1.9
		c0.3,0.8,0.6,1.6,1.3,2.1c0.6,0.5,1.3,0.5,1.9,0.2c-0.1,0.3-0.1,0.6,0,0.9c0.2,0.8,0.9,1.4,1.6,1.6c0.8,0.1,1.4-0.5,1.4-1.1
		c0-0.6-0.6-0.9-0.9-0.8c-0.3,0.1-0.3,0.4-0.3,0.4c0,0,0.1-0.2,0.3-0.2c0.2-0.1,0.6,0.2,0.5,0.6c-0.1,0.4-0.5,0.8-1.1,0.7
		c-0.6-0.1-1.1-0.6-1.2-1.3c-0.1-0.6,0.2-1.3,0.6-1.8c0.4-0.5,0.9-0.8,1.3-0.9c0.1,0,0.2-0.1,0.3-0.1c0.4,0,0.7,0,1.1,0
		c1.2-0.1,2.3-0.6,3.1-1.5c0.8-0.8,1.2-1.9,1.3-3c0.1-1.1-0.3-2.2-0.8-3c-0.6-0.9-1.5-1.4-2.5-1.6c-1-0.1-1.9,0.2-2.7,0.7
		c-0.7,0.6-1.1,1.5-1,2.3c0.1,0.8,0.5,1.6,1.3,1.9c0.7,0.3,1.5,0.2,2-0.3c0.6-0.4,0.6-1.2,0.4-1.7c-0.2-0.6-0.9-0.8-1.4-0.6
		c-0.5,0.2-0.7,0.7-0.5,1.1c0.1,0.4,0.6,0.5,0.8,0.4c0.2-0.1,0.3-0.4,0.3-0.5c0-0.1-0.1-0.2-0.1-0.2c0,0,0,0.1,0,0.2
		c0,0.1,0,0.3-0.2,0.4c-0.2,0.1-0.5,0-0.6-0.3c-0.1-0.3,0-0.7,0.4-0.8c0.4-0.1,0.9,0,1,0.5c0.2,0.4,0.1,1-0.3,1.4
		c-0.4,0.3-1.1,0.5-1.7,0.2c-0.6-0.3-1-0.9-1-1.7c-0.1-0.7,0.3-1.5,0.9-2c0.6-0.5,1.5-0.7,2.3-0.6c1.7,0.2,3,2.1,2.9,4.1
		c-0.1,1-0.5,1.9-1.1,2.7c-0.7,0.8-1.7,1.2-2.7,1.3c-2.2,0.2-4.4-0.8-6.5-1.8c-1.1-0.5-2.2-1-3.4-1.3c0.3-0.1,0.7-0.3,1-0.6
		c0.5-0.5,0.9-1.2,0.9-2.1c-0.1-0.8-0.7-1.5-1.4-1.7c-0.8-0.2-1.4,0.4-1.5,1c-0.1,0.6,0.5,1,0.8,0.9c0.3-0.1,0.3-0.4,0.3-0.3
		c0,0-0.1,0.2-0.3,0.2c-0.2,0-0.6-0.3-0.5-0.7c0.1-0.4,0.6-0.8,1.1-0.6c0.5,0.2,1.1,0.7,1.1,1.4c0.1,0.7-0.3,1.3-0.7,1.7
		c-0.4,0.4-0.9,0.6-1.3,0.8c-0.9-0.2-1.9-0.3-2.8-0.2c-1.2,0.2-2.3,0.8-3,1.7c-0.7,0.9-1.1,2-1.1,3.1c0,1.1,0.4,2.1,1,2.9
		c0.6,0.8,1.6,1.3,2.6,1.4c0.4,0,2.6,0,2.6,0c27.9,1.5,55.7,4.4,83.4,8.6c0.9,1,2.5,2.8,2.6,3.1c0.9-0.6,1.8-1.1,2.7-1.3
		c0.9-0.2,1.8-0.3,2.7-0.3C272.4,66.5,271.7,66,271.1,65.3z M190.1,52.2c0-0.3-0.1-0.5-0.3-0.8c0.4,0.1,0.7,0.2,1.1,0.2
		C190.6,51.8,190.3,51.9,190.1,52.2z M188.4,51c-0.2,0.1-0.3,0.2-0.4,0.3c-0.2,0.2-0.3,0.6-0.2,0.9c0.1,0.3,0.4,0.4,0.6,0.5
		c0.3,0,0.5-0.2,0.6-0.4c0.1-0.2-0.1-0.5-0.2-0.5c-0.2-0.1-0.4,0-0.4,0.2c-0.1,0.1,0,0.3,0.1,0.3c0.2,0,0.2-0.2,0.2-0.1
		c0,0,0,0.1-0.2,0.1c-0.2,0,0-0.4,0.2-0.3c0.3,0.1,0.1,0.6-0.2,0.6c-0.2,0-0.4-0.1-0.4-0.3c-0.1-0.2,0-0.4,0.1-0.6
		c0.3-0.4,1-0.3,1.3,0.1c0.3,0.3,0.3,0.7,0.1,1.1c-0.1,0.1-0.1,0.2-0.2,0.3c0,0.1-0.1,0.1-0.1,0.2c-0.5,0.5-1.3,0.5-1.8,0.1
		c-0.6-0.5-0.9-1.2-1.2-2c-0.2-0.6-0.5-1.2-1-1.7c0.2,0.1,0.5,0.2,0.7,0.3C186.8,50.3,187.6,50.7,188.4,51z"/>
	<path fill="#FFFFFF" d="M96.4,49.4c-0.7-0.9-1.8-1.5-3-1.7c-0.9-0.1-1.9,0-2.8,0.2c-0.4-0.1-0.9-0.4-1.3-0.8
		c-0.4-0.4-0.8-1.1-0.7-1.7c0.1-0.7,0.6-1.2,1.1-1.4c0.5-0.2,1,0.2,1.1,0.6c0.1,0.4-0.3,0.7-0.5,0.7c-0.2,0-0.3-0.2-0.3-0.2
		c0,0,0,0.2,0.3,0.3c0.3,0.1,0.9-0.2,0.8-0.9c-0.1-0.6-0.7-1.1-1.5-1c-0.7,0.2-1.4,0.8-1.4,1.7c-0.1,0.9,0.4,1.6,0.9,2.1
		c0.3,0.3,0.7,0.5,1,0.6c-1.2,0.3-2.3,0.8-3.4,1.3c-2.1,1-4.3,1.9-6.5,1.8c-1.1-0.1-2-0.6-2.7-1.3c-0.7-0.7-1.1-1.7-1.1-2.7
		c-0.1-1.9,1.1-3.9,2.9-4.1c0.8-0.1,1.7,0.1,2.3,0.6c0.6,0.5,0.9,1.2,0.9,2c-0.1,0.7-0.4,1.4-1,1.7c-0.6,0.3-1.3,0.2-1.7-0.2
		c-0.4-0.3-0.5-1-0.3-1.4c0.2-0.5,0.7-0.6,1-0.5c0.4,0.1,0.5,0.5,0.4,0.8c-0.1,0.3-0.4,0.4-0.6,0.3C80,46.3,80,46.1,80,46
		c0-0.1,0.1-0.2,0-0.2c0,0-0.1,0-0.1,0.2c0,0.1,0,0.4,0.3,0.5c0.2,0.1,0.6,0,0.8-0.4c0.2-0.3,0-0.9-0.5-1.1c-0.4-0.2-1.1,0-1.4,0.6
		c-0.3,0.5-0.2,1.3,0.4,1.7c0.5,0.4,1.3,0.6,2,0.3c0.7-0.3,1.2-1.1,1.3-1.9c0.1-0.8-0.3-1.8-1-2.3c-0.7-0.6-1.7-0.8-2.7-0.7
		c-1,0.1-1.9,0.7-2.5,1.6c-0.6,0.8-0.9,1.9-0.8,3c0.1,1.1,0.5,2.2,1.3,3c0.8,0.9,1.9,1.4,3.1,1.5c0.4,0,0.7,0,1.1,0
		c0.1,0,0.2,0,0.3,0.1c0.4,0.1,0.9,0.4,1.3,0.9c0.4,0.5,0.7,1.1,0.6,1.8c-0.1,0.7-0.7,1.2-1.2,1.3c-0.5,0.1-1-0.3-1.1-0.7
		c-0.1-0.4,0.3-0.7,0.5-0.6c0.2,0,0.3,0.2,0.3,0.2c0,0,0.1-0.2-0.3-0.4c-0.3-0.1-0.9,0.2-0.9,0.8c0,0.6,0.6,1.2,1.4,1.1
		c0.7-0.1,1.4-0.7,1.6-1.6c0.1-0.3,0-0.6,0-0.9c0.6,0.3,1.4,0.3,1.9-0.2c0.7-0.5,1-1.4,1.3-2.1c0.3-0.8,0.7-1.5,1.2-1.9
		c0.6-0.4,1.4-0.3,1.8,0.2c0.4,0.5,0.5,1.2,0.1,1.6c-0.4,0.4-1.1,0.5-1.3,0c-0.1-0.2-0.2-0.4-0.1-0.6c0.1-0.2,0.3-0.3,0.4-0.3
		c0.4,0,0.5,0.5,0.2,0.6c-0.3,0.1-0.3-0.2-0.2-0.3c0.1,0,0.2,0.1,0.2,0.1c0,0,0-0.2-0.2-0.2c-0.1,0-0.2,0.2-0.2,0.3
		c0,0.1,0.2,0.3,0.4,0.2c0.2,0,0.3-0.3,0.3-0.5c0-0.2-0.3-0.4-0.5-0.4c-0.3,0-0.5,0.1-0.7,0.4c-0.1,0.3-0.1,0.6,0.1,0.9
		c0.2,0.3,0.5,0.4,0.9,0.4c0.3,0,0.7-0.2,0.9-0.4c0.5-0.6,0.4-1.5-0.1-2.1c-0.3-0.3-0.6-0.5-1-0.6c1.4-0.5,2.8-0.8,4.1-0.6
		c1.1,0.2,2,0.6,2.6,1.5c0.6,0.8,1,1.8,1,2.8c0,1.9-1.4,3.8-3.1,3.9c-0.9,0.1-1.7-0.2-2.3-0.7c-0.6-0.5-0.9-1.3-0.8-2
		c0.1-0.7,0.5-1.4,1.1-1.6c0.6-0.2,1.3-0.1,1.7,0.3c0.4,0.4,0.5,1,0.2,1.4c-0.2,0.4-0.7,0.6-1.1,0.4c-0.4-0.1-0.5-0.5-0.4-0.8
		c0.1-0.3,0.4-0.4,0.6-0.3c0.2,0.1,0.2,0.3,0.2,0.4c0,0.1-0.1,0.2-0.1,0.2c0,0,0.1,0,0.1-0.2c0-0.1,0-0.4-0.2-0.5
		c-0.2-0.1-0.6-0.1-0.8,0.3c-0.2,0.3,0,0.9,0.4,1.1c0.4,0.2,1.1,0,1.4-0.5c0.3-0.5,0.3-1.3-0.3-1.8c-0.5-0.5-1.3-0.7-2-0.4
		c-0.7,0.3-1.2,1-1.4,1.9c-0.1,0.8,0.2,1.8,0.9,2.4c0.1,0.1,0.1,0.1,0.2,0.1c-27.8,1.5-55.6,4.4-83.3,8.6c-1.1-0.4-3.9-1.5-4.1-1.6
		c-0.3-0.1-0.5-0.2-0.8-0.3C3,63.8,2.6,64.6,2,65.3C1.3,66,0.7,66.5,0,67c0.8,0,1.7,0.1,2.7,0.3c0.9,0.2,1.9,0.6,2.7,1.3
		c0.2-0.3,1.8-2.1,2.7-3.1c27.9-4.3,55.9-7.2,83.9-8.7c0,0,1.6,0,1.9,0c1-0.1,2-0.6,2.6-1.4c0.6-0.8,1-1.9,1-2.9
		C97.5,51.4,97.1,50.3,96.4,49.4z M81.9,51.7c0.4-0.1,0.7-0.1,1.1-0.2c-0.2,0.2-0.3,0.5-0.3,0.8C82.5,51.9,82.2,51.8,81.9,51.7z
		 M86.6,51.3c-0.3,0.8-0.6,1.5-1.2,2c-0.5,0.5-1.4,0.4-1.8-0.1c0,0-0.1-0.1-0.1-0.2c-0.1-0.1-0.1-0.2-0.2-0.3
		c-0.2-0.4-0.2-0.8,0.1-1.1c0.3-0.5,1-0.5,1.3-0.1c0.1,0.2,0.2,0.4,0.1,0.6c-0.1,0.2-0.2,0.3-0.4,0.3c-0.4,0-0.5-0.5-0.2-0.6
		c0.2-0.1,0.4,0.2,0.2,0.3c-0.1,0.1-0.2-0.1-0.2-0.1c0,0,0,0.2,0.2,0.1c0.1,0,0.2-0.2,0.1-0.3c0-0.1-0.3-0.3-0.4-0.2
		c-0.2,0.1-0.3,0.3-0.2,0.5c0.1,0.2,0.3,0.4,0.6,0.4c0.3,0,0.5-0.2,0.6-0.5c0.1-0.3,0-0.6-0.2-0.9c-0.1-0.1-0.2-0.2-0.4-0.3
		c0.8-0.3,1.6-0.7,2.4-1c0.2-0.1,0.5-0.2,0.7-0.3C87.1,50.1,86.8,50.7,86.6,51.3z"/>
	<g>
		<path fill="#FFFFFF" d="M24.2,99.8c-0.1-2.4-0.2-4.8-0.3-7.1c-0.1-2.3-0.1-4.3-0.1-6c0-1.7-0.1-3.1-0.1-4.2c0-1,0-1.6,0-1.6
			c-0.1-1.5-0.9-2.4-2.3-2.8c0.2,0,0.5,0,0.7-0.1c0.2,0,0.5-0.1,0.7-0.1c1.1-0.2,2.1-0.3,3.1-0.6c0.9-0.2,1.8-0.5,2.5-0.7
			c0.8-0.2,1.5-0.4,2.1-0.6c0.6-0.2,1.2-0.3,1.8-0.4c0.3,0,0.6,0,0.9,0c-1.5,1.3-2.6,2.6-3.4,3.9c-0.8,1.4-1.2,2.8-1.2,4.4
			c0,1.8,0.6,3.9,1.8,6c-0.6,1.5-1,3.1-1.4,4.8c-0.4,1.7-0.5,3.4-0.5,5.1c0,0.7,0,1.5,0.1,2.5c0.1,0.9,0.2,1.8,0.4,2.7
			c0.7,0.7,1.4,1.2,2,1.6c0.6,0.4,1.1,0.6,1.6,0.8c0.5,0.2,0.9,0.3,1.3,0.3c0.4,0,0.8,0,1.2,0c-0.3-0.8-0.6-1.6-1-2.3
			c0.8,0.4,1.7,0.7,2.5,1c0.8,0.3,1.7,0.6,2.6,0.8c0.9,0.2,1.8,0.4,2.8,0.4c1,0.1,2,0.1,3.1-0.1c0.7-0.1,1.5-0.2,2.3-0.3
			c0.8-0.1,1.7-0.3,2.6-0.5c-2.2,1.1-4.2,1.9-6.2,2.5c-1.9,0.6-3.7,1-5.5,1.2c-2.2,0.3-4.2,0.2-6-0.2c-1.8-0.4-3.6-1-5.1-1.9
			c-1.6-0.9-3-1.9-4.3-3.1c-1.3-1.2-2.5-2.5-3.6-3.9c-1.1-1.4-2-2.8-2.9-4.2c-0.9-1.4-1.6-2.8-2.3-4.1c0,1.3,0,2.5,0,3.8
			c0,1.5,0,2.8,0.1,3.9c0.1,1,0.3,1.9,0.5,2.7c0.2,0.7,0.5,1.4,0.9,1.9c0.3,0.5,0.8,1.1,1.3,1.6c-0.5-0.1-1-0.2-1.4-0.2
			c-0.4-0.1-0.8-0.2-1.2-0.3c-0.4-0.1-0.8-0.3-1.2-0.6c-0.4-0.2-0.9-0.5-1.4-0.9c-0.7,1.3-1.6,2.5-2.7,3.5c-1.1,1-2.6,2-4.5,2.9
			c0.7-0.8,1.4-1.8,2.1-2.8c0.6-1,1.2-2.1,1.7-3.2c0.5-1.1,0.9-2.2,1.2-3.4c0.3-1.1,0.4-2.3,0.4-3.4c0-1-0.1-2-0.4-3
			c-0.3-0.9-0.7-1.8-1.3-2.6c1.2-2.5,1.8-4.7,1.8-6.5c0-1.6-0.4-2.9-1.2-4.1c-0.8-1.1-1.9-2.1-3.4-3c0.2-0.1,0.5-0.2,0.9-0.2
			c0.5-0.1,1.1-0.1,1.7-0.1c0.6,0,1.3,0,2.1,0c0.8,0,1.6,0,2.4,0c0.9,0,1.8-0.1,2.8-0.2c0.2,0,0.5-0.1,0.7-0.1
			c0.2,0,0.5-0.1,0.7-0.1c-1.3,0.7-2.1,1.7-2.3,3.1c0.4,1.1,1,2.3,1.6,3.6c0.6,1.4,1.3,2.8,2.1,4.3c0.8,1.5,1.6,3,2.5,4.6
			c0.9,1.5,1.9,3,2.9,4.3C23.7,99.1,24,99.4,24.2,99.8z"/>
		<path fill="#FFFFFF" d="M35.2,103.2c0.4-0.3,0.7-0.7,1-1.4c0.3-0.7,0.5-1.4,0.7-2.2c0.2-0.8,0.4-1.7,0.5-2.5
			c0.1-0.9,0.1-1.7,0.1-2.4c0-1.1-0.1-2.2-0.4-3.2c-0.2-1-0.6-1.7-1-2.2c0.4-0.4,0.7-1,1-1.7c0.3-0.7,0.5-1.4,0.6-2.2
			c0.1-0.8,0.2-1.6,0.3-2.4c0-0.8,0.1-1.6,0.1-2.2c0-0.6,0-1.1,0-1.5c0-0.4,0-0.7-0.1-1c-0.6-0.1-1.2-0.5-1.8-1
			c-0.6-0.5-1.1-1.2-1.4-1.9c1.6,0,3.1-0.1,4.5-0.2c1.4-0.1,2.8-0.2,4-0.4c2.7-0.3,4.9-0.6,6.6-1c1.7-0.3,3-0.6,4-0.7
			c0.2,0,0.4,0,0.5,0c0.1,0,0.3,0,0.4,0c-0.1,0.3-0.3,0.8-0.5,1.5c-0.2,0.7-0.3,1.5-0.5,2.4c-0.1,0.9-0.3,1.7-0.4,2.5
			c-0.1,0.8-0.2,1.4-0.2,1.8c-0.1,0-0.2,0.1-0.3,0.1c-0.9-0.4-1.5-0.9-1.9-1.5c-0.4-0.6-0.7-1.3-0.9-2.1c-0.3-0.2-0.8-0.4-1.3-0.4
			c-0.5,0-1.2,0-2,0.1c-0.6,0.1-1.3,0.1-1.9,0.2c-0.6,0.1-1.1,0.2-1.4,0.2c-0.2,1-0.3,2.2-0.4,3.6c-0.1,1.4-0.2,2.9-0.2,4.5
			c0.3,0,0.7,0,1.1,0c0.4,0,0.6-0.1,0.8-0.1c0.5-0.1,1-0.3,1.5-0.8c0.5-0.5,1-1,1.5-1.7c0.1,0.3,0.2,0.6,0.4,1
			c0.1,0.4,0.3,0.7,0.4,1.1c0.2,0.4,0.3,0.7,0.5,1c0.2,0.3,0.4,0.6,0.7,0.7c-0.2,0.2-0.4,0.6-0.7,0.9c-0.2,0.4-0.4,0.8-0.6,1.2
			c-0.2,0.4-0.4,0.8-0.5,1.2c-0.2,0.4-0.3,0.8-0.4,1.1c-0.1-0.3-0.3-0.5-0.5-0.8c-0.2-0.3-0.4-0.6-0.6-0.8c-0.2-0.2-0.5-0.5-0.7-0.6
			c-0.3-0.2-0.5-0.2-0.8-0.2c-0.2,0-0.5,0.1-1,0.1c-0.4,0.1-0.8,0.2-1.2,0.3c0,0.2,0,0.4,0,0.7c0,1.6,0,3.1,0.1,4.5
			c0,1.4,0.1,2.6,0.2,3.7c2.1,0,4.2,0,6.3,0c0.3-1.6,1-3,1.8-4.3c0.9-1.3,1.8-2.5,2.9-3.8c0.1,0,0.1,0,0.2,0.1
			c-0.1,0.6-0.1,1.1-0.1,1.7c0,0.6,0,1.1,0,1.6c0,1.3,0.1,2.5,0.2,3.5c0.1,1,0.3,1.8,0.4,2.3c-0.4,0.1-0.8,0.2-1.2,0.3
			c-0.4,0.1-0.9,0.3-1.3,0.6c-0.5,0.2-1,0.6-1.5,1c-0.5,0.4-1.1,0.9-1.8,1.5c-2.1-0.4-4.2-0.6-6.2-0.7c-2-0.1-3.9,0-5.5,0.2
			c-0.8,0.1-1.5,0.3-2.2,0.6C35.2,103.3,35.2,103.3,35.2,103.2z"/>
		<path fill="#FFFFFF" d="M78.8,102.3c-0.5-0.6-1.1-1.2-1.7-2c-0.6-0.7-1.1-1.5-1.7-2.2c-0.5-0.7-1-1.4-1.4-2
			c-0.4-0.6-0.7-1.1-0.9-1.5c-0.2,0.4-0.6,1-1,1.7c-0.4,0.8-0.9,1.6-1.4,2.4c-0.5,0.8-1,1.7-1.5,2.4c-0.5,0.8-0.9,1.4-1.2,1.9
			c-0.5-0.6-1.1-1.1-1.8-1.5c-0.6-0.4-1.3-0.8-2-1.2c-0.7-0.4-1.3-0.7-2-1c-0.6-0.3-1.2-0.6-1.8-0.9c0-0.3,0.1-0.9,0.2-1.7
			c0.1-0.8,0.2-1.7,0.2-2.6c0-1.2,0-2.5-0.1-4c-0.1-1.5-0.2-3-0.4-4.6c-0.2-1.5-0.4-3-0.7-4.5c-0.3-1.4-0.6-2.7-0.9-3.9
			c-0.4-1.1-0.8-2-1.2-2.7c-0.4-0.7-0.9-1-1.4-1c1-0.1,1.9-0.1,2.6-0.1c0.7,0,1.2,0.1,1.7,0.2c0.4,0.1,0.8,0.3,1.1,0.5
			c0.3,0.2,0.5,0.4,0.7,0.7c0.4-0.5,0.8-0.9,1.1-1.1c0.3-0.3,0.6-0.4,0.9-0.6c0.3-0.1,0.6-0.2,0.9-0.3c0.3-0.1,0.7-0.2,1.1-0.3
			c-0.3,0.4-0.5,0.9-0.7,1.5c-0.2,0.5-0.3,1-0.3,1.6c0,0.1,0,0.2,0,0.3c0,0.1,0,0.2,0,0.3c0.4,6.4,0.9,12.9,1.3,19.3
			c0.5,0.4,0.9,0.9,1.4,1.3c1-1.8,2-3.6,3-5.4c0-2.3,0-4.6,0-6.9c0-1.2,0-2.2-0.1-3c0-0.7-0.1-1.4-0.2-1.8c-0.1-0.5-0.3-0.9-0.5-1.2
			c-0.2-0.3-0.5-0.7-0.8-1.1c1.1-0.9,2-1.8,2.6-2.9c0.6-1.1,1-2.2,1.3-3.2c0.4,1,0.9,2,1.5,3.1c0.6,1,1.5,1.9,2.5,2.5
			c-0.2,0.3-0.5,0.6-0.7,0.9c-0.2,0.3-0.4,0.6-0.5,1.1c-0.1,0.4-0.3,1-0.3,1.6c-0.1,0.6-0.1,1.5-0.1,2.5c0,2.8,0,5.6,0,8.4
			c1.1,1.6,2.2,3.3,3.3,4.9c0.4-0.5,0.9-1,1.3-1.5c0.5-6.5,0.9-13,1.4-19.6c0-0.1,0-0.3,0.1-0.4c0-0.2,0-0.3,0-0.4
			c0-0.6-0.1-1.1-0.3-1.7c-0.2-0.5-0.6-0.8-1.1-1c0.4,0.1,0.9,0.2,1.3,0.2c0.4,0,0.9,0.1,1.3,0.1c0.4,0,0.8,0,1.2,0
			c0.4,0,0.7,0,1-0.1c0.6,0,1.1-0.1,1.6-0.2c0.5-0.1,1-0.2,1.5-0.3c0.5-0.1,1-0.2,1.6-0.3c0.5-0.1,1.2-0.2,1.9-0.2
			c-0.7,0.1-1.4,0.4-2.1,1c-0.6,0.6-1.2,1.3-1.6,2.2c-0.5,0.9-0.8,1.9-1.1,3c-0.3,1.1-0.4,2.2-0.4,3.3c0,1.8,0.4,3.3,1.2,4.6
			c-0.6,0.9-1.1,1.9-1.5,2.9c-0.4,1.1-0.5,2.2-0.5,3.3c0,0.9,0,1.7,0.1,2.6c0.1,0.9,0.2,1.7,0.4,2.5c-0.6,0.4-1.3,0.9-2,1.4
			c-0.7,0.5-1.4,1-2,1.5c-0.7,0.5-1.3,1-1.8,1.6C79.6,101.4,79.2,101.9,78.8,102.3z"/>
		<path fill="#FFFFFF" d="M101.2,84.4c0.3-0.4,0.6-0.8,0.9-1.4c0.3-0.5,0.5-1.1,0.7-1.8c0.2-0.6,0.4-1.3,0.5-2
			c0.1-0.7,0.2-1.4,0.2-2.1c0-1.1-0.2-2.2-0.5-3.2c-0.3-1-0.9-1.7-1.7-2.2c0.8-0.1,1.6-0.2,2.5-0.4c0.9-0.2,1.8-0.4,2.8-0.7
			c0.9-0.3,1.8-0.5,2.7-0.8c0.8-0.3,1.6-0.6,2.2-0.9c0.8,0.1,1.8,0.3,2.9,0.5c1.1,0.3,2.3,0.5,3.4,0.8c1.1,0.3,2.2,0.5,3.1,0.8
			c0.9,0.2,1.6,0.4,2,0.4c-0.3,0.6-0.6,1.3-0.7,2.2c-0.1,0.9-0.2,1.8-0.2,2.7c0,1.4,0.2,2.8,0.5,4.2c0.3,1.4,0.8,2.5,1.5,3.4
			c-0.6,0.8-1.1,1.8-1.5,3.2c-0.4,1.3-0.6,2.7-0.6,4.1c0,1.1,0.2,2.2,0.5,3.2c0.3,1,0.9,1.7,1.7,2.2c-0.8,0.1-1.6,0.2-2.6,0.3
			c-0.9,0.2-1.9,0.4-2.8,0.6c-0.9,0.2-1.8,0.5-2.7,0.8c-0.9,0.3-1.6,0.6-2.2,0.9c-0.8-0.1-1.8-0.2-2.9-0.5c-1.1-0.2-2.2-0.5-3.3-0.8
			c-1.1-0.3-2.1-0.5-3-0.7c-0.9-0.2-1.6-0.4-2-0.4c0.3-0.3,0.6-0.9,0.7-1.6c0.1-0.7,0.2-1.6,0.2-2.5c0-0.9-0.1-1.8-0.2-2.7
			c-0.1-1-0.3-1.8-0.4-2.6c-0.2-0.8-0.4-1.5-0.7-2C101.7,84.7,101.4,84.4,101.2,84.4z M107.9,93.4c0.4,0.2,0.9,0.4,1.2,0.6
			c0.4,0.2,0.8,0.4,1.1,0.5c0.4,0.2,0.8,0.3,1.3,0.4c0.4,0.1,1,0.2,1.5,0.3c1-0.6,1.9-0.9,2.5-1.1c0.6-0.2,1-0.3,1.2-0.5
			c0-2.4,0.1-4.9,0.1-7.6c0-2.7,0.1-5.2,0.1-7.6c0-0.6,0-1.2,0-1.8c0-0.6,0-1.2-0.1-1.8c-0.4-0.2-0.9-0.5-1.2-0.6
			c-0.4-0.2-0.8-0.4-1.1-0.5c-0.4-0.2-0.8-0.3-1.2-0.4c-0.4-0.1-0.9-0.2-1.5-0.3c-1,0.6-1.9,0.9-2.5,1.2c-0.6,0.2-1.1,0.4-1.3,0.5
			c0,0.6-0.1,1.4-0.1,2.3c0,0.9,0,1.8-0.1,2.9c0,1,0,2.1,0,3.2c0,1.1,0,2.2,0,3.3c0,1.1,0,2.3,0,3.6
			C107.9,91.3,107.9,92.4,107.9,93.4z"/>
		<path fill="#FFFFFF" d="M149.5,95.8c-1,0.7-1.9,1.6-2.5,2.7c-0.6,1.1-1.1,2.1-1.4,3.1c-0.1-0.5-0.3-1-0.5-1.6
			c-0.2-0.6-0.5-1.1-0.9-1.7c-0.4-0.5-0.8-1-1.2-1.5c-0.5-0.5-1-0.8-1.5-1.1c0.2-0.2,0.4-0.5,0.5-0.9c0.1-0.4,0.2-0.9,0.3-1.5
			c0.1-0.7,0.1-1.5,0.1-2.5c0-1,0.1-2.3,0.1-3.8c-0.1-0.1-0.4-0.3-1-0.7c-0.6-0.4-1.2-0.9-1.8-1.4c-0.9,0.5-1.7,1-2.6,1.5
			c-0.8,0.5-1.6,1-2.3,1.4c0.1,1.9,0.2,3.6,0.4,5.3c0.2,1.7,0.4,3.2,0.8,4.5c-0.6-0.3-1.2-0.5-1.7-0.7c-0.5-0.1-1-0.2-1.5-0.2
			c-0.4,0-0.8,0-1.3,0.1c-0.4,0.1-0.8,0.2-1.3,0.3c-0.4,0.1-0.9,0.2-1.4,0.3c-0.5,0.1-1,0.1-1.6,0.1c-0.1,0-0.3,0-0.4,0
			c-0.1,0-0.3,0-0.4,0c0.5-0.3,1-0.8,1.5-1.3c0.4-0.5,0.8-1.1,1.2-1.8c0.3-0.7,0.6-1.3,0.8-2.1c0.2-0.7,0.3-1.4,0.3-2.1
			c0-1.3-0.1-2.5-0.4-3.7c-0.3-1.2-0.8-2.2-1.4-3c0.7-1.3,1.2-2.5,1.4-3.7c0.2-1.2,0.4-2.3,0.4-3.5c0-0.7,0-1.4-0.1-2.2
			c-1-0.1-1.9-0.5-2.4-1.2c-0.6-0.6-0.8-1.6-0.8-3c1,0.2,1.9,0.4,2.6,0.4c0.7,0.1,1.4,0.1,2.1,0.1c0.4,0,0.8,0,1.3-0.1
			c0.5,0,1-0.1,1.5-0.3c0.5-0.2,1.1-0.4,1.7-0.7c0.6-0.3,1.3-0.7,2-1.3c0.3,0.2,0.8,0.5,1.6,0.9c0.8,0.4,1.8,0.7,2.9,1
			c1.1,0.3,2.3,0.6,3.5,0.9c1.2,0.2,2.4,0.4,3.5,0.4c0.3,0,0.7,0,1,0c0.3,0,0.7-0.1,1-0.1c-0.3,0.6-0.8,1.1-1.6,1.7
			c-0.8,0.6-1.7,1.1-2.7,1.4c-0.1,0.3-0.1,0.7-0.1,1.1c0,0.4,0,0.8,0.1,1.3c0,0.4,0.1,0.9,0.1,1.3c0.1,0.4,0.1,0.9,0.2,1.3
			c0.1,0.4,0.2,0.7,0.3,1c-0.2,0.1-0.7,0.3-1.3,0.6c-0.6,0.3-1.3,0.7-2.2,1.2c0.6,0.5,1.2,1.1,1.9,1.7c0.7,0.6,1.4,1.1,2.1,1.5
			c-0.1,0.3-0.2,0.7-0.3,1.4c-0.1,0.7-0.1,1.4-0.1,2.3c0,0.6,0,1.3,0.1,2c0,0.7,0.1,1.3,0.3,1.9c0.1,0.6,0.3,1.2,0.5,1.7
			C148.9,95.1,149.2,95.5,149.5,95.8z M141.9,74.1c-1.3-0.2-2.6-0.4-3.7-0.5c-1.1-0.2-2.3-0.4-3.4-0.6c-0.1,0.6-0.1,1.3-0.1,2
			c0,0.7,0,1.5,0,2.2c0,1,0,1.9,0,2.9c0,1,0,2,0,2.9c0.8-0.5,1.6-1,2.5-1.4c0.8-0.5,1.6-0.9,2.4-1.3c0.7-0.4,1.3-0.8,1.8-1
			c0.5-0.3,0.7-0.4,0.8-0.5C142,77.1,141.9,75.6,141.9,74.1z"/>
		<path fill="#FFFFFF" d="M181.7,104.8c-1.9,0.8-3.7,1.4-5.3,1.5c-1.6,0.2-3.1,0.2-4.5,0.2c-1.4-0.1-2.6-0.3-3.7-0.7
			c-1.1-0.4-2.1-0.9-2.9-1.4c-0.9-0.6-1.7-1.2-2.5-1.8c-0.7-0.6-1.5-1.2-2.2-1.8c-0.7-0.6-1.5-1-2.2-1.4c-0.7-0.4-1.5-0.6-2.4-0.6
			c-0.8,0-1.6,0-2.4,0.2c1-1.2,1.7-2.6,2.2-4.2c0.5-1.6,0.7-3.3,0.7-5.1c0-0.5,0-1.1-0.1-1.6c-0.1-0.6-0.1-1.1-0.3-1.6
			c-0.1-0.5-0.3-1.1-0.6-1.5c-0.3-0.5-0.6-0.9-1-1.3c0.7-1.3,1.2-2.4,1.4-3.5c0.3-1.1,0.4-2.2,0.4-3.3c0-1.2-0.1-2.1-0.2-2.7
			c-0.1-0.6-0.4-1.1-0.7-1.5c-0.3-0.4-0.7-0.7-1.1-1c-0.5-0.3-1-0.6-1.7-1.1c0.5,0.1,0.9,0.1,1.4,0.1c0.4,0,0.9,0.1,1.3,0.1
			c1,0,1.9,0,2.8-0.1c0.8-0.1,1.6-0.2,2.4-0.3c0.7-0.1,1.5-0.2,2.2-0.3c0.7-0.1,1.4-0.1,2.1-0.1c0.5,0,1,0.1,1.6,0.2
			c-0.6,0-1.2,0.2-1.8,0.6c-0.6,0.5-1.1,1-1.5,1.8c-0.4,0.7-0.8,1.5-1,2.4c-0.3,0.9-0.4,1.7-0.4,2.6c0,3.1,0,6.3,0,9.4
			c0,0.8,0,1.6,0.1,2.3c0.1,0.7,0.1,1.4,0.3,2c0.1,0.6,0.2,1.1,0.4,1.5c0.1,0.4,0.3,0.7,0.5,0.9c-0.4,0.2-0.9,0.4-1.5,0.6
			c-0.6,0.3-1,0.7-1.3,1.2c0.1,0.5,0.6,1.1,1.3,1.9c0.7,0.8,1.6,1.5,2.6,2.3c1,0.8,2,1.5,3,2.1c1,0.6,1.9,1.1,2.6,1.3
			c-0.3-0.4-0.6-0.9-1-1.5c-0.3-0.6-0.6-1.1-0.8-1.5c1.1,0.7,2.2,1.4,3.2,1.9c1,0.5,1.9,0.9,2.7,1.3c0.9,0.3,1.7,0.6,2.5,0.7
			c0.8,0.2,1.6,0.3,2.4,0.3c0.4,0,0.9,0,1.3,0c0.4,0,0.9,0,1.4-0.1C181.6,104.5,181.6,104.7,181.7,104.8z"/>
		<path fill="#FFFFFF" d="M167.9,97.7c0.4-0.2,0.7-0.6,1-1.2c0.3-0.6,0.5-1.3,0.7-2.1c0.2-0.8,0.4-1.6,0.5-2.5
			c0.1-0.9,0.1-1.6,0.1-2.4c0-1.1-0.1-2.2-0.4-3.2c-0.2-1-0.6-1.8-1-2.4c0.4-0.4,0.7-0.9,1-1.5c0.3-0.6,0.5-1.3,0.6-2.1
			c0.1-0.8,0.2-1.5,0.3-2.3c0.1-0.8,0.1-1.5,0.1-2.2c0-0.6,0-1.1,0-1.5c0-0.4-0.1-0.7-0.1-1c-0.6-0.2-1.2-0.7-1.8-1.3
			c-0.6-0.6-1.1-1.3-1.4-2.1c1.6,0.2,3.1,0.4,4.5,0.5c1.4,0.1,2.8,0.2,4.1,0.3c2.7,0.1,4.9,0.2,6.6,0.1c1.7-0.1,3-0.1,4,0
			c0.2,0,0.4,0,0.5,0.1c0.1,0,0.3,0,0.4,0.1c-0.1,0.3-0.3,0.8-0.5,1.5c-0.2,0.7-0.3,1.5-0.5,2.3c-0.2,0.8-0.3,1.7-0.4,2.5
			c-0.1,0.8-0.2,1.4-0.2,1.8c-0.1,0-0.2,0.1-0.3,0.1c-0.9-0.5-1.5-1.1-1.9-1.8c-0.4-0.6-0.7-1.4-0.9-2.3c-0.3-0.3-0.8-0.5-1.3-0.6
			c-0.5-0.1-1.2-0.2-2-0.2c-0.6,0-1.3-0.1-1.9-0.1c-0.6,0-1.1,0-1.4,0c-0.2,1-0.3,2.1-0.4,3.5c-0.1,1.4-0.2,2.9-0.2,4.4
			c0.3,0.1,0.7,0.1,1.1,0.1c0.4,0,0.6,0,0.8,0.1c0.5,0,1-0.2,1.6-0.5c0.5-0.4,1-0.9,1.5-1.5c0.1,0.3,0.2,0.7,0.4,1
			c0.1,0.4,0.3,0.8,0.4,1.2c0.2,0.4,0.3,0.8,0.5,1.1c0.2,0.4,0.4,0.6,0.7,0.8c-0.2,0.2-0.4,0.5-0.7,0.8c-0.2,0.3-0.4,0.7-0.6,1.1
			c-0.2,0.4-0.4,0.8-0.5,1.2c-0.2,0.4-0.3,0.7-0.4,1.1c-0.1-0.3-0.3-0.6-0.5-0.9c-0.2-0.3-0.4-0.6-0.6-0.9c-0.2-0.3-0.5-0.5-0.7-0.7
			c-0.3-0.2-0.5-0.3-0.8-0.3c-0.2,0-0.5,0-1,0c-0.4,0-0.8,0-1.2,0.1c0,0.2,0,0.4,0,0.7c0,1.6,0,3.1,0.1,4.5c0,1.4,0.1,2.6,0.2,3.7
			c2.1,0.3,4.2,0.6,6.3,1c0.3-1.5,1-2.9,1.9-4c0.9-1.1,1.8-2.2,2.9-3.3c0.1,0,0.2,0.1,0.2,0.1c-0.1,0.6-0.1,1.1-0.1,1.7
			c0,0.6,0,1.1,0,1.6c0,1.3,0.1,2.5,0.2,3.5c0.1,1.1,0.3,1.8,0.4,2.4c-0.4,0-0.8,0.1-1.3,0.1c-0.4,0.1-0.9,0.2-1.3,0.4
			c-0.5,0.2-1,0.4-1.5,0.7c-0.5,0.3-1.1,0.7-1.8,1.2c-2.1-0.7-4.2-1.3-6.2-1.7c-2-0.4-3.9-0.6-5.5-0.7c-0.8,0-1.5,0.1-2.2,0.3
			C168,97.8,167.9,97.8,167.9,97.7z"/>
		<path fill="#FFFFFF" d="M220.1,103.4c-1.4-0.6-2.8-1.3-4.2-2c-1.4-0.7-2.7-1.5-4.1-2.4c-0.3,0.3-0.6,0.5-0.9,0.7
			c-0.2,0.2-0.5,0.4-0.8,0.5c-0.3,0.1-0.6,0.2-0.9,0.3c-0.3,0.1-0.7,0.2-1.1,0.2c0.2-0.3,0.4-0.6,0.5-1c0.1-0.4,0.1-0.8,0.1-1.3
			c0-0.7-0.1-1.4-0.3-2.1c-0.2-0.7-0.4-1.3-0.5-1.8c-0.3-1-0.6-1.9-0.9-2.9c-0.7,0.9-1.4,1.9-2.1,3c-0.7,1.1-1.3,2.1-1.8,3.1
			c-0.4-0.6-1-1.5-1.7-2.7c-0.7-1.1-1.5-2.4-2.4-3.7c-0.2,0.6-0.4,1.3-0.6,1.9c-0.1,0.5-0.3,1-0.4,1.5c-0.1,0.5-0.1,1-0.1,1.5
			c0,0.8,0.1,1.5,0.3,2.3c0.2,0.8,0.5,1.5,1,2.2c-0.5-0.2-0.9-0.4-1.3-0.6c-0.3-0.2-0.6-0.4-0.9-0.7c-0.3-0.2-0.6-0.5-0.9-0.8
			c-0.3-0.3-0.6-0.6-1-1c-1,0.9-2.1,1.6-3.1,1.9c-1,0.3-2.2,0.5-3.4,0.4c0.5,0,1-0.3,1.5-0.8c0.5-0.5,1-1.2,1.5-2
			c0.5-0.8,1-1.8,1.4-2.8c0.5-1.1,0.9-2.2,1.2-3.4c0.4-1.4,0.8-2.7,1.2-4.1c-0.9-1-1.8-1.8-2.8-2.6c-1-0.7-1.9-1.1-2.8-1.2
			c-0.1,0-0.1,0-0.2,0c-0.1,0-0.2,0-0.4,0c0,0,0-0.1,0-0.1c1.1-0.5,2.1-0.7,3-0.6c0.6,0,1.3,0.2,1.9,0.5c0.6,0.3,1.4,0.7,2.2,1.2
			c0.7-2.3,1.3-4.5,2-6.8c0.1-0.4,0.2-0.8,0.3-1.1c0-0.3,0.1-0.6,0.1-0.8c0-0.5-0.2-0.9-0.5-1.2c-0.3-0.2-0.9-0.4-1.7-0.5
			c-0.5,0-1,0-1.6,0c-0.6,0-1.3,0.1-2.1,0.2c0.1-0.2,0.5-0.5,1.1-0.7c0.6-0.3,1.3-0.5,2.1-0.7c0.8-0.2,1.7-0.4,2.6-0.5
			c0.9-0.1,1.8-0.1,2.7-0.1c0.6,0.1,1.3,0.2,1.9,0.4c0.6,0.2,1,0.5,1.3,0.9c0.4,0,0.9,0,1.5-0.1c0.5-0.1,1-0.1,1.5-0.2
			c0.5-0.1,0.9-0.2,1.3-0.3c0.4-0.1,0.6-0.2,0.7-0.3c-0.3,0.5-0.6,1-0.8,1.7c-0.2,0.7-0.2,1.4-0.2,2.2c0,1,0.1,2.1,0.3,3.2
			c0.2,1.1,0.5,2.2,0.8,3.1c0.3,1,0.6,1.8,1,2.5c0.3,0.7,0.6,1.1,0.9,1.3c0,1.5,0.3,3,0.8,4.7c0.5,1.7,1.2,3.3,2,4.9
			c0.8,1.6,1.7,3,2.7,4.3c1,1.3,2,2.3,3,3C220.1,103.4,220.1,103.4,220.1,103.4z M203.1,91.6c0.4-0.5,0.9-1.1,1.4-1.7
			c0.5-0.6,1-1.2,1.5-1.8c-1-3.2-1.9-6.4-2.9-9.6c-1,3.1-2,6.3-3,9.4c0.5,0.6,1,1.2,1.5,1.9C202.2,90.4,202.7,91,203.1,91.6z"/>
		<path fill="#FFFFFF" d="M238.6,98.5c-0.1-2.5-0.2-4.9-0.3-7.1c-0.1-2.3-0.1-4.3-0.1-6c0-1.7-0.1-3.1-0.1-4.2c0-1,0-1.6,0-1.6
			c-0.1-1.5-0.9-2.7-2.3-3.4c0.2,0.1,0.5,0.1,0.7,0.1c0.2,0,0.5,0.1,0.7,0.1c1.1,0.1,2.1,0.2,3.1,0.2c0.9,0,1.8,0,2.5,0
			c0.8,0,1.5-0.1,2.1-0.1c0.6,0,1.2,0,1.8,0.1c0.3,0,0.6,0.1,0.9,0.2c-1.5,0.9-2.6,1.9-3.4,3c-0.8,1.2-1.2,2.5-1.2,4.1
			c0,1.8,0.6,4,1.8,6.5c-0.6,1.4-1,2.9-1.4,4.5c-0.4,1.6-0.5,3.3-0.5,4.9c0,0.7,0,1.6,0.1,2.5c0.1,0.9,0.2,1.9,0.4,2.8
			c0.7,0.9,1.4,1.6,2,2.1c0.6,0.5,1.1,0.9,1.6,1.2c0.5,0.3,0.9,0.5,1.3,0.6c0.4,0.1,0.8,0.2,1.2,0.3c-0.3-0.9-0.6-1.7-1-2.6
			c0.8,0.6,1.7,1.1,2.5,1.7c0.8,0.5,1.7,1,2.6,1.5c0.9,0.4,1.8,0.8,2.8,1.2c1,0.3,2,0.6,3.1,0.7c0.7,0.1,1.5,0.2,2.3,0.3
			c0.8,0.1,1.7,0.1,2.5,0.1c-2.2,0.5-4.2,0.9-6.1,1c-1.9,0.1-3.7,0-5.4-0.2c-2.2-0.3-4.2-0.9-6-1.8c-1.8-0.9-3.6-1.9-5.1-3.2
			c-1.6-1.3-3-2.7-4.3-4.2c-1.3-1.5-2.5-3.1-3.6-4.8c-1.1-1.7-2-3.3-2.9-5c-0.9-1.7-1.6-3.2-2.3-4.7c0,1.3,0,2.5,0,3.8
			c0,1.5,0,2.8,0.1,3.9c0.1,1.1,0.3,2,0.5,2.8c0.2,0.8,0.5,1.5,0.9,2.1c0.3,0.6,0.8,1.3,1.3,1.9c-0.5-0.2-1-0.4-1.4-0.6
			c-0.4-0.2-0.8-0.4-1.2-0.7c-0.4-0.2-0.8-0.5-1.2-0.9c-0.4-0.3-0.9-0.8-1.4-1.3c-0.7,1.1-1.6,2.1-2.7,2.8c-1.1,0.8-2.6,1.3-4.5,1.8
			c0.7-0.6,1.4-1.4,2.1-2.2c0.6-0.8,1.2-1.8,1.7-2.7c0.5-1,0.9-2,1.2-3.1c0.3-1.1,0.4-2.2,0.4-3.3c0-1-0.1-2.1-0.4-3.1
			c-0.3-1-0.7-2-1.3-2.9c1.2-2.2,1.8-4.2,1.8-6.1c0-1.6-0.4-3-1.2-4.4c-0.8-1.3-2-2.6-3.4-3.8c0.2,0,0.5-0.1,0.9,0
			c0.5,0,1.1,0.2,1.7,0.3c0.6,0.2,1.3,0.4,2.1,0.6c0.8,0.2,1.6,0.4,2.5,0.6c0.9,0.2,1.8,0.4,2.9,0.5c0.2,0,0.5,0.1,0.7,0.1
			c0.2,0,0.5,0,0.7,0c-1.3,0.4-2.1,1.2-2.3,2.5c0.4,1.2,1,2.5,1.6,4.1c0.6,1.5,1.3,3.2,2.1,4.9c0.8,1.7,1.6,3.4,2.6,5.2
			c0.9,1.8,1.9,3.5,2.9,5.1C238.1,97.7,238.4,98.1,238.6,98.5z"/>
		<path fill="#FFFFFF" d="M256.7,81.1c-0.4,0.7-0.7,1.4-0.9,2.2c-0.2,0.8-0.3,1.6-0.3,2.5c0,0.7,0,1.5,0.1,2.2
			c0.1,0.7,0.2,1.5,0.4,2.2c0.6-0.1,1.2-0.1,1.9-0.2c0.7,0,1.4,0,2.2,0c0.8,0,1.7,0.1,2.7,0.2c1,0.1,2.2,0.2,3.5,0.4
			c-0.1,1-0.1,2.1-0.2,3.4c-0.1,1.3-0.1,2.6-0.1,4.1c0,1.4,0.1,2.8,0.2,4.1c0.1,1.4,0.3,2.8,0.6,4.1c-1.3-0.2-2.5-0.2-3.7,0
			c-1.2,0.2-2.2,0.6-2.9,1.2c-0.5-0.4-1.1-0.8-1.8-1.3c-0.7-0.4-1.4-0.9-2.4-1.3c-0.9-0.4-2-0.8-3.2-1.2c-1.2-0.4-2.7-0.7-4.3-1
			c0.6-0.6,1-1.2,1.4-1.9c0.3-0.7,0.5-1.4,0.5-2.3c0-0.3,0-0.5,0-0.8c0-0.3-0.1-0.5-0.1-0.8c0.3,0,0.8,0.3,1.5,0.6
			c0.6,0.4,1.3,0.8,2.2,1.4c0.8,0.6,1.8,1.2,2.8,2c1.1,0.7,2.2,1.5,3.4,2.3c0.2-0.6,0.4-1.4,0.5-2.4c0.1-1,0.2-2.1,0.2-3.2
			c0-1-0.1-1.9-0.2-2.7c-0.1-0.8-0.3-1.5-0.6-1.8c-0.7,0-1.4-0.1-2.2-0.1c-0.8,0-1.7,0-2.5,0c-0.9,0-1.7,0.1-2.6,0.1
			c-0.9,0.1-1.7,0.1-2.5,0.2c0.1-1,0.3-2.1,0.4-3.3c0.1-1.2,0.2-2.4,0.2-3.7c0-1.4-0.1-2.8-0.4-4.2c-0.3-1.4-0.8-2.6-1.6-3.8
			c0.2,0.1,0.6,0.2,1,0.3c0.4,0.1,1,0.2,1.6,0.3c1.4,0.2,2.6,0.1,3.6-0.2c1-0.4,1.8-1.1,2.5-2.2c0.4,0.3,0.8,0.6,1.4,1
			c0.5,0.4,1.1,0.7,1.7,1c0.6,0.3,1.3,0.6,2,0.8c0.7,0.2,1.5,0.4,2.2,0.5c0.5,0.1,1,0.1,1.4,0.1c0.5,0,0.9,0,1.4-0.1
			c-0.5,1.2-1.2,2.2-2,3c-0.8,0.8-1.8,1.1-2.8,0.9c-0.3-0.1-0.8-0.2-1.4-0.4c-0.6-0.2-1.1-0.4-1.7-0.7c-0.6-0.3-1.2-0.6-1.8-0.9
			C257.6,81.8,257.1,81.5,256.7,81.1z"/>
	</g>
	<path fill="#FFFFFF" d="M138,29.5c-0.5,0.2-1,0.3-1.5,0.3c-0.5,0-1.1-0.1-1.5-0.3c0,0,0,0,0,0c-0.1,0.1-0.2,0.1-0.3,0.2
		c-0.2,0.2-0.4,0.4-0.3,0.6c0,0.2,0.1,0.4,0.4,0.6c0.1,0.1,0.3,0.2,0.4,0.2c0.4,0.2,0.9,0.2,1.5,0.3c0.2,0,0.5,0,0.7-0.1
		c0.4-0.1,0.8-0.2,1.1-0.5c0.2-0.2,0.3-0.3,0.3-0.5c0-0.2-0.1-0.4-0.3-0.5C138.3,29.7,138.2,29.6,138,29.5z"/>
	<path fill="#FFFFFF" d="M177.2,26.5c-0.5-1.2-1.4-2.2-2.5-2.8c-0.5-0.3-1.1-0.5-1.7-0.6c-0.6-0.1-1.2,0-1.8,0.1
		c-1.1,0.3-2,1.1-2.5,2.1c-0.2,0.5-0.3,1-0.3,1.6c0,0.5,0.2,1,0.5,1.4c0.3,0.4,0.6,0.8,1,1c0.4,0.3,0.9,0.4,1.3,0.4
		c0.5,0,0.9-0.1,1.2-0.4c0.3-0.2,0.6-0.6,0.8-0.9c0.2-0.4,0.2-0.8,0.1-1.1c-0.1-0.4-0.3-0.7-0.6-0.9c-0.1-0.1-0.3-0.2-0.5-0.2
		c-0.2-0.1-0.3-0.1-0.5-0.1c-0.3,0-0.6,0.2-0.8,0.4c-0.2,0.2-0.3,0.5-0.3,0.7c0,0.3,0.1,0.5,0.3,0.6c0.2,0.1,0.4,0.2,0.6,0.2
		c0.2,0,0.3-0.1,0.4-0.2c0,0,0,0,0-0.1c0.1-0.1,0.2-0.2,0.1-0.3c0-0.2-0.2-0.4-0.5-0.4c-0.2,0-0.4,0.2-0.4,0.5
		c0,0.2,0.2,0.3,0.3,0.4c0,0-0.1,0-0.1,0c-0.1,0-0.3-0.1-0.4-0.2c-0.1-0.1-0.2-0.3-0.2-0.5c0-0.2,0.1-0.4,0.2-0.6
		c0.2-0.2,0.4-0.3,0.6-0.3c0.3,0,0.5,0.1,0.7,0.3c0.2,0.2,0.4,0.4,0.5,0.7c0.1,0.3,0.1,0.6-0.1,0.9c-0.1,0.3-0.4,0.6-0.7,0.7
		c-0.3,0.2-0.7,0.3-1,0.3c-0.8,0-1.5-0.5-2-1.2c-0.2-0.4-0.4-0.8-0.4-1.2c0-0.4,0.1-0.9,0.3-1.3c0.4-0.8,1.2-1.5,2.2-1.8
		c1-0.3,2.1-0.2,3,0.4c1,0.5,1.8,1.4,2.2,2.5c0.5,1.1,0.6,2.3,0.2,3.4c-0.2,0.6-0.4,1.1-0.8,1.6c-0.4,0.5-0.8,0.8-1.4,1.1
		c-1.1,0.6-2.4,0.9-3.7,1.1c-1.3,0.2-2.7,0.1-4.1,0.1c-1.4-0.1-2.9-0.1-4.3,0c-0.7,0.1-1.5,0.2-2.2,0.4c0-0.2,0-0.4,0-0.6
		c0-6.9-6.1-12.8-13.7-12.9c-1.6,0-3.2,0.2-4.7,0.7c0.1-0.2,0.2-0.4,0.3-0.6c2.5-1.8,4.1-4.8,4.1-7.9c0-4.2-2.4-7.3-7.5-9.6
		c-1.2-0.5-1.3-0.9-1.8-1.8c-0.1-0.3-0.3-0.6-0.5-1L136.3,0L136,0.7c-0.8,1.9-1.1,2.1-2.5,2.9c-0.3,0.2-0.7,0.4-1.1,0.7
		c-2.5,1.6-5.5,4.4-5.5,8.7c0,3,1.4,5.8,3.7,7.7c0.1,0.3,0.2,0.6,0.4,0.9c-1.5-0.5-3-0.7-4.7-0.7c-7.5,0.1-13.7,5.9-13.7,12.9
		c0,0.2,0,0.4,0,0.6c-0.7-0.2-1.4-0.3-2.2-0.4c-1.4-0.1-2.9-0.1-4.3,0c-1.4,0.1-2.8,0.1-4.1-0.1c-1.3-0.1-2.6-0.5-3.7-1.1
		c-0.5-0.3-1-0.7-1.4-1.1c-0.4-0.5-0.6-1-0.8-1.6c-0.3-1.1-0.2-2.3,0.2-3.4c0.5-1.1,1.3-1.9,2.2-2.5c0.9-0.6,2.1-0.7,3-0.4
		c1,0.3,1.7,1,2.2,1.8c0.2,0.4,0.3,0.9,0.3,1.3c0,0.4-0.2,0.9-0.4,1.2c-0.4,0.7-1.2,1.2-2,1.2c-0.4,0-0.7-0.1-1-0.3
		c-0.3-0.2-0.5-0.4-0.7-0.7c-0.1-0.3-0.2-0.6-0.1-0.9c0.1-0.3,0.3-0.5,0.5-0.7c0.2-0.2,0.5-0.3,0.7-0.3c0.3,0,0.5,0.1,0.6,0.3
		c0.2,0.2,0.3,0.4,0.2,0.6c0,0.2-0.1,0.4-0.2,0.5c-0.1,0.1-0.3,0.2-0.4,0.2c0,0-0.1,0-0.1,0c0.2,0,0.3-0.2,0.3-0.4
		c0-0.2-0.1-0.4-0.4-0.5c-0.2,0-0.5,0.2-0.5,0.4c0,0.1,0,0.3,0.1,0.3c0,0,0,0,0,0.1c0.1,0.1,0.2,0.2,0.4,0.2c0.2,0,0.4-0.1,0.6-0.2
		c0.2-0.1,0.3-0.4,0.3-0.6c0-0.3-0.1-0.5-0.3-0.7c-0.2-0.2-0.5-0.4-0.8-0.4c-0.2,0-0.3,0-0.5,0.1c-0.2,0.1-0.3,0.1-0.5,0.2
		c-0.3,0.2-0.5,0.5-0.6,0.9c-0.1,0.4-0.1,0.8,0.1,1.1c0.2,0.4,0.4,0.7,0.8,0.9c0.3,0.2,0.8,0.4,1.2,0.4c0.5,0,0.9-0.1,1.3-0.4
		c0.4-0.3,0.8-0.6,1-1c0.3-0.4,0.4-0.9,0.5-1.4c0-0.5-0.1-1.1-0.3-1.6c-0.5-1-1.3-1.8-2.5-2.1c-0.6-0.2-1.2-0.2-1.8-0.1
		c-0.6,0.1-1.2,0.3-1.7,0.6c-1.1,0.6-2,1.6-2.5,2.8c-0.5,1.2-0.6,2.5-0.3,3.8c0.2,0.6,0.5,1.2,0.9,1.8c0,0,0.1,0.1,0.1,0.1
		c1.8,3.9,3.6,7.8,5.4,11.6c0.2,1.7-0.4,3.3-0.4,3.3c1,0.5,2.1,1.3,2.8,1.9c1.1,2.3,2.2,4.6,3.2,6.9c0,0,0.2,0,0.5,0
		c0-0.1,0.1-0.3,0.1-0.4c0.2-0.4,0.3-0.9,0.6-1.3c0.2-0.4,0.5-0.8,0.9-1.2c1.4-1.6,3.1-2.4,4.4-2.8c0.8-0.3,1.4-0.4,1.8-0.4
		c0,0,0.1,0,0.1,0c1.1-0.2,2.2-0.2,3.4-0.1c0.5-0.2,1-0.5,1.5-1.1c0.4-0.6,0.8-1.4,0.7-2.1c-0.1-0.8-0.8-1.4-1.5-1.5
		c-0.3-0.1-0.6,0-0.9,0.2c-0.2,0.2-0.4,0.4-0.4,0.7c0,0.2,0,0.3,0.1,0.4c0-0.3,0.2-0.5,0.5-0.5c0.3,0,0.5,0.2,0.5,0.5
		c0,0.2-0.1,0.4-0.3,0.5c0,0,0,0,0,0c0,0-0.1,0-0.1,0c0,0,0,0,0,0c0,0,0,0,0,0c-0.2,0-0.4,0-0.6-0.1c-0.2-0.2-0.4-0.5-0.4-0.8
		c0-0.3,0.2-0.7,0.5-1c0.3-0.3,0.8-0.4,1.2-0.3c0.9,0.1,1.7,0.9,1.9,1.8c0.1,0.5,0,1-0.2,1.4c-0.2,0.4-0.4,0.8-0.7,1.1
		c-0.3,0.4-0.7,0.7-1.1,0.9c0,0,0.1,0,0.1,0c1.4,0.2,2.7,0.7,4.1,1.2c1.3,0.5,2.6,1,3.9,1.2c1.3,0.3,2.7,0.4,3.9,0.2
		c1.2-0.2,2.4-0.8,3.1-1.8c0.8-0.9,1.1-2.1,1.1-3.3c0-2.3-1.7-4.5-3.8-4.6c-1-0.1-2,0.3-2.7,0.9c-0.7,0.6-1,1.6-0.9,2.4
		c0.1,0.8,0.6,1.6,1.3,1.9c0.7,0.3,1.5,0.1,2-0.4c0.5-0.4,0.6-1.2,0.3-1.7c-0.3-0.5-0.9-0.7-1.3-0.5c-0.2,0.1-0.4,0.2-0.5,0.4
		c-0.1,0.2-0.1,0.4,0,0.5c0,0.1,0.1,0.2,0.2,0.3c-0.1-0.1-0.1-0.2-0.1-0.3c0-0.3,0.2-0.5,0.5-0.5c0.2,0,0.4,0.2,0.5,0.4c0,0,0,0,0,0
		c0.1,0.1,0,0.4-0.3,0.6c-0.1,0.1-0.3,0.1-0.5,0.1c-0.2,0-0.4-0.2-0.5-0.4c-0.1-0.2-0.1-0.5,0-0.7c0.1-0.3,0.3-0.5,0.6-0.6
		c0.3-0.1,0.6-0.2,0.9-0.1c0.3,0.1,0.6,0.3,0.8,0.6c0.4,0.6,0.3,1.5-0.3,2.1c-0.6,0.6-1.5,0.8-2.4,0.5c-0.4-0.2-0.8-0.5-1.1-0.8
		c-0.3-0.4-0.5-0.8-0.6-1.3c-0.2-1,0.2-2.1,1-2.9c0.8-0.7,1.9-1.2,3.1-1.1c1.2,0.1,2.3,0.7,3.1,1.6c0.4,0.5,0.8,1.1,1,1.8
		c0.2-0.7,0.5-1.3,1-1.8c0.8-1,1.9-1.6,3.1-1.6c1.2-0.1,2.3,0.4,3.1,1.1c0.8,0.7,1.2,1.9,1,2.9c-0.1,0.5-0.3,1-0.6,1.3
		c-0.3,0.4-0.7,0.7-1.1,0.8c-0.9,0.3-1.8,0.1-2.4-0.5c-0.6-0.6-0.7-1.5-0.3-2.1c0.2-0.3,0.5-0.5,0.8-0.6c0.3-0.1,0.6-0.1,0.9,0.1
		c0.3,0.1,0.5,0.3,0.6,0.6c0.1,0.2,0.1,0.5,0,0.7c-0.1,0.2-0.3,0.4-0.5,0.4c-0.2,0.1-0.4,0-0.5-0.1c-0.2-0.1-0.3-0.3-0.3-0.5
		c0,0,0,0,0,0c0-0.3,0.2-0.5,0.5-0.5c0.3,0,0.5,0.2,0.5,0.5c0,0.1,0,0.2-0.1,0.3c0.1-0.1,0.2-0.1,0.2-0.3c0.1-0.2,0.1-0.4,0-0.5
		c-0.1-0.2-0.2-0.3-0.5-0.4c-0.4-0.2-1,0-1.3,0.5c-0.3,0.5-0.2,1.2,0.3,1.7c0.5,0.5,1.3,0.7,2,0.4c0.7-0.3,1.2-1,1.3-1.9
		c0.1-0.8-0.2-1.8-0.9-2.4c-0.7-0.6-1.7-1-2.7-0.9c-2.1,0.1-3.8,2.3-3.8,4.6c0,1.2,0.4,2.3,1.1,3.3c0.7,1,1.9,1.6,3.1,1.8
		c1.3,0.2,2.6,0.1,3.9-0.2c1.3-0.3,2.6-0.7,3.9-1.2c1.3-0.5,2.7-0.9,4.1-1.2c0,0,0.1,0,0.1,0c-0.4-0.2-0.8-0.5-1.1-0.9
		c-0.3-0.3-0.5-0.7-0.7-1.1c-0.2-0.4-0.3-0.9-0.2-1.4c0.2-1,1-1.7,1.9-1.8c0.5-0.1,0.9,0.1,1.2,0.3c0.3,0.3,0.5,0.6,0.5,1
		c0,0.4-0.2,0.7-0.4,0.8c-0.2,0.1-0.4,0.2-0.6,0.1c0,0,0,0,0,0c0,0,0,0,0,0c0,0-0.1,0-0.1,0c0,0,0,0,0,0c-0.2-0.1-0.3-0.2-0.3-0.5
		c0-0.3,0.2-0.5,0.5-0.5c0.3,0,0.5,0.2,0.5,0.5c0.1-0.1,0.1-0.3,0.1-0.4c0-0.2-0.2-0.5-0.4-0.7c-0.2-0.2-0.6-0.3-0.9-0.2
		c-0.7,0.1-1.3,0.7-1.5,1.5c-0.1,0.8,0.2,1.6,0.7,2.1c0.4,0.5,1,0.9,1.5,1.1c1.1-0.1,2.2-0.1,3.4,0.1c0,0,0,0,0.1,0
		c0.3,0,1,0.1,1.9,0.4c1.2,0.4,3,1.2,4.4,2.8c0.3,0.4,0.7,0.8,0.9,1.2c0.3,0.4,0.4,0.9,0.6,1.3c0,0.1,0.1,0.3,0.1,0.4
		c0.2,0,0.4,0,0.4,0c1.1-2.4,2.2-4.8,3.3-7.1c0.7-0.6,1.6-1.3,2.6-1.7c0,0-0.5-1.3-0.4-2.8c1.9-4.1,3.8-8.1,5.7-12.2c0,0,0,0,0,0
		c0.4-0.5,0.7-1.1,0.9-1.8C177.8,29.1,177.7,27.7,177.2,26.5z M130.3,18.9c0,0.2,0,0.4,0,0.6c-1.7-1.7-2.7-4-2.7-6.5
		c0-4,2.8-6.6,5.2-8.1c0.4-0.3,0.8-0.5,1.1-0.7c1.3-0.8,1.8-1.1,2.5-2.6c0,0.1,0.1,0.2,0.1,0.3c0.5,1,0.7,1.5,2.2,2.1
		c4.7,2.2,7,5.1,7,9c0,2.6-1.1,5-3,6.7c0-0.3,0.1-0.6,0.1-0.9c0-2.9-2-4.8-4.8-6.1c-1.1-0.5-1-0.8-1.6-1.9c-0.7,1.6-0.9,1.5-2.5,2.5
		C131.8,14.6,130.3,16.4,130.3,18.9z M108.9,43.1c-0.2-0.4-0.3-0.8-0.3-1.3c0-0.4,0.1-0.9,0.3-1.2c0.4-0.7,1.2-1.3,1.9-1.3
		c0.4,0,0.8,0.1,1.1,0.3c0.3,0.2,0.6,0.4,0.7,0.7c0.2,0.3,0.2,0.6,0.1,0.9c-0.1,0.3-0.2,0.5-0.5,0.7c-0.2,0.2-0.5,0.3-0.7,0.3
		c-0.3,0-0.5-0.1-0.7-0.3c-0.2-0.2-0.3-0.3-0.3-0.5c0-0.2,0.1-0.4,0.2-0.5c0.1-0.1,0.3-0.2,0.4-0.2c0,0,0.1,0,0.1,0
		c-0.2,0-0.4,0.2-0.5,0.4c0,0.2,0.2,0.4,0.4,0.5c0.1,0,0.1,0,0.2,0c0,0,0.1,0,0.1-0.1c0,0,0.1,0,0.1-0.1c0-0.1,0.1-0.1,0.1-0.3
		c0-0.1,0-0.3-0.2-0.4c-0.1-0.1-0.3-0.2-0.5-0.2c-0.2,0-0.4,0.1-0.6,0.2c-0.2,0.2-0.3,0.4-0.3,0.6c0,0.3,0.1,0.5,0.3,0.7
		c0.2,0.2,0.5,0.3,0.8,0.4c0.2,0,0.3,0,0.5-0.1c0.2-0.1,0.3-0.1,0.5-0.3c0.3-0.2,0.5-0.5,0.6-0.9c0.1-0.4,0.1-0.8-0.1-1.1
		c-0.2-0.4-0.5-0.7-0.9-0.9c-0.4-0.2-0.8-0.3-1.3-0.3c-0.5,0-1,0.2-1.4,0.4c-0.4,0.3-0.7,0.6-1,1.1c-0.3,0.4-0.4,0.9-0.4,1.4
		c0,0.5,0.1,1,0.4,1.5c0.1,0.2,0.2,0.3,0.3,0.4c-3.6-2.8-7.8-7.3-10.4-10.2c1.1,0.5,2.3,0.8,3.5,1c0.8,0.1,1.7,0.1,2.5,0.1
		c-0.8,0.4-1.1,0.8-1.1,0.9c0.1,0.1,0.6-0.5,1.7-0.7c0.5-0.1,1.2-0.1,1.9,0.1c0.6,0.2,1.4,0.7,1.6,1.4c0.3,0.7,0,1.6-0.5,2
		c-0.5,0.4-1.2,0.3-1.5-0.1c-0.3-0.3-0.1-0.7,0.1-0.9c0,0-0.1,0.1-0.1,0.2c0,0.2,0.1,0.4,0.3,0.4c0.2,0,0.4-0.1,0.4-0.3
		c0-0.1,0-0.2-0.1-0.3c0-0.1-0.2-0.2-0.5-0.2c-0.2,0-0.4,0.2-0.5,0.4c-0.1,0.2-0.1,0.6,0.1,0.9c0.4,0.5,1.3,0.8,2.1,0.2
		c0.7-0.5,1.1-1.6,0.7-2.5c-0.2-0.5-0.5-0.8-0.8-1.1c-0.3-0.2-0.6-0.4-0.9-0.5c1.1,0,2.1,0,3.1,0.1c1.4,0.1,2.7,0.4,3.9,1
		c1.2,0.6,2,1.6,2.4,2.7c0.4,1.1,0.4,2.4-0.1,3.4c-0.4,1.1-1.2,2-2.2,2.5c-0.9,0.6-2.1,0.7-3.1,0.4
		C110.2,44.6,109.4,43.9,108.9,43.1z M113.2,46.4c-0.7-0.1-1.6-0.6-2.5-1.2c0.1,0,0.2,0.1,0.3,0.1c0.6,0.2,1.2,0.2,1.8,0.1
		c0.6-0.1,1.2-0.3,1.8-0.6c0.9-0.5,1.6-1.3,2.2-2.2c0.1,0.1,0.2,0.1,0.2,0.2C116.7,45,115.7,46.8,113.2,46.4z M153.4,39.9
		c0.1-0.3,0.2-0.5,0.3-0.8c0.4-1.3,0.2-2.6-0.3-3.8c-0.5-1.2-1.4-2.1-2.5-2.7c-0.5-0.3-1.1-0.5-1.7-0.6c-0.6-0.1-1.2,0-1.8,0.2
		c-1.1,0.4-2,1.2-2.5,2.2c-0.2,0.5-0.3,1-0.3,1.6c0,0.5,0.2,1,0.5,1.4c0.3,0.4,0.6,0.8,1.1,1c0.4,0.2,0.9,0.4,1.3,0.4
		c0.5,0,0.9-0.2,1.2-0.4c0.3-0.2,0.6-0.6,0.8-0.9c0.2-0.4,0.2-0.8,0.1-1.1c-0.1-0.4-0.3-0.7-0.6-0.9c-0.1-0.1-0.3-0.2-0.5-0.2
		c-0.2-0.1-0.3-0.1-0.5-0.1c-0.3,0-0.6,0.2-0.8,0.4c-0.2,0.2-0.3,0.5-0.3,0.7c0,0.3,0.1,0.5,0.3,0.6c0.2,0.1,0.4,0.2,0.6,0.2
		c0.2,0,0.3-0.1,0.4-0.2c0,0,0,0,0-0.1c0.1-0.1,0.2-0.2,0.1-0.3c0-0.2-0.2-0.4-0.5-0.4c-0.2,0-0.4,0.2-0.4,0.5
		c0,0.2,0.2,0.3,0.3,0.4c0,0-0.1,0-0.1,0c-0.1,0-0.3-0.1-0.4-0.2c-0.1-0.1-0.2-0.3-0.2-0.5c0-0.2,0.1-0.4,0.2-0.6
		c0.2-0.2,0.4-0.3,0.6-0.3c0.3,0,0.5,0.1,0.7,0.2c0.2,0.2,0.4,0.4,0.5,0.7c0.1,0.3,0.1,0.6-0.1,0.9c-0.1,0.3-0.4,0.6-0.7,0.8
		c-0.3,0.2-0.7,0.3-1,0.3c-0.8,0-1.5-0.5-2-1.2c-0.2-0.4-0.4-0.8-0.4-1.2c0-0.4,0.1-0.9,0.3-1.3c0.4-0.8,1.2-1.6,2.2-1.9
		c1-0.3,2.1-0.2,3,0.3c1,0.5,1.8,1.4,2.2,2.4c0.5,1,0.6,2.3,0.2,3.4c-0.2,0.6-0.4,1.1-0.8,1.6c-0.2,0.3-0.4,0.5-0.7,0.7
		c-0.5,0.4-1.1,0.7-1.7,1c-0.8,0.3-1.8,0.6-2.7,0.7c-0.8,0.1-1.7,0.2-2.6,0.2c-0.4-0.1-0.7-0.3-1.1-0.5c-3.4-2.1-5.4-5.8-6.4-8
		c0.8,0.8,1.9,0.9,2.4,0.1c-0.1,0-0.1,0-0.2,0c-0.5,0-0.9-0.1-1.2-0.5c-0.3-0.4-0.4-0.9-0.5-1.3c-0.1-0.4-0.1-0.7-0.1-1.1
		c-0.8,0.2-1.5,0.2-2.3,0c0,0.1,0,0.2,0,0.2c-0.1,0.5-0.1,1-0.2,1.4c-0.1,0.6-0.4,1.1-1.1,1.3c-0.2,0-0.4,0-0.7,0
		c0.2,0.2,0.5,0.4,0.8,0.5c0.1,0,0.2,0,0.3,0c0.6,0,1-0.2,1.3-0.7c-1,2.2-3,5.9-6.4,8c-0.3,0.2-0.7,0.4-1.1,0.5
		c-0.9,0-1.7-0.1-2.6-0.2c-0.9-0.1-1.9-0.4-2.7-0.7c-0.6-0.3-1.2-0.6-1.7-1c-0.2-0.2-0.5-0.4-0.6-0.7c-0.4-0.5-0.6-1-0.8-1.6
		c-0.3-1.1-0.2-2.3,0.2-3.4c0.5-1,1.3-1.9,2.2-2.4c0.9-0.6,2.1-0.6,3-0.3c1,0.3,1.7,1,2.2,1.9c0.2,0.4,0.3,0.9,0.3,1.3
		c0,0.4-0.2,0.9-0.4,1.2c-0.4,0.7-1.2,1.2-2,1.2c-0.4,0-0.7-0.1-1-0.3c-0.3-0.2-0.5-0.5-0.7-0.8c-0.1-0.3-0.2-0.6-0.1-0.9
		c0.1-0.3,0.3-0.5,0.5-0.7c0.2-0.2,0.5-0.3,0.7-0.2c0.3,0,0.5,0.1,0.6,0.3c0.2,0.2,0.3,0.4,0.2,0.6c0,0.2-0.1,0.4-0.2,0.5
		c-0.1,0.1-0.3,0.2-0.4,0.2c0,0-0.1,0-0.1,0c0.2,0,0.3-0.2,0.3-0.4c0-0.2-0.1-0.4-0.4-0.5c-0.2,0-0.5,0.1-0.5,0.4
		c0,0.1,0,0.3,0.1,0.3c0,0,0,0,0,0.1c0.1,0.1,0.2,0.2,0.4,0.2c0.2,0,0.4-0.1,0.6-0.2c0.2-0.1,0.3-0.4,0.3-0.6c0-0.3-0.1-0.5-0.3-0.7
		c-0.2-0.2-0.5-0.4-0.8-0.4c-0.2,0-0.3,0-0.5,0.1c-0.2,0.1-0.3,0.1-0.5,0.2c-0.3,0.2-0.5,0.5-0.6,0.9c-0.1,0.4-0.1,0.8,0.1,1.1
		c0.2,0.4,0.4,0.7,0.8,0.9c0.3,0.2,0.8,0.4,1.2,0.4c0.5,0,0.9-0.1,1.3-0.4c0.4-0.2,0.8-0.6,1.1-1c0.3-0.4,0.4-0.9,0.5-1.4
		c0-0.5-0.1-1.1-0.3-1.6c-0.5-1-1.3-1.8-2.5-2.2c-0.6-0.2-1.2-0.3-1.8-0.2c-0.6,0.1-1.2,0.2-1.7,0.6c-1.1,0.6-2,1.5-2.5,2.7
		c-0.5,1.2-0.6,2.5-0.3,3.8c0.1,0.3,0.2,0.6,0.3,0.8c-1.5-1.2-2.5-2.2-2.8-2.4c-0.2-0.4-0.4-0.7-0.7-1c-0.5-0.5-1-1-1.7-1.3
		c-0.4-0.2-0.8-0.4-1.1-0.5c0-0.3-0.1-0.6-0.1-0.9c0-6.5,5.8-12,12.9-12.1c1.4,0,2.7,0.2,3.9,0.5c-0.6,0-1.2,0.1-1.9,0.3
		c-1.4,0.4-2.3,1.4-2.7,2.8c-0.1,0.2-0.1,0.5-0.1,0.7c0,0.2,0,0.4,0,0.6c0,0.1,0,0.1,0,0.2c0.1,0.6,0.2,1.2,0.5,1.7
		c0.4,0.6,0.8,1.1,1.4,1.5c1,0.7,2.1,1.1,3.4,0.9c0.5-0.1,1-0.3,1.4-0.7c0.4-0.5,0.6-1.1,0.5-1.8c-0.2-1-1-1.8-2-1.6
		c-0.6,0.1-1.1,0.6-1.2,1.2c-0.1,0.7,0.3,1.3,0.9,1.5c0,0,0.1,0,0.1,0.1c-0.3,0-0.6,0-0.8-0.2c-0.5-0.5-0.7-1.1-0.6-1.7
		c0.1-0.8,0.7-1.3,1.4-1.5c0.7-0.2,1.4-0.1,2,0.1c0-0.1,0-0.2,0-0.3c0-1.6,1-2.7,2.2-3.5c1-0.6,1.2-0.6,1.6-1.6
		c0.4,0.7,0.3,0.9,1,1.2c1.8,0.8,3,2,3,3.9c0,0.1,0,0.2,0,0.3c0.5-0.2,1-0.3,1.5-0.2c0.2,0,0.4,0.1,0.5,0.1c0.7,0.2,1.2,0.7,1.4,1.3
		c0.2,0.6,0.1,1.2-0.3,1.8c-0.1,0.1-0.2,0.2-0.3,0.3c-0.2,0.1-0.4,0.2-0.7,0.2c0,0,0.1,0,0.1,0c0,0,0,0,0,0c0.2-0.1,0.4-0.2,0.5-0.4
		c0.1-0.2,0.2-0.3,0.3-0.5c0-0.1,0-0.2,0.1-0.3c0-0.3-0.1-0.6-0.3-0.9c-0.1-0.1-0.2-0.2-0.2-0.3c-0.6-0.5-1.7-0.4-2.3,0.3
		c-0.3,0.3-0.4,0.7-0.5,1.1c0,0.2,0,0.4,0,0.5c0,0.5,0.3,1,0.7,1.3c0.3,0.2,0.6,0.4,0.9,0.5c0.5,0.2,1,0.2,1.6,0.1
		c0.6-0.1,1.2-0.3,1.7-0.6c0.5-0.3,0.9-0.7,1.3-1.2c0.8-0.9,1-2,0.9-3.2c0-0.2-0.1-0.5-0.1-0.7c-0.1-0.5-0.4-1-0.8-1.4
		c-0.4-0.4-0.8-0.8-1.3-1c-0.8-0.4-1.6-0.6-2.5-0.5c1.3-0.4,2.6-0.6,4-0.5c7.1,0.1,12.9,5.6,12.9,12.1c0,0.3,0,0.6-0.1,0.9
		c-0.4,0.1-0.8,0.3-1.1,0.5c-0.6,0.3-1.2,0.8-1.7,1.3c-0.3,0.3-0.5,0.7-0.7,1.1C155.7,37.8,154.7,38.8,153.4,39.9z M159.8,46.4
		c-2.8,0.4-3.7-1.9-3.9-4.3c0.5,1.2,1.4,2.1,2.5,2.7c0.5,0.3,1.1,0.5,1.8,0.6c0.6,0.1,1.2,0,1.8-0.1c0.1,0,0.3-0.1,0.4-0.2
		C161.3,45.9,160.5,46.3,159.8,46.4z M164.1,43.9c0.1-0.2,0.3-0.3,0.4-0.5c0.3-0.5,0.4-1,0.4-1.5c0-0.5-0.2-1-0.4-1.4
		c-0.2-0.4-0.6-0.8-1-1.1c-0.4-0.3-0.9-0.4-1.4-0.4c-0.5,0-0.9,0.1-1.3,0.3c-0.4,0.2-0.7,0.5-0.9,0.9c-0.2,0.4-0.2,0.8-0.1,1.1
		c0.1,0.4,0.3,0.7,0.6,0.9c0.1,0.1,0.3,0.2,0.5,0.3c0.2,0.1,0.3,0.1,0.5,0.1c0.3,0,0.6-0.2,0.8-0.4c0.2-0.2,0.3-0.5,0.3-0.7
		c0-0.3-0.1-0.5-0.3-0.6c-0.2-0.2-0.4-0.2-0.6-0.2c-0.2,0-0.4,0.1-0.5,0.2c-0.1,0.1-0.2,0.2-0.2,0.4c0,0.1,0,0.2,0.1,0.3
		c0,0.1,0.1,0.1,0.1,0.1c0,0,0.1,0,0.1,0.1c0.1,0,0.1,0,0.2,0c0.2,0,0.4-0.2,0.4-0.5c0-0.2-0.2-0.4-0.5-0.4c0,0,0.1,0,0.1,0
		c0.1,0,0.3,0.1,0.4,0.2c0.1,0.1,0.2,0.3,0.2,0.5c0,0.2-0.1,0.4-0.3,0.5c-0.2,0.1-0.4,0.2-0.7,0.3c-0.3,0-0.5-0.1-0.7-0.3
		c-0.2-0.2-0.4-0.4-0.5-0.7c-0.1-0.3,0-0.6,0.1-0.9c0.2-0.3,0.4-0.5,0.7-0.7c0.3-0.2,0.7-0.3,1.1-0.3c0.8,0,1.5,0.6,1.9,1.3
		c0.2,0.4,0.3,0.8,0.3,1.2c0,0.4-0.1,0.9-0.3,1.3c-0.5,0.8-1.3,1.5-2.3,1.7c-1,0.3-2.1,0.1-3.1-0.4c-1-0.6-1.8-1.5-2.2-2.5
		c-0.4-1.1-0.5-2.3-0.1-3.4c0.4-1.2,1.2-2.1,2.4-2.7c1.1-0.6,2.5-0.9,3.9-1c1-0.1,2.1-0.1,3.1-0.1c-0.3,0.1-0.6,0.3-0.9,0.5
		c-0.3,0.3-0.7,0.6-0.8,1.1c-0.4,0.9,0,2,0.7,2.5c0.8,0.6,1.7,0.3,2.1-0.2c0.2-0.3,0.2-0.6,0.1-0.9c-0.1-0.2-0.3-0.4-0.5-0.4
		c-0.3,0-0.4,0.1-0.5,0.2c-0.1,0.1-0.2,0.2-0.1,0.3c0,0.2,0.2,0.3,0.4,0.3c0.2,0,0.4-0.2,0.3-0.4c0-0.1,0-0.1-0.1-0.2
		c0.2,0.1,0.4,0.6,0.1,0.9c-0.3,0.4-1,0.5-1.5,0.1c-0.5-0.4-0.8-1.3-0.5-2c0.3-0.7,1-1.2,1.6-1.4c0.7-0.2,1.3-0.2,1.9-0.1
		c1.1,0.2,1.6,0.8,1.7,0.7c0,0-0.3-0.5-1.1-0.9c0.8,0,1.7,0,2.5-0.1c1.3-0.1,2.5-0.4,3.6-1C172.1,36.5,167.7,41,164.1,43.9z"/>
	<path fill="#FFFFFF" d="M154.9,54.7c-0.6,0.2-1,0.6-1.3,1.2c0.6,0,1.2,0,1.8,0c0.1-0.1,0.2-0.1,0.2-0.1c0.2,0,0.4,0,0.5,0.1
		c0,0,0,0,0,0c0.4,0,0.7,0,1.1,0c0-0.3-0.1-0.5-0.3-0.7C156.4,54.7,155.6,54.5,154.9,54.7z"/>
	<path fill="#FFFFFF" d="M112.5,52.1c0.1-0.1,0.2-0.3,0.3-0.4c0.1-0.1,0.2-0.3,0.3-0.4c0.1-0.1,0.3-0.2,0.4-0.4c0,0,0,0,0,0
		c-1.1,0.5-2.4,1.3-3.5,2.5c-0.3,0.4-0.6,0.7-0.8,1.1c-0.3,0.4-0.4,0.8-0.6,1.2c0,0.1,0,0.1-0.1,0.2c0.7,0,1.6,0,2.8,0c0,0,0,0,0,0
		C111.4,54.6,111.7,53.2,112.5,52.1z"/>
	<path fill="#FFFFFF" d="M161.5,55.9c1.3,0,2.3,0,2.9,0c0-0.1,0-0.1-0.1-0.2c-0.2-0.4-0.3-0.8-0.6-1.2c-0.2-0.4-0.5-0.8-0.8-1.1
		c-1.2-1.3-2.6-2.1-3.7-2.6c0.1,0,0.1,0.1,0.2,0.1c0.1,0.1,0.3,0.2,0.4,0.4c0.1,0.1,0.2,0.3,0.3,0.4c0.1,0.1,0.2,0.3,0.3,0.4
		C161.3,53.2,161.6,54.6,161.5,55.9C161.5,55.9,161.5,55.9,161.5,55.9z"/>
	<path fill="#FFFFFF" d="M118.1,54.7c-0.7-0.2-1.5,0-2,0.5c-0.2,0.2-0.3,0.4-0.3,0.7c0.3,0,0.7,0,1.1,0c0,0,0,0,0,0
		c0.1-0.1,0.3-0.1,0.5-0.1c0.1,0,0.2,0.1,0.2,0.1c0.6,0,1.2,0,1.8,0C119.1,55.3,118.6,54.8,118.1,54.7z"/>
	<path fill="#FFFFFF" d="M142.5,53.2c-0.1,0-0.2-0.1-0.3-0.1c-0.4,0-0.9,0-1.3-0.1c-1.4-0.3-2.7-1-3.5-2.1c-0.4-0.5-0.7-1.1-0.9-1.7
		c-0.2,0.6-0.5,1.2-0.9,1.7c-0.8,1.1-2.1,1.8-3.5,2.1c-0.4,0.1-0.9,0.1-1.3,0.1c-0.1,0-0.2,0.1-0.3,0.1c-0.5,0.2-1.1,0.6-1.5,1.2
		c-0.3,0.4-0.5,0.9-0.5,1.5c1.3,0,2.5,0,3.7,0c0.5-0.8,1.3-1.4,2.1-2c1.3-0.8,1.5-0.8,2.1-2.1c0.5,0.9,0.4,1.2,1.4,1.6
		c1.4,0.6,2.5,1.4,3.2,2.5c1.2,0,2.4,0,3.6,0c0-0.5-0.3-1.1-0.5-1.5C143.6,53.9,143.1,53.5,142.5,53.2z"/>
	<path fill="#FFFFFF" d="M120.8,53.1C120.8,53.1,120.8,53,120.8,53.1C120.8,53,120.8,53.1,120.8,53.1z"/>
	<path fill="#FFFFFF" d="M125.7,55.8c-0.9-0.6-1.3-1.5-1.8-2.4c-0.4-0.9-0.9-1.7-1.6-2.1c-0.7-0.5-1.7-0.2-2.1,0.4
		c-0.5,0.6-0.5,1.5,0,1.9c0.2,0.2,0.6,0.3,0.9,0.3c0.3,0,0.6-0.2,0.7-0.4c0.1-0.2,0.2-0.5,0.1-0.7c-0.1-0.2-0.3-0.3-0.5-0.3
		c-0.1,0-0.2,0-0.2,0.1c0,0,0.1,0,0.1,0c0.2,0,0.4,0.2,0.4,0.4c0,0.1-0.1,0.3-0.2,0.3c0,0,0,0,0,0.1c-0.1,0.1-0.2,0.1-0.3,0
		c-0.2,0-0.4-0.3-0.4-0.6c0-0.3,0.3-0.5,0.6-0.6c0.3,0,0.7,0.1,0.8,0.4c0.2,0.3,0.1,0.7,0,1c-0.2,0.3-0.6,0.6-1,0.6
		c-0.4,0-0.8-0.1-1.1-0.4c-0.3-0.3-0.5-0.7-0.5-1.2c0-0.5,0.2-0.9,0.5-1.3c0.3-0.4,0.7-0.6,1.2-0.8c-0.3-0.1-0.7-0.2-1-0.2
		c-1.3-0.3-2.7-0.3-3.9,0c-1.2,0.3-2.3,1-3,2c-0.7,1-1,2.2-0.9,3.4c0,0,0,0.1,0,0.1c1,0,2.1,0,3.3,0c0-0.3,0.2-0.7,0.4-0.9
		c0.5-0.6,1.5-0.9,2.4-0.7c0.4,0.1,0.9,0.4,1.2,0.8c0.2,0.3,0.4,0.6,0.5,0.9c2,0,4,0,6.1,0C125.8,55.9,125.7,55.8,125.7,55.8z"/>
	<path fill="#FFFFFF" d="M128.2,53.2c-0.2-0.2-0.5-0.4-0.8-0.4c-0.3,0-0.6,0.1-0.7,0.4c-0.2,0.2-0.2,0.5-0.1,0.7
		c0.1,0.2,0.3,0.3,0.5,0.3c0.2,0,0.3-0.1,0.4-0.2c-0.1,0-0.1,0.1-0.2,0.1c-0.2,0-0.4-0.2-0.4-0.4s0.2-0.4,0.4-0.4
		c0.1,0,0.2,0.1,0.3,0.1c0.1,0.1,0.2,0.3,0.2,0.5c0,0.3-0.3,0.5-0.6,0.5c-0.3,0-0.6-0.2-0.8-0.5c-0.2-0.3-0.1-0.7,0.1-1
		c0.1-0.2,0.3-0.3,0.4-0.4c-1-0.3-2-0.6-2.9-1c-0.3-0.1-0.6-0.2-0.9-0.3c0.6,0.5,1,1.2,1.3,1.9c0.4,0.9,0.9,1.7,1.6,2.2
		c0.7,0.5,1.7,0.3,2.2-0.3c0.1-0.1,0.1-0.1,0.1-0.2c0.1-0.1,0.1-0.3,0.2-0.4C128.6,54,128.5,53.5,128.2,53.2z"/>
	<path fill="#FFFFFF" d="M146.2,52.6c0.2,0.1,0.3,0.2,0.4,0.4c0.2,0.3,0.3,0.7,0.1,1c-0.2,0.3-0.5,0.5-0.8,0.5
		c-0.3,0-0.6-0.3-0.6-0.5c-0.1-0.2,0-0.4,0.2-0.5c0.1-0.1,0.2-0.1,0.3-0.1c0.2,0,0.4,0.2,0.4,0.4s-0.2,0.4-0.4,0.4
		c-0.1,0-0.1,0-0.2-0.1c0.1,0.1,0.2,0.2,0.4,0.2c0.2,0,0.4-0.1,0.5-0.3c0.1-0.2,0-0.5-0.1-0.7c-0.2-0.2-0.4-0.4-0.7-0.4
		c-0.3,0-0.6,0.1-0.8,0.4c-0.3,0.3-0.4,0.9-0.2,1.3c0.1,0.1,0.2,0.3,0.2,0.4c0,0.1,0.1,0.1,0.1,0.2c0.5,0.6,1.5,0.8,2.2,0.3
		c0.7-0.5,1.2-1.3,1.6-2.2c0.3-0.7,0.7-1.4,1.3-1.9c-0.3,0.1-0.6,0.2-0.9,0.3C148.2,51.9,147.2,52.3,146.2,52.6z"/>
	<path fill="#FFFFFF" d="M160,52.4c-0.7-1-1.8-1.7-3-2c-1.2-0.3-2.6-0.2-3.9,0c-0.3,0.1-0.7,0.1-1,0.2c0.5,0.1,0.9,0.4,1.2,0.8
		c0.3,0.4,0.5,0.8,0.5,1.3c0,0.5-0.2,0.9-0.5,1.2c-0.3,0.3-0.7,0.4-1.1,0.4c-0.4,0-0.8-0.3-1-0.6c-0.2-0.3-0.2-0.7,0-1
		c0.2-0.3,0.5-0.5,0.8-0.4c0.3,0,0.6,0.3,0.6,0.6c0.1,0.3-0.1,0.5-0.4,0.6c-0.1,0-0.2,0-0.3,0c0,0,0,0,0,0c-0.1-0.1-0.2-0.2-0.2-0.4
		c0-0.2,0.2-0.4,0.4-0.4c0,0,0.1,0,0.1,0c-0.1,0-0.1-0.1-0.2-0.1c-0.2,0-0.4,0.1-0.5,0.3c-0.1,0.2-0.1,0.5,0.1,0.7
		c0.1,0.2,0.4,0.4,0.7,0.4c0.3,0,0.6-0.1,0.9-0.3c0.5-0.4,0.5-1.3,0-1.9c-0.5-0.6-1.4-0.9-2.1-0.4c-0.7,0.4-1.2,1.3-1.6,2.1
		c-0.4,0.9-0.9,1.8-1.8,2.4c-0.1,0.1-0.2,0.1-0.3,0.2c2,0,4.1,0,6.1,0c0.1-0.3,0.3-0.6,0.5-0.9c0.3-0.4,0.7-0.6,1.2-0.8
		c0.9-0.3,1.8,0.1,2.4,0.7c0.3,0.3,0.4,0.6,0.4,0.9c1.2,0,2.3,0,3.3,0c0,0,0-0.1,0-0.1C161,54.7,160.7,53.4,160,52.4z"/>
	<g>
		<path fill="#FFFFFF" d="M70.2,113.5c-0.1-0.1,0-0.2,0.1-0.2c1.4-0.1,2.9-0.3,4.3-0.4c1.1-0.1,1.9,0.1,2.4,0.7
			c0.5,0.5,0.7,1.2,0.7,2.2c0,1.4,0,2.8,0,4.3c0,1-0.3,1.9-0.8,2.4c-0.5,0.6-1.3,0.9-2.3,1c-1.4,0.1-2.9,0.3-4.3,0.4
			c-0.1,0-0.2-0.1-0.1-0.2c0.1-0.1,0.2-0.2,0.2-0.3c0-3.2,0-6.4,0-9.6C70.4,113.6,70.3,113.6,70.2,113.5z M72.6,115
			c0,2.2,0,4.4,0,6.6c0.5,0,1-0.1,1.4-0.1c0.5,0,0.9-0.2,1.2-0.6c0.3-0.3,0.4-0.7,0.4-1.2c0-1.1,0-2.2,0-3.3c0-0.6-0.1-1-0.4-1.2
			c-0.3-0.3-0.7-0.3-1.2-0.3C73.6,115,73.1,115,72.6,115z"/>
		<path fill="#FFFFFF" d="M80.9,112.5c-0.1-0.1,0-0.2,0.1-0.2c1.1-0.1,2.3-0.2,3.4-0.3c1-0.1,1.8,0.2,2.2,0.7c0.4,0.4,0.6,1.1,0.6,2
			c0,0.7,0,1.4,0,2c0,0.6-0.1,1.1-0.3,1.5c-0.2,0.5-0.5,0.9-1,1.1c0.4,0.9,0.8,1.7,1.2,2.6c0.1,0.1,0.2,0.2,0.3,0.3
			c0.1,0.1,0,0.2-0.1,0.2c-0.8,0.1-1.7,0.1-2.5,0.2c-0.1,0-0.2-0.1-0.1-0.2c0.1-0.1,0.1-0.2,0.2-0.3c-0.4-0.8-0.7-1.5-1.1-2.3
			c-0.2,0-0.4,0-0.6,0c0,0.8,0,1.5,0,2.3c0.1,0.1,0.2,0.2,0.3,0.2c0.1,0.1,0,0.2-0.1,0.3c-0.8,0.1-1.6,0.1-2.4,0.2
			c-0.1,0-0.2-0.1-0.1-0.2c0.1-0.1,0.2-0.2,0.2-0.3c0-3.2,0-6.4,0-9.6C81.1,112.7,81,112.6,80.9,112.5z M83.5,117.9
			c0.6,0,1-0.2,1.3-0.4c0.3-0.2,0.4-0.5,0.4-1.1c0-0.3,0-0.7,0-1c0-0.6-0.1-0.9-0.4-1.1c-0.2-0.2-0.6-0.2-1.3-0.2
			c-0.1,0-0.2,0-0.3,0c0,1.3,0,2.5,0,3.8C83.3,117.9,83.4,117.9,83.5,117.9z"/>
		<path fill="#FFFFFF" d="M90.5,111.9c-0.1-0.1,0-0.2,0.1-0.2c0.8-0.1,1.6-0.1,2.4-0.2c0.2,0,0.2,0.1,0.1,0.2
			c-0.1,0.1-0.2,0.2-0.3,0.3c0,2.1,0,4.3,0,6.4c0,1.4,0.8,1.7,1.4,1.6c0.1,0,0.1,0,0.2,0c0.5,0,0.9-0.2,1.1-0.5
			c0.2-0.3,0.3-0.7,0.3-1.3c0-2.1,0-4.3,0-6.4c-0.1-0.1-0.2-0.2-0.3-0.3c0-0.1,0-0.2,0.1-0.2c0.8,0,1.6-0.1,2.4-0.1
			c0.1,0,0.2,0.1,0.1,0.2c-0.1,0.1-0.2,0.2-0.3,0.3c0,2.3,0,4.6,0,6.9c0,1.1-0.2,1.9-0.7,2.4c-0.6,0.7-1.5,1.1-2.9,1.1
			c-1.4,0.1-2.4-0.2-3-0.8c-0.5-0.5-0.7-1.2-0.7-2.3c0-2.3,0-4.6,0-6.9C90.6,112,90.5,111.9,90.5,111.9z"/>
		<path fill="#FFFFFF" d="M103.9,121c0.1,0.1,0.2,0.2,0.3,0.2c0,0.1,0,0.2-0.1,0.2c-0.8,0-1.6,0.1-2.4,0.1c-0.1,0-0.2-0.1-0.1-0.2
			c0.1-0.1,0.2-0.2,0.2-0.3c0-3.2,0-6.4,0-9.6c-0.1-0.1-0.2-0.2-0.2-0.3c-0.1-0.1,0-0.2,0.1-0.2c1.1-0.1,2.3-0.1,3.4-0.2
			c1,0,1.8,0.2,2.3,0.8c0.4,0.4,0.6,1.1,0.6,2c0,0.7,0,1.4,0,2c0,0.8-0.2,1.6-0.7,2.1c-0.5,0.6-1.2,0.9-2.2,0.9
			c-0.4,0-0.8,0-1.1,0.1C103.9,119.4,103.9,120.2,103.9,121z M104.2,116.7c0.6,0,1-0.1,1.3-0.4c0.3-0.2,0.4-0.5,0.4-1.1
			c0-0.4,0-0.7,0-1.1c0-0.6-0.1-0.9-0.4-1.1c-0.2-0.2-0.6-0.2-1.3-0.2c-0.1,0-0.2,0-0.3,0c0,1.3,0,2.5,0,3.8
			C104,116.7,104.1,116.7,104.2,116.7z"/>
		<path fill="#FFFFFF" d="M110.4,121c0.1-0.1,0.2-0.2,0.2-0.3c0.9-3.2,1.7-6.5,2.6-9.7c-0.1-0.1-0.1-0.2-0.2-0.3
			c-0.1-0.1,0-0.2,0.1-0.2c0.8,0,1.7-0.1,2.5-0.1c0.1,0,0.2,0.1,0.1,0.2c-0.1,0.1-0.1,0.2-0.2,0.3c0.9,3.2,1.7,6.4,2.6,9.6
			c0.1,0.1,0.2,0.2,0.3,0.3c0,0.1,0,0.2-0.1,0.2c-0.8,0-1.6,0-2.4,0.1c-0.1,0-0.2-0.1-0.1-0.2c0.1-0.1,0.2-0.2,0.2-0.2
			c-0.2-0.6-0.3-1.2-0.5-1.9c-0.8,0-1.6,0-2.4,0.1c-0.2,0.6-0.3,1.3-0.5,1.9c0.1,0.1,0.2,0.2,0.2,0.2c0,0.1,0,0.2-0.1,0.2
			c-0.8,0-1.6,0.1-2.4,0.1C110.4,121.2,110.3,121.1,110.4,121z M115.2,116.7c-0.2-0.8-0.5-1.6-0.7-2.4c-0.2,0.8-0.4,1.6-0.6,2.5
			C114.3,116.7,114.7,116.7,115.2,116.7z"/>
		<path fill="#FFFFFF" d="M127.8,118.6c0,0.7,0,1.3,0,2c0,0.1,0,0.1-0.1,0.1c-1.9,0-3.8,0.1-5.8,0.1c-0.1,0-0.2-0.2-0.1-0.2
			c0.1-0.1,0.2-0.2,0.2-0.3c0-3.2,0-6.4,0-9.6c-0.1-0.1-0.2-0.2-0.2-0.3c-0.1-0.1,0-0.2,0.1-0.2c0.8,0,1.6,0,2.4,0
			c0.1,0,0.2,0.1,0.1,0.2c-0.1,0.1-0.2,0.2-0.3,0.3c0,2.7,0,5.4,0,8.1c1,0,2.1,0,3.1,0c0.1-0.1,0.2-0.2,0.3-0.2
			C127.6,118.5,127.8,118.5,127.8,118.6z"/>
		<path fill="#FFFFFF" d="M131.7,119.9c-0.5-0.5-0.7-1.3-0.7-2.4c0-1.4,0-2.8,0-4.2c0-1.1,0.3-1.8,0.7-2.4c0.6-0.6,1.6-1,3-1
			c1.4,0,2.4,0.3,3,0.9c0.5,0.5,0.7,1.3,0.7,2.4c0,0.1,0,0.2,0,0.3c0,0.1-0.1,0.1-0.2,0.1c-0.7,0-1.4,0-2.1,0
			c-0.1,0-0.2-0.1-0.1-0.2c0.1-0.1,0.2-0.2,0.3-0.2c-0.1-0.3-0.2-0.6-0.4-0.8c-0.2-0.3-0.6-0.4-1.1-0.4c-0.1,0-0.1,0-0.2,0
			c-0.5,0-0.9,0.1-1.1,0.5c-0.2,0.3-0.3,0.7-0.3,1.2c0,1.1,0,2.1,0,3.2c0,1.4,0.8,1.7,1.4,1.7c0.1,0,0.1,0,0.2,0
			c0.5,0,0.9-0.1,1.1-0.5c0.2-0.3,0.3-0.7,0.3-1.2c0,0,0-0.1,0-0.1c-0.1-0.1-0.2-0.2-0.3-0.2c-0.1-0.1,0-0.3,0.1-0.3
			c0.7,0,1.4,0,2.1,0c0.1,0,0.2,0.1,0.2,0.2c0,0.3,0,0.7,0,1c0,1.1-0.2,1.9-0.7,2.4c-0.6,0.6-1.6,1-3,1
			C133.3,120.9,132.3,120.6,131.7,119.9z"/>
		<path fill="#FFFFFF" d="M142.2,119.9c-0.5-0.5-0.7-1.3-0.7-2.4c0-1.4,0-2.8,0-4.2c0-1.1,0.3-1.8,0.7-2.4c0.6-0.6,1.6-0.9,3-0.9
			c1.4,0,2.4,0.3,3,1c0.5,0.5,0.7,1.3,0.7,2.4c0,1.4,0,2.8,0,4.2c0,1.1-0.2,1.9-0.7,2.4c-0.6,0.6-1.6,0.9-3,0.9
			C143.8,120.9,142.8,120.6,142.2,119.9z M145.3,112.2c-0.1,0-0.1,0-0.2,0c-0.5,0-0.9,0.1-1.1,0.4c-0.2,0.3-0.3,0.7-0.3,1.3
			c0,1.1,0,2.1,0,3.2c0,1.4,0.8,1.7,1.4,1.7c0.1,0,0.1,0,0.2,0c0.5,0,0.9-0.1,1.1-0.4c0.2-0.3,0.3-0.7,0.3-1.2c0-1.1,0-2.1,0-3.2
			C146.7,112.5,146,112.2,145.3,112.2z"/>
		<path fill="#FFFFFF" d="M152.2,110.8c-0.1-0.1-0.2-0.2-0.2-0.3c-0.1-0.1,0-0.2,0.1-0.2c0.7,0,1.4,0,2.2,0c0.1,0,0.1,0,0.1,0.1
			c0.8,1.7,1.5,3.5,2.3,5.2c0-1.6,0-3.2,0-4.8c-0.1-0.1-0.2-0.2-0.2-0.3c-0.1-0.1,0-0.2,0.1-0.2c0.8,0,1.6,0,2.4,0.1
			c0.1,0,0.2,0.1,0.1,0.2c-0.1,0.1-0.2,0.2-0.2,0.3c0,3.2,0,6.4,0,9.6c0.1,0.1,0.2,0.2,0.2,0.3c0.1,0.1,0,0.2-0.1,0.2
			c-0.8,0-1.6,0-2.4-0.1c-0.1,0-0.2-0.2-0.1-0.2c0.1-0.1,0.1-0.1,0.2-0.2c-0.7-1.7-1.5-3.3-2.2-5c0,1.6,0,3.2,0,4.9
			c0.1,0.1,0.2,0.2,0.3,0.3c0.1,0.1,0,0.2-0.1,0.2c-0.8,0-1.6,0-2.4-0.1c-0.1,0-0.2-0.2-0.1-0.2c0.1-0.1,0.2-0.2,0.2-0.3
			C152.2,117.2,152.2,114,152.2,110.8z"/>
		<path fill="#FFFFFF" d="M168.3,113.6c0-0.7,0.2-1.3,0.7-1.8c0.7-0.7,1.7-1,2.7-1c1,0,1.8,0.4,2.5,1c0.6,0.6,1,1.5,1.1,2.5
			c0.1,1.3-0.6,2.4-2.1,3.3c-0.3,0.2-0.7,0.4-1,0.6c-0.8,0.4-1.3,0.7-1.4,1.2c1.2,0.1,2.4,0.1,3.6,0.2c0.1-0.1,0.2-0.2,0.3-0.2
			c0-0.1,0.2,0,0.2,0.1c0,0.7,0,1.4,0,2.1c0,0.1-0.1,0.1-0.1,0.1c-2.1-0.1-4.2-0.2-6.3-0.3c-0.1,0-0.1-0.1-0.1-0.1
			c0-0.6,0-1.2,0-1.8c-0.1-0.6,0.1-1.7,1.4-2.7c0.6-0.5,1.2-0.8,1.7-1.1c0.6-0.3,1.2-0.5,1.4-1c0.2-0.3,0.1-0.7-0.1-1
			c-0.2-0.4-0.6-0.6-1.1-0.7c-0.4,0-0.7,0.1-0.9,0.3c-0.3,0.3-0.4,0.7-0.4,1.1c0,0.1,0.1,0.2,0.1,0.3c0.1,0.1-0.1,0.2-0.2,0.2
			c-0.7-0.4-1.3-0.8-2-1.2C168.4,113.7,168.3,113.6,168.3,113.6z"/>
		<path fill="#FFFFFF" d="M178.7,119.3c-0.2-0.6-0.3-1.3-0.3-2.1c0-0.4,0-0.8,0-1.2c0-0.8,0.1-1.5,0.3-2.1c0.2-0.6,0.4-1.1,0.8-1.5
			c0.3-0.4,0.8-0.7,1.3-0.9c0.5-0.2,1.1-0.3,1.7-0.2c0.6,0,1.2,0.2,1.7,0.4c0.5,0.3,0.9,0.6,1.3,1c0.7,0.9,1,2.1,1,3.7
			c0,0.4,0,0.8,0,1.2c0,0.8-0.1,1.5-0.3,2.1c-0.2,0.6-0.5,1.1-0.8,1.5c-0.4,0.4-0.8,0.7-1.3,0.8c-0.5,0.2-1.1,0.3-1.7,0.2
			c-0.7,0-1.2-0.2-1.7-0.5c-0.5-0.2-0.9-0.6-1.3-1C179.2,120.5,178.9,119.9,178.7,119.3z M181.2,114.3c-0.4,0.5-0.6,1.4-0.6,2.5
			c0,1.1,0.2,2,0.6,2.5c0.3,0.5,0.8,0.8,1.4,0.9c0.6,0,1-0.1,1.4-0.6c0.4-0.5,0.5-1.4,0.5-2.6c0-1.3-0.2-2.2-0.5-2.7
			c-0.3-0.4-0.8-0.7-1.4-0.7C182,113.5,181.5,113.8,181.2,114.3z"/>
		<path fill="#FFFFFF" d="M189.8,115.7c0-0.6-0.1-1.3-0.1-1.9c0,0,0-0.1,0-0.1c0.4-0.5,0.8-1,1.2-1.6c0,0,0.1,0,0.1,0
			c0.7,0.1,1.4,0.1,2.2,0.2c0.1,0,0.2,0.1,0.1,0.2c-0.1,0.1-0.2,0.2-0.3,0.2c0,3.2,0,6.4,0,9.6c0.1,0.1,0.2,0.2,0.3,0.3
			c0.1,0.1,0,0.2-0.1,0.2c-0.8-0.1-1.6-0.1-2.4-0.2c-0.1,0-0.2-0.2-0.1-0.2c0.1-0.1,0.2-0.2,0.2-0.2c0-2.5,0-5,0-7.5
			c-0.2,0.2-0.4,0.4-0.7,0.6c-0.1,0.1-0.2,0.2-0.2,0.4C190,115.9,189.8,115.9,189.8,115.7z"/>
		<path fill="#FFFFFF" d="M202.7,123c-0.6,0.5-1.5,0.8-2.6,0.7c0,0-0.1,0-0.1,0c-1.2-0.1-2.2-0.5-2.8-1.3c-0.5-0.6-0.8-1.6-0.8-2.7
			c0-1.3,0-2.6,0-3.9c0-0.5,0.1-1,0.3-1.4c0.1-0.4,0.4-0.7,0.7-1c0.6-0.5,1.5-0.8,2.6-0.7c0,0,0.1,0,0.1,0c0.9,0.1,1.7,0.4,2.3,0.9
			c0.5,0.4,0.9,1,1.2,1.6c0,0.1,0,0.2-0.1,0.2c-0.7,0.3-1.3,0.5-2,0.8c-0.1,0.1-0.2-0.1-0.2-0.2c0-0.1,0-0.2,0.1-0.3
			c-0.2-0.3-0.5-0.7-1.2-0.7c-0.5,0-0.8,0-1.1,0.3c-0.2,0.2-0.4,0.6-0.4,1.1c0.5-0.1,1-0.1,1.6-0.1c0.5,0,1,0.2,1.4,0.3
			c0.4,0.2,0.8,0.5,1.1,0.8c0.7,0.7,1,1.6,1,2.7c0,0.1,0,0.3,0,0.4c0,0.5-0.1,1-0.2,1.5C203.3,122.4,203.1,122.7,202.7,123z
			 M201.2,118.9c-0.3-0.3-0.7-0.5-1.1-0.5c-0.5,0-0.8,0.1-1.1,0.3c-0.3,0.3-0.4,0.7-0.4,1.1c0,0.5,0.1,0.9,0.4,1.2
			c0.3,0.3,0.7,0.5,1.1,0.5c0.4,0,0.8-0.1,1.1-0.4c0.3-0.3,0.4-0.6,0.4-1.1C201.6,119.7,201.5,119.3,201.2,118.9z"/>
	</g>
</g>
</svg>
