<?xml version="1.0" encoding="utf-8"?>
<!-- Generator: Adobe Illustrator 18.0.0, SVG Export Plug-In . SVG Version: 6.00 Build 0)  -->
<!DOCTYPE svg PUBLIC "-//W3C//DTD SVG 1.1//EN" "http://www.w3.org/Graphics/SVG/1.1/DTD/svg11.dtd">
<svg version="1.1" id="Layer_1" xmlns="http://www.w3.org/2000/svg" xmlns:xlink="http://www.w3.org/1999/xlink" x="0px" y="0px"
	 width="101px" height="35.1px" viewBox="0 0 101 35.1" enable-background="new 0 0 101 35.1" xml:space="preserve">
<path fill="#3272B9" d="M94.2,35.1c0-3.9,2.9-6.8,6.8-6.8v-1c-0.5,0-1-0.4-1-1c0-0.5,0.4-1,1-1v-1c-0.5,0-1-0.4-1-1s0.4-1,1-1v-1
	c-0.5,0-1-0.4-1-1s0.4-1,1-1v-1c-0.5,0-1-0.4-1-1c0-0.5,0.4-1,1-1v-1c-0.5,0-1-0.4-1-1s0.4-1,1-1v-1c-0.5,0-1-0.4-1-1
	c0-0.5,0.4-1,1-1v-1c-0.5,0-1-0.4-1-1s0.4-1,1-1v-1c-3.9,0-6.8-2.9-6.8-6.8H6.8c0,3.9-2.9,6.8-6.8,6.8v1c0.5,0,1,0.4,1,1s-0.4,1-1,1
	v1c0.5,0,1,0.4,1,1c0,0.5-0.4,1-1,1v1c0.5,0,1,0.4,1,1s-0.4,1-1,1v1c0.5,0,1,0.4,1,1c0,0.5-0.4,1-1,1v1c0.5,0,1,0.4,1,1s-0.4,1-1,1
	v1c0.5,0,1,0.4,1,1s-0.4,1-1,1v1c0.5,0,1,0.4,1,1c0,0.5-0.4,1-1,1v1c3.9,0,6.8,2.9,6.8,6.8"/>
</svg>
