<svg xmlns="http://www.w3.org/2000/svg" width="32" height="32" viewBox="0 0 32 32"><path fill="#356C4A" d="M4.8 20.378C4.8 26.85 9.688 32 16 32s11.2-5.15 11.2-11.622v-.088H4.8v.088z"/><path fill="#44825B" d="M7.418 20.363v.015c0 3.87 2.226 7.098 5.44 8.393.393-.552 1.018-1.44 1.163-1.686-.305.145-1.162.203-1.162.203-.03.015-.06 0-.088-.03-.015-.014-.015-.028-.015-.043 0-.014 0-.03.015-.043 0 0 1.658-2.196 1.906-2.545-.277.116-.888.146-.888.146-.03.016-.06 0-.073-.028s-.015-.058 0-.087l2.24-3.1c.015-.014.03-.027.06-.027.014 0 .042.014.057.028l2.24 3.1c.015.028.015.057 0 .086s-.044.044-.072.03c0 0-.45-.03-.742-.147.247.35 1.745 2.546 1.745 2.546.015.015.015.03.015.044 0 .015 0 .03-.015.044-.014.03-.058.03-.087.03 0 0-.683-.117-.99-.263.147.232.685 1.148 1.034 1.716 3.186-1.294 5.396-4.522 5.396-8.377v-.015-.073H7.418v.088z"/><path fill="#3C5D8F" d="M27.2 20.363v.015C27.2 13.905 18.734 8.9 16 0 13.266 8.916 4.8 13.92 4.8 20.378v-.015h22.4z"/><path fill="#566D9A" d="M24.582 20.363c-.015-2.473-2.02-5.076-4.364-8.087-1.323-1.702-2.733-3.535-4-5.586h-.45c-1.25 2.05-2.677 3.884-4 5.586-2.327 3.01-4.35 5.6-4.364 8.087h17.178z"/><g><path fill="#FFF" d="M23.622 17.644c.102-.073.13-.232.072-.35-.814-1.57-2.095-3.215-3.49-5.018-1.34-1.73-2.78-3.58-4.03-5.658-.028-.044-.058-.088-.087-.103-.058-.072-.146-.072-.203.015-.015.03-.044.06-.073.088-1.264 2.08-2.704 3.94-4.042 5.673-.22.29-.437.567-.655.844l-.538.698c-.102.13-.116.32-.028.407.087.087.262.058.393-.06l3.897-3.446c.13-.116.262-.073.29.102l.8 4c.03.175.176.218.307.116l1.95-1.542c.13-.102.35-.102.48.015l4.536 4.132c.13.13.32.16.422.087z"/></g></svg>