<?xml version="1.0" encoding="UTF-8" standalone="no"?>
<svg width="252px" height="81px" viewBox="0 0 252 81" version="1.1" xmlns="http://www.w3.org/2000/svg" xmlns:xlink="http://www.w3.org/1999/xlink">
    <!-- Generator: Sketch 39.1 (31720) - http://www.bohemiancoding.com/sketch -->
    <title>Slice 1</title>
    <desc>Created with Sketch.</desc>
    <defs></defs>
    <g id="Page-1" stroke="none" stroke-width="1" fill="none" fill-rule="evenodd">
        <g id="PNWDS-Logo---Wide---noclip">
            <g id="Group">
                <g>
                    <g transform="translate(67.636364, 33.090909)" id="Shape">
                        <path d="M2.39272727,15.8363636 L0.727272727,15.8363636 L0.727272727,1.02909091 L3.16363636,1.02909091 C4.44,1.02909091 5.75636364,1.06909091 6.83636364,1.81454545 C7.91052623,2.60087946 8.53352305,3.8618033 8.50545455,5.19272727 C8.52235014,6.40924605 8.00538409,7.57208743 7.09090909,8.37454545 C6.09090909,9.2 4.81454545,9.35636364 3.57454545,9.35636364 L2.37818182,9.35636364 L2.37818182,15.8363636 L2.39272727,15.8363636 Z M2.39272727,7.83636364 L3.48363636,7.83636364 C5.30181818,7.83636364 6.86181818,7.28727273 6.86181818,5.16727273 C6.86181818,2.75272727 4.91636364,2.57454545 2.99272727,2.57454545 L2.38545455,2.57454545 L2.38545455,7.83636364 L2.39272727,7.83636364 Z" fill="#007740"></path>
                        <path d="M10.5854545,11.6363636 L8.8,15.84 L6.98181818,15.84 L13.8181818,0.323636364 L20.4763636,15.8363636 L18.6581818,15.8363636 L16.9090909,11.6363636 L10.5854545,11.6363636 L10.5854545,11.6363636 Z M13.7854545,4.17454545 L11.24,10.1054545 L16.2472727,10.1054545 L13.7854545,4.17454545 Z" fill="#007740"></path>
                        <path d="M32.4,4.26909091 C31.2207777,3.03252388 29.5922329,2.32446094 27.8836364,2.30545455 C24.5854545,2.30545455 21.9127273,5.17090909 21.9127273,8.43272727 C21.9127273,11.6945455 24.6036364,14.5454545 27.9236364,14.5454545 C29.6148847,14.5003689 31.2214333,13.7956279 32.4,12.5818182 L32.4,14.6254545 C31.1143642,15.5579526 29.5699702,16.0663951 27.9818182,16.08 C23.7523212,16.08 20.3236364,12.6513152 20.3236364,8.42181818 C20.3236364,4.19232115 23.7523212,0.763636364 27.9818182,0.763636364 C29.5755535,0.742150354 31.1307186,1.25413886 32.4,2.21818182 L32.4,4.26181818 L32.4,4.26909091 Z" fill="#007740"></path>
                        <polygon fill="#007740" points="36.1890909 15.8363636 34.5454545 15.8363636 34.5454545 1.02909091 36.1963636 1.02909091 36.1963636 15.8363636"></polygon>
                        <polygon fill="#007740" points="40.1563636 2.54545455 40.1563636 6.94545455 45.0909091 6.94545455 45.0909091 8.47636364 40.1563636 8.47636364 40.1563636 15.8218182 38.5090909 15.8218182 38.5090909 1.02909091 45.2436364 1.02909091 45.2436364 2.54545455 40.1527273 2.54545455"></polygon>
                        <polygon fill="#007740" points="48.8945455 15.8363636 47.2436364 15.8363636 47.2436364 1.02909091 48.8945455 1.02909091"></polygon>
                        <path d="M62.5018182,4.26909091 C61.3225958,3.03252388 59.6940511,2.32446094 57.9854545,2.30545455 C54.6872727,2.30545455 52.0145455,5.17090909 52.0145455,8.43272727 C52.0145455,11.6945455 54.7090909,14.5454545 58.0254545,14.5454545 C59.7167029,14.5003689 61.3232514,13.7956279 62.5018182,12.5818182 L62.5018182,14.6254545 C61.2161824,15.5579526 59.6717884,16.0663951 58.0836364,16.08 C53.8541393,16.08 50.4254545,12.6513152 50.4254545,8.42181818 C50.4254545,4.19232115 53.8541393,0.763636364 58.0836364,0.763636364 C59.6773717,0.742150354 61.2325368,1.25413886 62.5018182,2.21818182 L62.5018182,4.26181818 L62.5018182,4.26909091 Z" fill="#007740"></path>
                        <polygon fill="#007740" points="71.4363636 0.403636364 82.9818182 12.4981818 82.9818182 1.02909091 84.6327273 1.02909091 84.6327273 16.5018182 73.0909091 4.42909091 73.0909091 15.8363636 71.44 15.8363636 71.44 0.403636364"></polygon>
                        <path d="M101.716364,8.45090909 C101.732561,11.5754759 99.8628336,14.4013952 96.9807462,15.6083551 C94.0986589,16.815315 90.7731739,16.1650457 88.5580079,13.9613626 C86.3428418,11.7576795 85.6752979,8.43561904 86.8672627,5.54729776 C88.0592275,2.65897647 90.8753912,0.774587437 94,0.774545455 C96.0428199,0.763900583 98.0056248,1.56795627 99.4538851,3.00870908 C100.902145,4.44946189 101.716391,6.40806144 101.716364,8.45090909 L101.716364,8.45090909 Z M87.9309091,8.43272727 C87.9629691,11.7768323 90.6942257,14.4648353 94.0384164,14.443513 C97.382607,14.4221907 100.079366,11.6995791 100.068782,8.35533717 C100.058197,5.01109526 97.3442587,2.30560822 94,2.30545455 C90.6379117,2.3354024 87.9287791,5.07050623 87.9309091,8.43272727 L87.9309091,8.43272727 Z" fill="#007740"></path>
                        <path d="M104.916364,15.8363636 L103.272727,15.8363636 L103.272727,1.02909091 L105.414545,1.02909091 C108.221818,1.02909091 110.832727,1.77454545 110.832727,5.11272727 C110.832727,7.38909091 109.4,9 107.12,9.19636364 L111.847273,15.8327273 L109.818182,15.8327273 L105.341818,9.33454545 L104.930909,9.33454545 L104.930909,15.8327273 L104.916364,15.8363636 Z M104.916364,7.88363636 L105.425455,7.88363636 C107.290909,7.88363636 109.174545,7.52 109.174545,5.23272727 C109.174545,2.79636364 107.389091,2.56363636 105.403636,2.56363636 L104.912727,2.56363636 L104.912727,7.88363636 L104.916364,7.88363636 Z" fill="#007740"></path>
                        <polygon fill="#007740" points="116.763636 15.8363636 115.112727 15.8363636 115.112727 2.54545455 111.538182 2.54545455 111.538182 1.02909091 120.363636 1.02909091 120.363636 2.54545455 116.763636 2.54545455 116.763636 15.8181818"></polygon>
                        <polygon fill="#007740" points="130.683636 7.04 130.683636 1.02909091 132.334545 1.02909091 132.334545 15.8363636 130.683636 15.8363636 130.683636 8.56363636 123.105455 8.56363636 123.105455 15.8363636 121.454545 15.8363636 121.454545 1.02909091 123.105455 1.02909091 123.105455 7.04"></polygon>
                        <polygon fill="#007740" points="139.149091 12.1236364 143.941818 0.261818182 148.727273 12.1236364 152.618182 1.02909091 154.403636 1.02909091 148.727273 16.6036364 143.934545 4.68363636 139.141818 16.6036364 133.472727 1.02909091 135.272727 1.02909091"></polygon>
                        <polygon fill="#007740" points="155.447273 1.02909091 163.123636 1.02909091 163.123636 2.54545455 157.090909 2.54545455 157.090909 6.94545455 162.945455 6.94545455 162.945455 8.47636364 157.090909 8.47636364 157.090909 14.2945455 163.12 14.2945455 163.12 15.8254545 155.447273 15.8254545"></polygon>
                        <path d="M171.96,3.91636364 C171.370909,2.89454545 170.665455,2.30545455 169.414545,2.30545455 C168.782209,2.27690396 168.165109,2.50475027 167.703049,2.93737592 C167.240988,3.37000157 166.973074,3.97079037 166.96,4.60363636 C166.96,5.88 168.276364,6.46909091 169.276364,6.92 L170.258182,7.35272727 C172.181818,8.19636364 173.810909,9.17090909 173.810909,11.5163636 C173.812091,12.7439056 173.319481,13.9203332 172.443986,14.7807804 C171.568491,15.6412277 170.383701,16.1133707 169.156364,16.0909091 C166.781818,16.0909091 165.014545,14.56 164.541818,12.2618182 L166.152727,11.8109091 C166.367273,13.3236364 167.527273,14.56 169.116364,14.56 C170.752418,14.5987031 172.112443,13.3085486 172.16,11.6727273 C172.16,9.94545455 170.803636,9.35636364 169.429091,8.72727273 L168.527273,8.33454545 C166.8,7.54909091 165.305455,6.66545455 165.305455,4.54545455 C165.305455,2.24727273 167.250909,0.774545455 169.447273,0.774545455 C171.055875,0.753613234 172.538243,1.64331587 173.276364,3.07272727 L171.96,3.91636364 Z" fill="#007740"></path>
                        <polygon fill="#007740" points="179.461818 15.8363636 177.818182 15.8363636 177.818182 2.54545455 174.243636 2.54545455 174.243636 1.02909091 183.08 1.02909091 183.08 2.54545455 179.465455 2.54545455 179.465455 15.8181818"></polygon>
                        <path d="M0.345454545,20.6654545 L5.81818182,20.6654545 C10.7854545,20.6654545 14.5963636,22.8472727 14.5963636,28.3018182 C14.5963636,32.7018182 11.4945455,35.4872727 7.15272727,35.4872727 L0.345454545,35.4872727 L0.345454545,20.6654545 L0.345454545,20.6654545 Z M5.72727273,31.0327273 L6.06181818,31.0327273 C7.84727273,31.0327273 9.22181818,30.2072727 9.22181818,28.2618182 C9.22181818,26.1818182 8.02545455,25.2981818 6.06181818,25.2981818 L5.72727273,25.2981818 L5.72727273,31.0327273 L5.72727273,31.0327273 Z" fill="#005198"></path>
                        <path d="M16.3636364,20.6654545 L22.8618182,20.6654545 C26.2,20.6654545 29.0436364,22.08 29.0436364,25.8109091 C29.0436364,28.0509091 28.1781818,28.9927273 26.1781818,29.6581818 L26.1781818,29.7745455 C26.5263118,30.0163158 26.8311903,30.3150476 27.08,30.6581818 L30.3018182,35.4690909 L24.0654545,35.4690909 L21.7090909,30.7163636 L21.6109091,30.7163636 L21.6109091,35.4690909 L16.3636364,35.4690909 L16.3636364,20.6654545 L16.3636364,20.6654545 Z M21.6254545,27.2109091 L21.9890909,27.2109091 C22.8727273,27.2109091 23.7563636,27.0727273 23.7563636,25.9745455 C23.7563636,24.8763636 22.9454545,24.7272727 22.0218182,24.7272727 L21.6109091,24.7272727 L21.6109091,27.24 L21.6254545,27.2109091 Z" fill="#005198"></path>
                        <path d="M44.6436364,20.6654545 L44.6436364,29.4254545 C44.6436364,33.7454545 41.9345455,35.7090909 37.7890909,35.7090909 C33.6436364,35.7090909 30.9345455,33.7454545 30.9345455,29.4254545 L30.9345455,20.6654545 L36.3163636,20.6654545 L36.3163636,28.9127273 C36.3163636,30.0727273 36.3563636,31.0945455 37.7709091,31.0945455 C39.1854545,31.0945455 39.2254545,30.0727273 39.2254545,28.9127273 L39.2254545,20.6654545 L44.6072727,20.6654545 L44.6436364,20.6654545 Z" fill="#005198"></path>
                        <path d="M46.8218182,20.6654545 L53.6363636,20.6654545 C57.0909091,20.6654545 59.6436364,22.4327273 59.6436364,26.12 C59.6436364,29.1454545 57.76,31.0290909 54.7527273,31.0290909 L52,31.0290909 L52,35.4872727 L46.8218182,35.4872727 L46.8218182,20.6654545 L46.8218182,20.6654545 Z M52,27.2727273 L52.5309091,27.2727273 C53.4727273,27.2727273 54.4945455,27.1163636 54.4945455,25.9163636 C54.4945455,24.7163636 53.4036364,24.6981818 52.5127273,24.6981818 L52,24.6981818 L52,27.2727273 L52,27.2727273 Z" fill="#005198"></path>
                        <path d="M63.7127273,35.4727273 L58.0181818,35.4727273 L63.1636364,20.6654545 L69.1127273,20.6654545 L74.3963636,35.4727273 L68.7018182,35.4727273 L68.2109091,33.6254545 L64.1454545,33.6254545 L63.7127273,35.4727273 Z M67.2727273,30.1127273 L66.6436364,27.5018182 C66.4872727,26.8727273 66.3890909,26.2254545 66.28,25.5963636 L66.0836364,25.5963636 L65.0909091,30.1127273 L67.2727273,30.1127273 L67.2727273,30.1127273 Z" fill="#005198"></path>
                        <polygon fill="#005198" points="75.32 20.6654545 80.7018182 20.6654545 80.7018182 30.72 85.2181818 30.72 85.2181818 35.4727273 75.32 35.4727273"></polygon>
                        <path d="M95.3454545,30.1818182 L95.6218182,30.3963636 C96.5854545,31.1418182 97.7418182,31.7527273 98.9781818,31.7527273 C99.5090909,31.7527273 100.352727,31.5381818 100.352727,30.8690909 C100.352727,30.2 99.6472727,30.1418182 99.1563636,30.0436364 L98.0654545,29.8472727 C95.9636364,29.4836364 94.1963636,28.2363636 94.1963636,25.92 C94.1963636,22.4036364 97.3963636,20.4436364 100.618182,20.4436364 C102.273547,20.4257481 103.900491,20.8743865 105.312727,21.7381818 L103.858182,25.5272727 C102.954253,24.8465297 101.865087,24.4560022 100.734545,24.4072727 C100.261818,24.4072727 99.5745455,24.5818182 99.5745455,25.1927273 C99.5745455,25.7418182 100.243636,25.8218182 100.665455,25.92 L101.883636,26.1963636 C104.16,26.7054545 105.810909,27.9236364 105.810909,30.4363636 C105.810909,33.9709091 102.589091,35.72 99.3890909,35.72 C97.4138752,35.695253 95.4688303,35.2319696 93.6945455,34.3636364 L95.3454545,30.1818182 Z" fill="#005198"></path>
                        <path d="M120.912727,20.6654545 L120.912727,29.4254545 C120.912727,33.7454545 118.203636,35.7090909 114.058182,35.7090909 C109.912727,35.7090909 107.203636,33.7454545 107.203636,29.4254545 L107.203636,20.6654545 L112.585455,20.6654545 L112.585455,28.9127273 C112.585455,30.0727273 112.625455,31.0945455 114.04,31.0945455 C115.454545,31.0945455 115.494545,30.0727273 115.494545,28.9127273 L115.494545,20.6654545 L120.876364,20.6654545 L120.912727,20.6654545 Z" fill="#005198"></path>
                        <path d="M124.88,20.6654545 L130.418182,20.6654545 L132.461818,28.44 L132.6,28.44 C132.681511,27.7787217 132.802945,27.122979 132.963636,26.4763636 L134.632727,20.6581818 L140.112727,20.6581818 L142.549091,35.4654545 L137.349091,35.4654545 L136.621818,27.3563636 L136.523636,27.3563636 C136.432954,27.8543111 136.311509,28.3461623 136.16,28.8290909 L134.018182,35.4654545 L130.876364,35.4654545 L128.952727,29.2 C128.7844,28.5958961 128.672406,27.9774955 128.618182,27.3527273 L128.44,27.3527273 C128.4,27.9418182 128.36,28.5490909 128.301818,29.1381818 L127.672727,35.4618182 L122.483636,35.4618182 L124.88,20.6654545 Z" fill="#005198"></path>
                        <path d="M145.949091,20.6654545 L151.487273,20.6654545 L153.530909,28.44 L153.669091,28.44 C153.750585,27.778719 153.872019,27.1229752 154.032727,26.4763636 L155.701818,20.6581818 L161.181818,20.6581818 L163.618182,35.4654545 L158.418182,35.4654545 L157.690909,27.3563636 L157.592727,27.3563636 C157.501891,27.8542781 157.380448,28.3461198 157.229091,28.8290909 L155.087273,35.4654545 L151.945455,35.4654545 L150.021818,29.2 C149.853471,28.5959007 149.741476,27.9774983 149.687273,27.3527273 L149.509091,27.3527273 C149.469091,27.9418182 149.429091,28.5490909 149.370909,29.1381818 L148.741818,35.4618182 L143.552727,35.4618182 L145.949091,20.6654545 Z" fill="#005198"></path>
                        <polygon fill="#005198" points="165.272727 20.6654545 170.654545 20.6654545 170.654545 35.4727273 165.272727 35.4727273"></polygon>
                        <polygon fill="#005198" points="171.927273 20.6654545 183.236364 20.6654545 183.236364 25.4763636 180.272727 25.3381818 180.272727 35.4690909 174.909091 35.4690909 174.909091 25.3418182 171.945455 25.48 171.945455 20.6654545"></polygon>
                    </g>
                    <g id="Shape">
                        <path d="M28,0 C21.1854545,22.2545455 0.0436363636,34.7672727 0,50.9090909 L56,50.9090909 C55.9563636,34.7672727 34.8145455,22.2545455 28,0 L28,0 Z" fill="#005198"></path>
                        <path d="M17.4545455,30.7054545 C11.6145455,38.2218182 6.57454545,44.7272727 6.54545455,50.9090909 L49.4545455,50.9090909 C49.4290909,44.7272727 44.3854545,38.2218182 38.5454545,30.7018182 C35.2363636,26.4363636 31.6945455,21.8618182 28.56,16.7272727 L27.44,16.7272727 C24.3054545,21.8618182 20.7636364,26.4363636 17.4545455,30.7054545 L17.4545455,30.7054545 Z" fill="#2860A3"></path>
                    </g>
                    <g transform="translate(0.000000, 50.909091)" id="Shape">
                        <path d="M0,0.0509090909 C0,16.2181818 12.2327273,29.0909091 28,29.0909091 C43.7672727,29.0909091 56,16.2181818 56,0.0509090909 L56,0 L0,0 L0,0.0509090909 L0,0.0509090909 Z" fill="#007740"></path>
                        <path d="M6.54545455,0.0509090909 C6.54545455,12.6654545 15.9709091,22.5454545 28,22.5454545 C40.0290909,22.5454545 49.4545455,12.6654545 49.4545455,0.0509090909 L49.4545455,0 L6.54545455,0 L6.54545455,0.0509090909 L6.54545455,0.0509090909 Z" fill="#00874B"></path>
                    </g>
                    <path d="M28,73.4545455 C30.7328942,73.458993 33.4404168,72.9303344 35.9709091,71.8981818 L33.3927273,67.6109091 C34.1905228,67.9039375 35.0150483,68.1182898 35.8545455,68.2509091 C35.9264368,68.2835053 36.0113581,68.258801 36.0545455,68.1927273 C36.0784813,68.158669 36.0911932,68.1179907 36.0909091,68.0763636 C36.0911732,68.0358632 36.0784264,67.9963481 36.0545455,67.9636364 L31.6909091,61.6 C32.2866249,61.7976718 32.9047836,61.9198375 33.5309091,61.9636364 C33.6035623,61.9927957 33.6866457,61.9651012 33.7272727,61.8981818 C33.7726696,61.829886 33.7726696,61.7410231 33.7272727,61.6727273 L28.1272727,53.92 C28.0975406,53.8758338 28.0477869,53.8493503 27.9945455,53.8493503 C27.941304,53.8493503 27.8915503,53.8758338 27.8618182,53.92 L22.2618182,61.6727273 C22.2164213,61.7410231 22.2164213,61.829886 22.2618182,61.8981818 C22.3024452,61.9651012 22.3855286,61.9927957 22.4581818,61.9636364 C23.2142351,61.9316274 23.9637718,61.809553 24.6909091,61.6 C24.0909091,62.48 19.9418182,67.96 19.9418182,67.96 C19.9196706,67.99336 19.9082511,68.0326936 19.9090909,68.0727273 C19.9083016,68.1144281 19.9210615,68.1552596 19.9454545,68.1890909 C19.9886419,68.2551646 20.0735632,68.279869 20.1454545,68.2472727 C20.1454545,68.2472727 22.3018182,68.0836364 23.0545455,67.7272727 C22.6909091,68.3272727 21.1272727,70.5418182 20.1454545,71.9345455 C22.6421974,72.9393344 25.3086573,73.4553438 28,73.4545455 L28,73.4545455 Z" id="Shape" fill="#005837"></path>
                    <path d="M47.0727273,44.1236364 C47.3345455,43.9490909 47.5418182,43.8 47.5381818,43.7927273 L47.5381818,43.7927273 C45.5418182,39.7127273 42.2036364,35.4290909 38.5527273,30.7018182 C35.2181818,26.4109091 31.6363636,21.8181818 28.5018182,16.6327273 L28.5018182,16.6327273 L28.2509091,16.2909091 C28.1918975,16.2030929 28.0912117,16.1525884 27.985538,16.1577976 C27.8798644,16.1630069 27.784634,16.2231692 27.7345455,16.3163636 C27.5890909,16.52 27.2654545,16.9745455 27.0072727,17.3309091 C27.0072727,17.3309091 20.7563636,26.4218182 17.4363636,30.7018182 L16.2727273,32.2 L15.7927273,32.8218182 L15.3345455,33.4545455 L14.0363636,35.1563636 L14.0363636,35.1563636 C14.1460527,35.3119781 14.2756381,35.4525662 14.4218182,35.5745455 C14.7425658,35.7775084 15.1627554,35.7207675 15.4181818,35.44 L25.0909091,26.8363636 C25.1996439,26.7049121 25.3782912,26.6543181 25.5398062,26.7092332 C25.7013212,26.7641483 25.8121061,26.9131493 25.8181818,27.0836364 L27.8436364,37.0909091 C27.8499639,37.2710454 27.9646527,37.4294469 28.1338139,37.4916854 C28.302975,37.5539239 28.4929778,37.5076259 28.6145455,37.3745455 L33.4545455,33.5272727 C33.813843,33.2599103 34.3102723,33.2765082 34.6509091,33.5672727 L46.0036364,43.9127273 C46.2790234,44.2029807 46.7077411,44.2875577 47.0727273,44.1236364 L47.0727273,44.1236364 Z" id="Shape" fill="#FFFFFF"></path>
                </g>
            </g>
        </g>
    </g>
</svg>