<?xml version="1.0" encoding="utf-8"?>
<!-- Generator: Adobe Illustrator 18.0.0, SVG Export Plug-In . SVG Version: 6.00 Build 0)  -->
<!DOCTYPE svg PUBLIC "-//W3C//DTD SVG 1.1//EN" "http://www.w3.org/Graphics/SVG/1.1/DTD/svg11.dtd">
<svg version="1.1" id="Layer_1" xmlns="http://www.w3.org/2000/svg" xmlns:xlink="http://www.w3.org/1999/xlink" x="0px" y="0px"
	 viewBox="21.1 1.2 77.9 77.9" enable-background="new 21.1 1.2 77.9 77.9" xml:space="preserve">
<g>
	<path fill="#FFFFFF" d="M60,1.2c-21.5,0-38.9,17.5-38.9,38.9S38.5,79.1,60,79.1s38.9-17.5,38.9-38.9S81.5,1.2,60,1.2z M60,4.5
		c19.6,0,35.6,16,35.6,35.6c0,7.7-2.5,14.9-6.7,20.7c-0.4-7.3-4.1-10-4.1-10c-1.6-3.5-11.1-6.4-11.1-6.4c-3.5-1.2-4.6-2.5-5-3.1
		c0-0.1-0.1-0.1-0.1-0.2v0c0,0,0-0.1-0.1-0.2l0,0c-0.1-0.5-0.5-1.7-0.5-2.1c0,0,0,0.1-0.1,0.3c0-0.3,0-0.6,0-1c0,0,0,0-0.1,0.1
		c1.2-1.5,2.1-3.2,2.8-5c1.1-1.1,1.6-3.7,1.6-3.7c0.7-2,0.5-3,0.2-3.6c0.1-0.3,1.8-5.6-0.6-9.7c0,0-0.9-3.9-5.4-5.6
		c-4.2-2.6-10.5-1-10.5-1c-7.7,1.3-9.3,10.3-9.3,10.3c-0.5,4.1,0.6,6.6,0.7,6.7c-0.4,1,0.3,3.5,0.3,3.5c0.2,1.6,1,2,1.2,2.1
		c0.5,1.9,1.5,3.8,2.6,5.5c0,0,0,0,0,0c0,0,0.1,0.6,0,1.5c0-0.1,0-0.1,0-0.1c0,0.4-0.4,1.7-0.5,1.9v0c-0.4,0.5-0.7,0.9-1.1,1.3
		c-2.9,2.2-9.7,4.3-9.7,4.3c-3,1.2-4.3,2.9-4.3,2.9c-3.1,4.6-4.3,9.2-4.7,11.6c-4.3-5.9-6.9-13.1-6.9-21C24.4,20.5,40.4,4.5,60,4.5z
		"/>
	<line fill="#FFFFFF" x1="68.7" y1="40.8" x2="68.7" y2="40.8"/>
</g>
</svg>
