<?xml version="1.0" encoding="utf-8"?>
<!-- Generator: Adobe Illustrator 18.0.0, SVG Export Plug-In . SVG Version: 6.00 Build 0)  -->
<!DOCTYPE svg PUBLIC "-//W3C//DTD SVG 1.1//EN" "http://www.w3.org/Graphics/SVG/1.1/DTD/svg11.dtd">
<svg version="1.1" id="Layer_1" xmlns="http://www.w3.org/2000/svg" xmlns:xlink="http://www.w3.org/1999/xlink" x="0px" y="0px"
	 viewBox="0 0 82.3 62.9" enable-background="new 0 0 82.3 62.9" xml:space="preserve">
<path fill="#622C90" d="M-14.9,72.8C-14.8,72.8-14.8,72.8-14.9,72.8C-14.8,72.8-14.8,72.8-14.9,72.8C-14.8,72.8-14.8,72.8-14.9,72.8
	z"/>
<path fill="#622C90" d="M4.9,72.9C5,73,5,73,5.1,73.1C5.1,73,5,72.9,5,72.9C5,72.9,4.9,72.9,4.9,72.9z"/>
<path fill="#622C90" d="M76.3,72.9c0.1,0.1,0.2,0.3,0.3,0.4c0.3,0.3,0.5,0.5,0.8,0.7c0-0.2,0-0.3,0-0.4
	C77.1,73.4,76.7,73.2,76.3,72.9z"/>
<path fill="#622C90" d="M33.6,53.8c0.3-0.3,0.6-0.5,0.9-0.7c-0.4,0-0.9-0.1-1.3-0.2C33.4,53.2,33.6,53.5,33.6,53.8z"/>
<path fill="#622C90" d="M48.8,53.8c0-0.3,0.2-0.6,0.4-0.9c-0.4,0.1-0.9,0.1-1.3,0.2C48.1,53.3,48.5,53.5,48.8,53.8z"/>
<g>
	<path fill="#622C90" d="M70.5,60.6c-0.2-0.3-0.5-0.5-0.8-0.6c-0.5,0-0.8,0.3-0.9,0.7c-5.6-0.2-11.2-0.3-16.8-0.4
		c-0.1-0.4-0.3-0.8-0.6-1.1c-0.6-0.7-1.7-1-2.6-0.6c-0.9,0.3-1.6,1.1-2.3,1.8c-0.6,0.7-1.3,1.4-2.1,1.6c-0.8,0.3-1.7,0.1-2.2-0.5
		c-0.5-0.6-0.7-1.4-0.4-2c0.2-0.6,0.8-1,1.4-1c0.6,0,1.1,0.3,1.2,0.8c0.2,0.4,0.1,0.9-0.2,1.1c-0.2,0.2-0.5,0.3-0.7,0.3
		c-0.2,0-0.3,0-0.3,0c0,0,0.1,0.1,0.3,0.1c0.2,0,0.5,0,0.8-0.3c0.3-0.3,0.4-0.8,0.3-1.3c-0.2-0.5-0.8-1-1.5-1
		c-0.7,0-1.5,0.4-1.7,1.2c-0.3,0.8-0.1,1.7,0.5,2.4c0.6,0.7,1.7,1,2.6,0.6c0.9-0.3,1.6-1,2.3-1.7c0.6-0.7,1.3-1.4,2.1-1.7
		c0.8-0.3,1.7-0.1,2.2,0.5c0.5,0.6,0.7,1.4,0.4,2c-0.2,0.6-0.8,1-1.4,1c-0.6,0-1.1-0.3-1.2-0.8c-0.2-0.4-0.1-0.9,0.2-1.1
		c0.2-0.2,0.5-0.3,0.7-0.3c0.2,0,0.3,0,0.3,0c0,0-0.1-0.1-0.3-0.1c-0.2,0-0.5,0-0.8,0.3c-0.3,0.3-0.4,0.8-0.3,1.3
		c0.2,0.5,0.8,1,1.5,1c0.7,0,1.5-0.4,1.7-1.2c0.1-0.3,0.2-0.6,0.1-0.9c5.6,0.1,11.2,0.2,16.8,0.4c0.1,0.4,0.4,0.8,0.9,0.8
		c0.4,0,0.7-0.3,0.9-0.7c0.1-0.2,0.1-0.1,0.3-0.2C70.7,60.9,70.7,60.8,70.5,60.6z"/>
	<path fill="#622C90" d="M39.3,58.2c-0.7,0-1.3,0.4-1.5,1c-0.2,0.5,0,1,0.3,1.3c0.3,0.3,0.6,0.3,0.8,0.3c0.2,0,0.3-0.1,0.3-0.1
		c0,0-0.1,0-0.3,0c-0.2,0-0.5-0.1-0.7-0.3c-0.2-0.2-0.3-0.7-0.2-1.1c0.2-0.4,0.6-0.8,1.2-0.8c0.6,0,1.2,0.4,1.4,1
		c0.2,0.6,0.1,1.5-0.4,2c-0.5,0.6-1.4,0.8-2.2,0.5c-0.8-0.3-1.5-1-2.1-1.7c-0.7-0.7-1.4-1.4-2.3-1.7c-0.9-0.4-2,0-2.6,0.7
		c-0.3,0.3-0.5,0.7-0.6,1.1c-5.8,0.1-11.5,0.2-17.3,0.4c-0.1-0.4-0.4-0.7-0.9-0.7c-0.4,0-0.7,0.3-0.9,0.7c-0.1,0.2-0.1,0.2-0.3,0.3
		c0.2,0.1,0.2,0.1,0.4,0.4c0.2,0.3,0.5,0.5,0.8,0.5c0.4,0,0.8-0.3,0.9-0.8c5.8-0.2,11.5-0.3,17.3-0.4c0,0.3,0,0.6,0.1,0.9
		c0.3,0.8,1.1,1.2,1.7,1.2c0.7,0,1.3-0.5,1.5-1c0.2-0.5,0-1-0.3-1.3c-0.3-0.3-0.6-0.3-0.8-0.3c-0.2,0-0.3,0.1-0.3,0.1
		c0,0,0.1,0,0.3,0c0.2,0,0.5,0.1,0.7,0.3c0.2,0.2,0.3,0.7,0.2,1.1c-0.2,0.4-0.6,0.8-1.2,0.8c-0.6,0-1.2-0.4-1.4-1
		c-0.2-0.6-0.1-1.5,0.4-2c0.5-0.6,1.4-0.8,2.2-0.5c0.8,0.3,1.5,0.9,2.1,1.6c0.6,0.7,1.3,1.4,2.3,1.8c0.9,0.4,2,0.1,2.6-0.6
		c0.6-0.7,0.8-1.7,0.5-2.4C40.8,58.6,40,58.1,39.3,58.2z"/>
</g>
<path fill="#622C90" d="M42.7,29.5c-0.5,0.2-1,0.3-1.5,0.3c-0.5,0-1.1-0.1-1.5-0.3c0,0,0,0,0,0c-0.1,0.1-0.2,0.1-0.3,0.2
	c-0.2,0.2-0.4,0.4-0.3,0.6c0,0.2,0.1,0.4,0.4,0.6c0.1,0.1,0.3,0.2,0.4,0.2c0.4,0.2,0.9,0.2,1.5,0.3c0.2,0,0.5,0,0.7-0.1
	c0.4-0.1,0.8-0.2,1.1-0.5c0.2-0.2,0.3-0.3,0.3-0.5c0-0.2-0.1-0.4-0.3-0.5C43,29.7,42.8,29.6,42.7,29.5z"/>
<path fill="#622C90" d="M81.9,26.5c-0.5-1.2-1.4-2.2-2.5-2.8c-0.5-0.3-1.1-0.5-1.7-0.6c-0.6-0.1-1.2,0-1.8,0.1
	c-1.1,0.3-2,1.1-2.5,2.1c-0.2,0.5-0.3,1-0.3,1.6c0,0.5,0.2,1,0.5,1.4c0.3,0.4,0.6,0.8,1,1c0.4,0.3,0.9,0.4,1.3,0.4
	c0.5,0,0.9-0.1,1.2-0.4c0.3-0.2,0.6-0.6,0.8-0.9c0.2-0.4,0.2-0.8,0.1-1.1c-0.1-0.4-0.3-0.7-0.6-0.9c-0.1-0.1-0.3-0.2-0.5-0.2
	c-0.2-0.1-0.3-0.1-0.5-0.1c-0.3,0-0.6,0.2-0.8,0.4c-0.2,0.2-0.3,0.5-0.3,0.7c0,0.3,0.1,0.5,0.3,0.6c0.2,0.1,0.4,0.2,0.6,0.2
	c0.2,0,0.3-0.1,0.4-0.2c0,0,0,0,0-0.1c0.1-0.1,0.2-0.2,0.1-0.3c0-0.2-0.2-0.4-0.5-0.4c-0.2,0-0.4,0.2-0.4,0.5c0,0.2,0.2,0.3,0.3,0.4
	c0,0-0.1,0-0.1,0c-0.1,0-0.3-0.1-0.4-0.2c-0.1-0.1-0.2-0.3-0.2-0.5c0-0.2,0.1-0.4,0.2-0.6c0.2-0.2,0.4-0.3,0.6-0.3
	c0.3,0,0.5,0.1,0.7,0.3c0.2,0.2,0.4,0.4,0.5,0.7c0.1,0.3,0.1,0.6-0.1,0.9c-0.1,0.3-0.4,0.6-0.7,0.7c-0.3,0.2-0.7,0.3-1,0.3
	c-0.8,0-1.5-0.5-2-1.2c-0.2-0.4-0.4-0.8-0.4-1.2c0-0.4,0.1-0.9,0.3-1.3c0.4-0.8,1.2-1.5,2.2-1.8c1-0.3,2.1-0.2,3,0.4
	c1,0.5,1.8,1.4,2.2,2.5c0.5,1.1,0.6,2.3,0.2,3.4c-0.2,0.6-0.4,1.1-0.8,1.6c-0.4,0.5-0.8,0.8-1.4,1.1c-1.1,0.6-2.4,0.9-3.7,1.1
	c-1.3,0.2-2.7,0.1-4.1,0.1c-1.4-0.1-2.9-0.1-4.3,0c-0.7,0.1-1.5,0.2-2.2,0.4c0-0.2,0-0.4,0-0.6c0-6.9-6.1-12.8-13.7-12.9
	c-1.6,0-3.2,0.2-4.7,0.7c0.1-0.2,0.2-0.4,0.3-0.6c2.5-1.8,4.1-4.8,4.1-7.9c0-4.2-2.4-7.3-7.5-9.6c-1.2-0.5-1.3-0.9-1.8-1.8
	c-0.1-0.3-0.3-0.6-0.5-1L41,0l-0.3,0.7c-0.8,1.9-1.1,2.1-2.5,2.9c-0.3,0.2-0.7,0.4-1.1,0.7c-2.5,1.6-5.5,4.4-5.5,8.7
	c0,3,1.4,5.8,3.7,7.7c0.1,0.3,0.2,0.6,0.4,0.9c-1.5-0.5-3-0.7-4.7-0.7c-7.5,0.1-13.7,5.9-13.7,12.9c0,0.2,0,0.4,0,0.6
	c-0.7-0.2-1.4-0.3-2.2-0.4c-1.4-0.1-2.9-0.1-4.3,0c-1.4,0.1-2.8,0.1-4.1-0.1C5.3,33.8,4,33.5,3,32.9c-0.5-0.3-1-0.7-1.4-1.1
	c-0.4-0.5-0.6-1-0.8-1.6C0.5,29,0.6,27.8,1,26.8c0.5-1.1,1.3-1.9,2.2-2.5c0.9-0.6,2.1-0.7,3-0.4c1,0.3,1.7,1,2.2,1.8
	c0.2,0.4,0.3,0.9,0.3,1.3c0,0.4-0.2,0.9-0.4,1.2c-0.4,0.7-1.2,1.2-2,1.2c-0.4,0-0.7-0.1-1-0.3c-0.3-0.2-0.5-0.4-0.7-0.7
	c-0.1-0.3-0.2-0.6-0.1-0.9c0.1-0.3,0.3-0.5,0.5-0.7c0.2-0.2,0.5-0.3,0.7-0.3c0.3,0,0.5,0.1,0.6,0.3c0.2,0.2,0.3,0.4,0.2,0.6
	c0,0.2-0.1,0.4-0.2,0.5C6.3,27.9,6.2,28,6,28c0,0-0.1,0-0.1,0c0.2,0,0.3-0.2,0.3-0.4c0-0.2-0.1-0.4-0.4-0.5c-0.2,0-0.5,0.2-0.5,0.4
	c0,0.1,0,0.3,0.1,0.3c0,0,0,0,0,0.1c0.1,0.1,0.2,0.2,0.4,0.2c0.2,0,0.4-0.1,0.6-0.2c0.2-0.1,0.3-0.4,0.3-0.6c0-0.3-0.1-0.5-0.3-0.7
	c-0.2-0.2-0.5-0.4-0.8-0.4c-0.2,0-0.3,0-0.5,0.1c-0.2,0.1-0.3,0.1-0.5,0.2c-0.3,0.2-0.5,0.5-0.6,0.9c-0.1,0.4-0.1,0.8,0.1,1.1
	c0.2,0.4,0.4,0.7,0.8,0.9c0.3,0.2,0.8,0.4,1.2,0.4c0.5,0,0.9-0.1,1.3-0.4c0.4-0.3,0.8-0.6,1-1C9,28,9.2,27.5,9.2,27
	c0-0.5-0.1-1.1-0.3-1.6c-0.5-1-1.3-1.8-2.5-2.1c-0.6-0.2-1.2-0.2-1.8-0.1c-0.6,0.1-1.2,0.3-1.7,0.6c-1.1,0.6-2,1.6-2.5,2.8
	c-0.5,1.2-0.6,2.5-0.3,3.8c0.2,0.6,0.5,1.2,0.9,1.8c0,0,0.1,0.1,0.1,0.1C3,36.1,4.8,40,6.6,43.9c0.2,1.7-0.4,3.3-0.4,3.3
	c1,0.5,2.1,1.3,2.8,1.9c1.1,2.3,2.2,4.6,3.2,6.9c0,0,0.2,0,0.5,0c0-0.1,0.1-0.3,0.1-0.4c0.2-0.4,0.3-0.9,0.6-1.3
	c0.2-0.4,0.5-0.8,0.9-1.2c1.4-1.6,3.1-2.4,4.4-2.8c0.8-0.3,1.4-0.4,1.8-0.4c0,0,0.1,0,0.1,0c1.1-0.2,2.2-0.2,3.4-0.1
	c0.5-0.2,1-0.5,1.5-1.1c0.4-0.6,0.8-1.4,0.7-2.1c-0.1-0.8-0.8-1.4-1.5-1.5c-0.3-0.1-0.6,0-0.9,0.2c-0.2,0.2-0.4,0.4-0.4,0.7
	c0,0.2,0,0.3,0.1,0.4c0-0.3,0.2-0.5,0.5-0.5c0.3,0,0.5,0.2,0.5,0.5c0,0.2-0.1,0.4-0.3,0.5c0,0,0,0,0,0c0,0-0.1,0-0.1,0c0,0,0,0,0,0
	c0,0,0,0,0,0c-0.2,0-0.4,0-0.6-0.1c-0.2-0.2-0.4-0.5-0.4-0.8c0-0.3,0.2-0.7,0.5-1c0.3-0.3,0.8-0.4,1.2-0.3c0.9,0.1,1.7,0.9,1.9,1.8
	c0.1,0.5,0,1-0.2,1.4c-0.2,0.4-0.4,0.8-0.7,1.1c-0.3,0.4-0.7,0.7-1.1,0.9c0,0,0.1,0,0.1,0c1.4,0.2,2.7,0.7,4.1,1.2
	c1.3,0.5,2.6,1,3.9,1.2c1.3,0.3,2.7,0.4,3.9,0.2c1.2-0.2,2.4-0.8,3.1-1.8c0.8-0.9,1.1-2.1,1.1-3.3c0-2.3-1.7-4.5-3.8-4.6
	c-1-0.1-2,0.3-2.7,0.9c-0.7,0.6-1,1.6-0.9,2.4c0.1,0.8,0.6,1.6,1.3,1.9c0.7,0.3,1.5,0.1,2-0.4c0.5-0.4,0.6-1.2,0.3-1.7
	c-0.3-0.5-0.9-0.7-1.3-0.5c-0.2,0.1-0.4,0.2-0.5,0.4c-0.1,0.2-0.1,0.4,0,0.5c0,0.1,0.1,0.2,0.2,0.3c-0.1-0.1-0.1-0.2-0.1-0.3
	c0-0.3,0.2-0.5,0.5-0.5c0.2,0,0.4,0.2,0.5,0.4c0,0,0,0,0,0c0.1,0.1,0,0.4-0.3,0.6c-0.1,0.1-0.3,0.1-0.5,0.1c-0.2,0-0.4-0.2-0.5-0.4
	c-0.1-0.2-0.1-0.5,0-0.7c0.1-0.3,0.3-0.5,0.6-0.6c0.3-0.1,0.6-0.2,0.9-0.1c0.3,0.1,0.6,0.3,0.8,0.6c0.4,0.6,0.3,1.5-0.3,2.1
	c-0.6,0.6-1.5,0.8-2.4,0.5c-0.4-0.2-0.8-0.5-1.1-0.8c-0.3-0.4-0.5-0.8-0.6-1.3c-0.2-1,0.2-2.1,1-2.9c0.8-0.7,1.9-1.2,3.1-1.1
	c1.2,0.1,2.3,0.7,3.1,1.6c0.4,0.5,0.8,1.1,1,1.8c0.2-0.7,0.5-1.3,1-1.8c0.8-1,1.9-1.6,3.1-1.6c1.2-0.1,2.3,0.4,3.1,1.1
	c0.8,0.7,1.2,1.9,1,2.9c-0.1,0.5-0.3,1-0.6,1.3c-0.3,0.4-0.7,0.7-1.1,0.8c-0.9,0.3-1.8,0.1-2.4-0.5c-0.6-0.6-0.7-1.5-0.3-2.1
	c0.2-0.3,0.5-0.5,0.8-0.6c0.3-0.1,0.6-0.1,0.9,0.1c0.3,0.1,0.5,0.3,0.6,0.6c0.1,0.2,0.1,0.5,0,0.7c-0.1,0.2-0.3,0.4-0.5,0.4
	c-0.2,0.1-0.4,0-0.5-0.1C46,46.7,46,46.5,46,46.3c0,0,0,0,0,0c0-0.3,0.2-0.5,0.5-0.5c0.3,0,0.5,0.2,0.5,0.5c0,0.1,0,0.2-0.1,0.3
	c0.1-0.1,0.2-0.1,0.2-0.3c0.1-0.2,0.1-0.4,0-0.5c-0.1-0.2-0.2-0.3-0.5-0.4c-0.4-0.2-1,0-1.3,0.5c-0.3,0.5-0.2,1.2,0.3,1.7
	c0.5,0.5,1.3,0.7,2,0.4c0.7-0.3,1.2-1,1.3-1.9c0.1-0.8-0.2-1.8-0.9-2.4c-0.7-0.6-1.7-1-2.7-0.9c-2.1,0.1-3.8,2.3-3.8,4.6
	c0,1.2,0.4,2.3,1.1,3.3c0.7,1,1.9,1.6,3.1,1.8c1.3,0.2,2.6,0.1,3.9-0.2c1.3-0.3,2.6-0.7,3.9-1.2c1.3-0.5,2.7-0.9,4.1-1.2
	c0,0,0.1,0,0.1,0c-0.4-0.2-0.8-0.5-1.1-0.9c-0.3-0.3-0.5-0.7-0.7-1.1c-0.2-0.4-0.3-0.9-0.2-1.4c0.2-1,1-1.7,1.9-1.8
	c0.5-0.1,0.9,0.1,1.2,0.3c0.3,0.3,0.5,0.6,0.5,1c0,0.4-0.2,0.7-0.4,0.8c-0.2,0.1-0.4,0.2-0.6,0.1c0,0,0,0,0,0c0,0,0,0,0,0
	c0,0-0.1,0-0.1,0c0,0,0,0,0,0c-0.2-0.1-0.3-0.2-0.3-0.5c0-0.3,0.2-0.5,0.5-0.5c0.3,0,0.5,0.2,0.5,0.5c0.1-0.1,0.1-0.3,0.1-0.4
	c0-0.2-0.2-0.5-0.4-0.7c-0.2-0.2-0.6-0.3-0.9-0.2c-0.7,0.1-1.3,0.7-1.5,1.5c-0.1,0.8,0.2,1.6,0.7,2.1c0.4,0.5,1,0.9,1.5,1.1
	c1.1-0.1,2.2-0.1,3.4,0.1c0,0,0,0,0.1,0c0.3,0,1,0.1,1.9,0.4c1.2,0.4,3,1.2,4.4,2.8c0.3,0.4,0.7,0.8,0.9,1.2
	c0.3,0.4,0.4,0.9,0.6,1.3c0,0.1,0.1,0.3,0.1,0.4c0.2,0,0.4,0,0.4,0c1.1-2.4,2.2-4.8,3.3-7.1c0.7-0.6,1.6-1.3,2.6-1.7
	c0,0-0.5-1.3-0.4-2.8c1.9-4.1,3.8-8.1,5.7-12.2c0,0,0,0,0,0c0.4-0.5,0.7-1.1,0.9-1.8C82.5,29.1,82.4,27.7,81.9,26.5z M34.9,18.9
	c0,0.2,0,0.4,0,0.6c-1.7-1.7-2.7-4-2.7-6.5c0-4,2.8-6.6,5.2-8.1c0.4-0.3,0.8-0.5,1.1-0.7c1.3-0.8,1.8-1.1,2.5-2.6
	c0,0.1,0.1,0.2,0.1,0.3c0.5,1,0.7,1.5,2.2,2.1c4.7,2.2,7,5.1,7,9c0,2.6-1.1,5-3,6.7c0-0.3,0.1-0.6,0.1-0.9c0-2.9-2-4.8-4.8-6.1
	c-1.1-0.5-1-0.8-1.6-1.9c-0.7,1.6-0.9,1.5-2.5,2.5C36.5,14.6,34.9,16.4,34.9,18.9z M13.6,43.1c-0.2-0.4-0.3-0.8-0.3-1.3
	c0-0.4,0.1-0.9,0.3-1.2c0.4-0.7,1.2-1.3,1.9-1.3c0.4,0,0.8,0.1,1.1,0.3c0.3,0.2,0.6,0.4,0.7,0.7c0.2,0.3,0.2,0.6,0.1,0.9
	c-0.1,0.3-0.2,0.5-0.5,0.7c-0.2,0.2-0.5,0.3-0.7,0.3c-0.3,0-0.5-0.1-0.7-0.3c-0.2-0.2-0.3-0.3-0.3-0.5c0-0.2,0.1-0.4,0.2-0.5
	c0.1-0.1,0.3-0.2,0.4-0.2c0,0,0.1,0,0.1,0c-0.2,0-0.4,0.2-0.5,0.4c0,0.2,0.2,0.4,0.4,0.5c0.1,0,0.1,0,0.2,0c0,0,0.1,0,0.1-0.1
	c0,0,0.1,0,0.1-0.1c0-0.1,0.1-0.1,0.1-0.3c0-0.1,0-0.3-0.2-0.4c-0.1-0.1-0.3-0.2-0.5-0.2c-0.2,0-0.4,0.1-0.6,0.2
	c-0.2,0.2-0.3,0.4-0.3,0.6c0,0.3,0.1,0.5,0.3,0.7c0.2,0.2,0.5,0.3,0.8,0.4c0.2,0,0.3,0,0.5-0.1c0.2-0.1,0.3-0.1,0.5-0.3
	c0.3-0.2,0.5-0.5,0.6-0.9c0.1-0.4,0.1-0.8-0.1-1.1c-0.2-0.4-0.5-0.7-0.9-0.9c-0.4-0.2-0.8-0.3-1.3-0.3c-0.5,0-1,0.2-1.4,0.4
	c-0.4,0.3-0.7,0.6-1,1.1c-0.3,0.4-0.4,0.9-0.4,1.4c0,0.5,0.1,1,0.4,1.5c0.1,0.2,0.2,0.3,0.3,0.4C9.9,41,5.6,36.5,3,33.6
	c1.1,0.5,2.3,0.8,3.5,1c0.8,0.1,1.7,0.1,2.5,0.1C8.3,35.1,8,35.5,8,35.6c0.1,0.1,0.6-0.5,1.7-0.7c0.5-0.1,1.2-0.1,1.9,0.1
	c0.6,0.2,1.4,0.7,1.6,1.4c0.3,0.7,0,1.6-0.5,2c-0.5,0.4-1.2,0.3-1.5-0.1c-0.3-0.3-0.1-0.7,0.1-0.9c0,0-0.1,0.1-0.1,0.2
	c0,0.2,0.1,0.4,0.3,0.4c0.2,0,0.4-0.1,0.4-0.3c0-0.1,0-0.2-0.1-0.3c0-0.1-0.2-0.2-0.5-0.2c-0.2,0-0.4,0.2-0.5,0.4
	c-0.1,0.2-0.1,0.6,0.1,0.9c0.4,0.5,1.3,0.8,2.1,0.2c0.7-0.5,1.1-1.6,0.7-2.5c-0.2-0.5-0.5-0.8-0.8-1.1c-0.3-0.2-0.6-0.4-0.9-0.5
	c1.1,0,2.1,0,3.1,0.1c1.4,0.1,2.7,0.4,3.9,1c1.2,0.6,2,1.6,2.4,2.7c0.4,1.1,0.4,2.4-0.1,3.4c-0.4,1.1-1.2,2-2.2,2.5
	c-0.9,0.6-2.1,0.7-3.1,0.4C14.9,44.6,14.1,43.9,13.6,43.1z M17.9,46.4c-0.7-0.1-1.6-0.6-2.5-1.2c0.1,0,0.2,0.1,0.3,0.1
	c0.6,0.2,1.2,0.2,1.8,0.1c0.6-0.1,1.2-0.3,1.8-0.6c0.9-0.5,1.6-1.3,2.2-2.2c0.1,0.1,0.2,0.1,0.2,0.2C21.4,45,20.4,46.8,17.9,46.4z
	 M58.1,39.9c0.1-0.3,0.2-0.5,0.3-0.8c0.4-1.3,0.2-2.6-0.3-3.8c-0.5-1.2-1.4-2.1-2.5-2.7c-0.5-0.3-1.1-0.5-1.7-0.6
	c-0.6-0.1-1.2,0-1.8,0.2c-1.1,0.4-2,1.2-2.5,2.2c-0.2,0.5-0.3,1-0.3,1.6c0,0.5,0.2,1,0.5,1.4c0.3,0.4,0.6,0.8,1.1,1
	c0.4,0.2,0.9,0.4,1.3,0.4c0.5,0,0.9-0.2,1.2-0.4c0.3-0.2,0.6-0.6,0.8-0.9c0.2-0.4,0.2-0.8,0.1-1.1c-0.1-0.4-0.3-0.7-0.6-0.9
	c-0.1-0.1-0.3-0.2-0.5-0.2c-0.2-0.1-0.3-0.1-0.5-0.1c-0.3,0-0.6,0.2-0.8,0.4c-0.2,0.2-0.3,0.5-0.3,0.7c0,0.3,0.1,0.5,0.3,0.6
	c0.2,0.1,0.4,0.2,0.6,0.2c0.2,0,0.3-0.1,0.4-0.2c0,0,0,0,0-0.1c0.1-0.1,0.2-0.2,0.1-0.3c0-0.2-0.2-0.4-0.5-0.4
	c-0.2,0-0.4,0.2-0.4,0.5c0,0.2,0.2,0.3,0.3,0.4c0,0-0.1,0-0.1,0c-0.1,0-0.3-0.1-0.4-0.2c-0.1-0.1-0.2-0.3-0.2-0.5
	c0-0.2,0.1-0.4,0.2-0.6c0.2-0.2,0.4-0.3,0.6-0.3c0.3,0,0.5,0.1,0.7,0.2c0.2,0.2,0.4,0.4,0.5,0.7c0.1,0.3,0.1,0.6-0.1,0.9
	c-0.1,0.3-0.4,0.6-0.7,0.8c-0.3,0.2-0.7,0.3-1,0.3c-0.8,0-1.5-0.5-2-1.2c-0.2-0.4-0.4-0.8-0.4-1.2c0-0.4,0.1-0.9,0.3-1.3
	c0.4-0.8,1.2-1.6,2.2-1.9c1-0.3,2.1-0.2,3,0.3c1,0.5,1.8,1.4,2.2,2.4c0.5,1,0.6,2.3,0.2,3.4c-0.2,0.6-0.4,1.1-0.8,1.6
	c-0.2,0.3-0.4,0.5-0.7,0.7c-0.5,0.4-1.1,0.7-1.7,1c-0.8,0.3-1.8,0.6-2.7,0.7c-0.8,0.1-1.7,0.2-2.6,0.2c-0.4-0.1-0.7-0.3-1.1-0.5
	c-3.4-2.1-5.4-5.8-6.4-8c0.8,0.8,1.9,0.9,2.4,0.1c-0.1,0-0.1,0-0.2,0c-0.5,0-0.9-0.1-1.2-0.5c-0.3-0.4-0.4-0.9-0.5-1.3
	c-0.1-0.4-0.1-0.7-0.1-1.1c-0.8,0.2-1.5,0.2-2.3,0c0,0.1,0,0.2,0,0.2c-0.1,0.5-0.1,1-0.2,1.4c-0.1,0.6-0.4,1.1-1.1,1.3
	c-0.2,0-0.4,0-0.7,0c0.2,0.2,0.5,0.4,0.8,0.5c0.1,0,0.2,0,0.3,0c0.6,0,1-0.2,1.3-0.7c-1,2.2-3,5.9-6.4,8c-0.3,0.2-0.7,0.4-1.1,0.5
	c-0.9,0-1.7-0.1-2.6-0.2c-0.9-0.1-1.9-0.4-2.7-0.7c-0.6-0.3-1.2-0.6-1.7-1c-0.2-0.2-0.5-0.4-0.6-0.7c-0.4-0.5-0.6-1-0.8-1.6
	c-0.3-1.1-0.2-2.3,0.2-3.4c0.5-1,1.3-1.9,2.2-2.4c0.9-0.6,2.1-0.6,3-0.3c1,0.3,1.7,1,2.2,1.9c0.2,0.4,0.3,0.9,0.3,1.3
	c0,0.4-0.2,0.9-0.4,1.2c-0.4,0.7-1.2,1.2-2,1.2c-0.4,0-0.7-0.1-1-0.3c-0.3-0.2-0.5-0.5-0.7-0.8c-0.1-0.3-0.2-0.6-0.1-0.9
	c0.1-0.3,0.3-0.5,0.5-0.7c0.2-0.2,0.5-0.3,0.7-0.2c0.3,0,0.5,0.1,0.6,0.3c0.2,0.2,0.3,0.4,0.2,0.6c0,0.2-0.1,0.4-0.2,0.5
	c-0.1,0.1-0.3,0.2-0.4,0.2c0,0-0.1,0-0.1,0c0.2,0,0.3-0.2,0.3-0.4c0-0.2-0.1-0.4-0.4-0.5c-0.2,0-0.5,0.1-0.5,0.4
	c0,0.1,0,0.3,0.1,0.3c0,0,0,0,0,0.1c0.1,0.1,0.2,0.2,0.4,0.2c0.2,0,0.4-0.1,0.6-0.2c0.2-0.1,0.3-0.4,0.3-0.6c0-0.3-0.1-0.5-0.3-0.7
	c-0.2-0.2-0.5-0.4-0.8-0.4c-0.2,0-0.3,0-0.5,0.1c-0.2,0.1-0.3,0.1-0.5,0.2c-0.3,0.2-0.5,0.5-0.6,0.9c-0.1,0.4-0.1,0.8,0.1,1.1
	c0.2,0.4,0.4,0.7,0.8,0.9c0.3,0.2,0.8,0.4,1.2,0.4c0.5,0,0.9-0.1,1.3-0.4c0.4-0.2,0.8-0.6,1.1-1c0.3-0.4,0.4-0.9,0.5-1.4
	c0-0.5-0.1-1.1-0.3-1.6c-0.5-1-1.3-1.8-2.5-2.2c-0.6-0.2-1.2-0.3-1.8-0.2c-0.6,0.1-1.2,0.2-1.7,0.6c-1.1,0.6-2,1.5-2.5,2.7
	c-0.5,1.2-0.6,2.5-0.3,3.8c0.1,0.3,0.2,0.6,0.3,0.8c-1.5-1.2-2.5-2.2-2.8-2.4c-0.2-0.4-0.4-0.7-0.7-1c-0.5-0.5-1-1-1.7-1.3
	c-0.4-0.2-0.8-0.4-1.1-0.5c0-0.3-0.1-0.6-0.1-0.9c0-6.5,5.8-12,12.9-12.1c1.4,0,2.7,0.2,3.9,0.5c-0.6,0-1.2,0.1-1.9,0.3
	c-1.4,0.4-2.3,1.4-2.7,2.8c-0.1,0.2-0.1,0.5-0.1,0.7c0,0.2,0,0.4,0,0.6c0,0.1,0,0.1,0,0.2c0.1,0.6,0.2,1.2,0.5,1.7
	c0.4,0.6,0.8,1.1,1.4,1.5c1,0.7,2.1,1.1,3.4,0.9c0.5-0.1,1-0.3,1.4-0.7c0.4-0.5,0.6-1.1,0.5-1.8c-0.2-1-1-1.8-2-1.6
	c-0.6,0.1-1.1,0.6-1.2,1.2c-0.1,0.7,0.3,1.3,0.9,1.5c0,0,0.1,0,0.1,0.1c-0.3,0-0.6,0-0.8-0.2c-0.5-0.5-0.7-1.1-0.6-1.7
	c0.1-0.8,0.7-1.3,1.4-1.5c0.7-0.2,1.4-0.1,2,0.1c0-0.1,0-0.2,0-0.3c0-1.6,1-2.7,2.2-3.5c1-0.6,1.2-0.6,1.6-1.6
	c0.4,0.7,0.3,0.9,1,1.2c1.8,0.8,3,2,3,3.9c0,0.1,0,0.2,0,0.3c0.5-0.2,1-0.3,1.5-0.2c0.2,0,0.4,0.1,0.5,0.1c0.7,0.2,1.2,0.7,1.4,1.3
	c0.2,0.6,0.1,1.2-0.3,1.8c-0.1,0.1-0.2,0.2-0.3,0.3c-0.2,0.1-0.4,0.2-0.7,0.2c0,0,0.1,0,0.1,0c0,0,0,0,0,0c0.2-0.1,0.4-0.2,0.5-0.4
	c0.1-0.2,0.2-0.3,0.3-0.5c0-0.1,0-0.2,0.1-0.3c0-0.3-0.1-0.6-0.3-0.9c-0.1-0.1-0.2-0.2-0.2-0.3c-0.6-0.5-1.7-0.4-2.3,0.3
	c-0.3,0.3-0.4,0.7-0.5,1.1c0,0.2,0,0.4,0,0.5c0,0.5,0.3,1,0.7,1.3c0.3,0.2,0.6,0.4,0.9,0.5c0.5,0.2,1,0.2,1.6,0.1
	c0.6-0.1,1.2-0.3,1.7-0.6c0.5-0.3,0.9-0.7,1.3-1.2c0.8-0.9,1-2,0.9-3.2c0-0.2-0.1-0.5-0.1-0.7c-0.1-0.5-0.4-1-0.8-1.4
	c-0.4-0.4-0.8-0.8-1.3-1c-0.8-0.4-1.6-0.6-2.5-0.5c1.3-0.4,2.6-0.6,4-0.5c7.1,0.1,12.9,5.6,12.9,12.1c0,0.3,0,0.6-0.1,0.9
	c-0.4,0.1-0.8,0.3-1.1,0.5c-0.6,0.3-1.2,0.8-1.7,1.3c-0.3,0.3-0.5,0.7-0.7,1.1C60.4,37.8,59.4,38.8,58.1,39.9z M64.4,46.4
	c-2.8,0.4-3.7-1.9-3.9-4.3c0.5,1.2,1.4,2.1,2.5,2.7c0.5,0.3,1.1,0.5,1.8,0.6c0.6,0.1,1.2,0,1.8-0.1c0.1,0,0.3-0.1,0.4-0.2
	C66,45.9,65.2,46.3,64.4,46.4z M68.8,43.9c0.1-0.2,0.3-0.3,0.4-0.5c0.3-0.5,0.4-1,0.4-1.5c0-0.5-0.2-1-0.4-1.4
	c-0.2-0.4-0.6-0.8-1-1.1c-0.4-0.3-0.9-0.4-1.4-0.4c-0.5,0-0.9,0.1-1.3,0.3c-0.4,0.2-0.7,0.5-0.9,0.9c-0.2,0.4-0.2,0.8-0.1,1.1
	c0.1,0.4,0.3,0.7,0.6,0.9c0.1,0.1,0.3,0.2,0.5,0.3c0.2,0.1,0.3,0.1,0.5,0.1c0.3,0,0.6-0.2,0.8-0.4c0.2-0.2,0.3-0.5,0.3-0.7
	c0-0.3-0.1-0.5-0.3-0.6c-0.2-0.2-0.4-0.2-0.6-0.2c-0.2,0-0.4,0.1-0.5,0.2c-0.1,0.1-0.2,0.2-0.2,0.4c0,0.1,0,0.2,0.1,0.3
	c0,0.1,0.1,0.1,0.1,0.1c0,0,0.1,0,0.1,0.1c0.1,0,0.1,0,0.2,0c0.2,0,0.4-0.2,0.4-0.5c0-0.2-0.2-0.4-0.5-0.4c0,0,0.1,0,0.1,0
	c0.1,0,0.3,0.1,0.4,0.2c0.1,0.1,0.2,0.3,0.2,0.5c0,0.2-0.1,0.4-0.3,0.5c-0.2,0.1-0.4,0.2-0.7,0.3c-0.3,0-0.5-0.1-0.7-0.3
	c-0.2-0.2-0.4-0.4-0.5-0.7c-0.1-0.3,0-0.6,0.1-0.9c0.2-0.3,0.4-0.5,0.7-0.7c0.3-0.2,0.7-0.3,1.1-0.3c0.8,0,1.5,0.6,1.9,1.3
	c0.2,0.4,0.3,0.8,0.3,1.2c0,0.4-0.1,0.9-0.3,1.3c-0.5,0.8-1.3,1.5-2.3,1.7c-1,0.3-2.1,0.1-3.1-0.4c-1-0.6-1.8-1.5-2.2-2.5
	c-0.4-1.1-0.5-2.3-0.1-3.4c0.4-1.2,1.2-2.1,2.4-2.7c1.1-0.6,2.5-0.9,3.9-1c1-0.1,2.1-0.1,3.1-0.1c-0.3,0.1-0.6,0.3-0.9,0.5
	c-0.3,0.3-0.7,0.6-0.8,1.1c-0.4,0.9,0,2,0.7,2.5c0.8,0.6,1.7,0.3,2.1-0.2c0.2-0.3,0.2-0.6,0.1-0.9c-0.1-0.2-0.3-0.4-0.5-0.4
	c-0.3,0-0.4,0.1-0.5,0.2c-0.1,0.1-0.2,0.2-0.1,0.3c0,0.2,0.2,0.3,0.4,0.3c0.2,0,0.4-0.2,0.3-0.4c0-0.1,0-0.1-0.1-0.2
	c0.2,0.1,0.4,0.6,0.1,0.9c-0.3,0.4-1,0.5-1.5,0.1c-0.5-0.4-0.8-1.3-0.5-2c0.3-0.7,1-1.2,1.6-1.4c0.7-0.2,1.3-0.2,1.9-0.1
	c1.1,0.2,1.6,0.8,1.7,0.7c0,0-0.3-0.5-1.1-0.9c0.8,0,1.7,0,2.5-0.1c1.3-0.1,2.5-0.4,3.6-1C76.8,36.5,72.4,41,68.8,43.9z"/>
<path fill="#622C90" d="M59.6,54.7c-0.6,0.2-1,0.6-1.3,1.2c0.6,0,1.2,0,1.8,0c0.1-0.1,0.2-0.1,0.2-0.1c0.2,0,0.4,0,0.5,0.1
	c0,0,0,0,0,0c0.4,0,0.7,0,1.1,0c0-0.3-0.1-0.5-0.3-0.7C61.1,54.7,60.3,54.5,59.6,54.7z"/>
<path fill="#622C90" d="M17.2,52.1c0.1-0.1,0.2-0.3,0.3-0.4c0.1-0.1,0.2-0.3,0.3-0.4c0.1-0.1,0.3-0.2,0.4-0.4c0,0,0,0,0,0
	c-1.1,0.5-2.4,1.3-3.5,2.5c-0.3,0.4-0.6,0.7-0.8,1.1c-0.3,0.4-0.4,0.8-0.6,1.2c0,0.1,0,0.1-0.1,0.2c0.7,0,1.6,0,2.8,0c0,0,0,0,0,0
	C16,54.6,16.4,53.2,17.2,52.1z"/>
<path fill="#622C90" d="M66.2,55.9c1.3,0,2.3,0,2.9,0c0-0.1,0-0.1-0.1-0.2c-0.2-0.4-0.3-0.8-0.6-1.2c-0.2-0.4-0.5-0.8-0.8-1.1
	c-1.2-1.3-2.6-2.1-3.7-2.6c0.1,0,0.1,0.1,0.2,0.1c0.1,0.1,0.3,0.2,0.4,0.4c0.1,0.1,0.2,0.3,0.3,0.4c0.1,0.1,0.2,0.3,0.3,0.4
	C66,53.2,66.3,54.6,66.2,55.9C66.2,55.9,66.2,55.9,66.2,55.9z"/>
<path fill="#622C90" d="M22.8,54.7c-0.7-0.2-1.5,0-2,0.5c-0.2,0.2-0.3,0.4-0.3,0.7c0.3,0,0.7,0,1.1,0c0,0,0,0,0,0
	c0.1-0.1,0.3-0.1,0.5-0.1c0.1,0,0.2,0.1,0.2,0.1c0.6,0,1.2,0,1.8,0C23.8,55.3,23.3,54.8,22.8,54.7z"/>
<path fill="#622C90" d="M47.2,53.2c-0.1,0-0.2-0.1-0.3-0.1c-0.4,0-0.9,0-1.3-0.1c-1.4-0.3-2.7-1-3.5-2.1c-0.4-0.5-0.7-1.1-0.9-1.7
	c-0.2,0.6-0.5,1.2-0.9,1.7c-0.8,1.1-2.1,1.8-3.5,2.1c-0.4,0.1-0.9,0.1-1.3,0.1c-0.1,0-0.2,0.1-0.3,0.1c-0.5,0.2-1.1,0.6-1.5,1.2
	c-0.3,0.4-0.5,0.9-0.5,1.5c1.3,0,2.5,0,3.7,0c0.5-0.8,1.3-1.4,2.1-2c1.3-0.8,1.5-0.8,2.1-2.1c0.5,0.9,0.4,1.2,1.4,1.6
	c1.4,0.6,2.5,1.4,3.2,2.5c1.2,0,2.4,0,3.6,0c0-0.5-0.3-1.1-0.5-1.5C48.3,53.9,47.7,53.5,47.2,53.2z"/>
<path fill="#622C90" d="M25.5,53.1C25.5,53.1,25.5,53,25.5,53.1C25.5,53,25.5,53.1,25.5,53.1z"/>
<path fill="#622C90" d="M30.3,55.8c-0.9-0.6-1.3-1.5-1.8-2.4c-0.4-0.9-0.9-1.7-1.6-2.1c-0.7-0.5-1.7-0.2-2.1,0.4
	c-0.5,0.6-0.5,1.5,0,1.9c0.2,0.2,0.6,0.3,0.9,0.3c0.3,0,0.6-0.2,0.7-0.4c0.1-0.2,0.2-0.5,0.1-0.7c-0.1-0.2-0.3-0.3-0.5-0.3
	c-0.1,0-0.2,0-0.2,0.1c0,0,0.1,0,0.1,0c0.2,0,0.4,0.2,0.4,0.4c0,0.1-0.1,0.3-0.2,0.3c0,0,0,0,0,0.1c-0.1,0.1-0.2,0.1-0.3,0
	c-0.2,0-0.4-0.3-0.4-0.6c0-0.3,0.3-0.5,0.6-0.6c0.3,0,0.7,0.1,0.8,0.4c0.2,0.3,0.1,0.7,0,1c-0.2,0.3-0.6,0.6-1,0.6
	c-0.4,0-0.8-0.1-1.1-0.4c-0.3-0.3-0.5-0.7-0.5-1.2c0-0.5,0.2-0.9,0.5-1.3c0.3-0.4,0.7-0.6,1.2-0.8c-0.3-0.1-0.7-0.2-1-0.2
	c-1.3-0.3-2.7-0.3-3.9,0c-1.2,0.3-2.3,1-3,2c-0.7,1-1,2.2-0.9,3.4c0,0,0,0.1,0,0.1c1,0,2.1,0,3.3,0c0-0.3,0.2-0.7,0.4-0.9
	c0.5-0.6,1.5-0.9,2.4-0.7c0.4,0.1,0.9,0.4,1.2,0.8c0.2,0.3,0.4,0.6,0.5,0.9c2,0,4,0,6.1,0C30.5,55.9,30.4,55.8,30.3,55.8z"/>
<path fill="#622C90" d="M32.9,53.2c-0.2-0.2-0.5-0.4-0.8-0.4c-0.3,0-0.6,0.1-0.7,0.4c-0.2,0.2-0.2,0.5-0.1,0.7
	c0.1,0.2,0.3,0.3,0.5,0.3c0.2,0,0.3-0.1,0.4-0.2c-0.1,0-0.1,0.1-0.2,0.1c-0.2,0-0.4-0.2-0.4-0.4s0.2-0.4,0.4-0.4
	c0.1,0,0.2,0.1,0.3,0.1c0.1,0.1,0.2,0.3,0.2,0.5c0,0.3-0.3,0.5-0.6,0.5c-0.3,0-0.6-0.2-0.8-0.5c-0.2-0.3-0.1-0.7,0.1-1
	c0.1-0.2,0.3-0.3,0.4-0.4c-1-0.3-2-0.6-2.9-1c-0.3-0.1-0.6-0.2-0.9-0.3c0.6,0.5,1,1.2,1.3,1.9c0.4,0.9,0.9,1.7,1.6,2.2
	c0.7,0.5,1.7,0.3,2.2-0.3c0.1-0.1,0.1-0.1,0.1-0.2c0.1-0.1,0.1-0.3,0.2-0.4C33.3,54,33.2,53.5,32.9,53.2z"/>
<path fill="#622C90" d="M50.9,52.6c0.2,0.1,0.3,0.2,0.4,0.4c0.2,0.3,0.3,0.7,0.1,1c-0.2,0.3-0.5,0.5-0.8,0.5c-0.3,0-0.6-0.3-0.6-0.5
	c-0.1-0.2,0-0.4,0.2-0.5c0.1-0.1,0.2-0.1,0.3-0.1c0.2,0,0.4,0.2,0.4,0.4s-0.2,0.4-0.4,0.4c-0.1,0-0.1,0-0.2-0.1
	c0.1,0.1,0.2,0.2,0.4,0.2c0.2,0,0.4-0.1,0.5-0.3c0.1-0.2,0-0.5-0.1-0.7c-0.2-0.2-0.4-0.4-0.7-0.4c-0.3,0-0.6,0.1-0.8,0.4
	c-0.3,0.3-0.4,0.9-0.2,1.3c0.1,0.1,0.2,0.3,0.2,0.4c0,0.1,0.1,0.1,0.1,0.2c0.5,0.6,1.5,0.8,2.2,0.3c0.7-0.5,1.2-1.3,1.6-2.2
	c0.3-0.7,0.7-1.4,1.3-1.9c-0.3,0.1-0.6,0.2-0.9,0.3C52.9,51.9,51.9,52.3,50.9,52.6z"/>
<path fill="#622C90" d="M64.7,52.4c-0.7-1-1.8-1.7-3-2c-1.2-0.3-2.6-0.2-3.9,0c-0.3,0.1-0.7,0.1-1,0.2c0.5,0.1,0.9,0.4,1.2,0.8
	c0.3,0.4,0.5,0.8,0.5,1.3c0,0.5-0.2,0.9-0.5,1.2c-0.3,0.3-0.7,0.4-1.1,0.4c-0.4,0-0.8-0.3-1-0.6c-0.2-0.3-0.2-0.7,0-1
	c0.2-0.3,0.5-0.5,0.8-0.4c0.3,0,0.6,0.3,0.6,0.6c0.1,0.3-0.1,0.5-0.4,0.6c-0.1,0-0.2,0-0.3,0c0,0,0,0,0,0c-0.1-0.1-0.2-0.2-0.2-0.4
	c0-0.2,0.2-0.4,0.4-0.4c0,0,0.1,0,0.1,0c-0.1,0-0.1-0.1-0.2-0.1c-0.2,0-0.4,0.1-0.5,0.3c-0.1,0.2-0.1,0.5,0.1,0.7
	c0.1,0.2,0.4,0.4,0.7,0.4c0.3,0,0.6-0.1,0.9-0.3c0.5-0.4,0.5-1.3,0-1.9c-0.5-0.6-1.4-0.9-2.1-0.4c-0.7,0.4-1.2,1.3-1.6,2.1
	c-0.4,0.9-0.9,1.8-1.8,2.4c-0.1,0.1-0.2,0.1-0.3,0.2c2,0,4.1,0,6.1,0c0.1-0.3,0.3-0.6,0.5-0.9c0.3-0.4,0.7-0.6,1.2-0.8
	c0.9-0.3,1.8,0.1,2.4,0.7c0.3,0.3,0.4,0.6,0.4,0.9c1.2,0,2.3,0,3.3,0c0,0,0-0.1,0-0.1C65.7,54.7,65.4,53.4,64.7,52.4z"/>
</svg>
